<svg xmlns="http://www.w3.org/2000/svg" width="96" height="96" viewBox="0 0 96 96" fill="none">

<path d="M79.795 25.667L79.9 91.563H9.41699V51.905L9.42899 51.906L11.671 51.895C12.869 51.895 14.403 52.02 15.765 51.925L15.244 85.288L73.967 84.391L75.312 31.047L50.657 57.046L55.588 61.082L41.692 64.219L43.259 50.157L47.171 53.767L71.278 27.91H45.334C45.314 27.785 45.275 27.668 45.225 27.565L45.227 27.513C45.27 27.264 45.285 27 45.282 26.732C45.345 25.826 45.517 22.824 45.153 22.154C45.207 22.1 45.233 22.034 45.238 21.964L75.76 22.081L91.001 4.59802L93.691 7.73702L94.14 9.75402L79.795 25.667Z" fill="#241D13"/>
<path d="M29.6649 41.221H37.7639L24.5819 2.38403H15.2009L1.70093 41.221H9.74093L12.2589 32.899H27.1279L29.6649 41.221ZM20.9899 12.32L25.5849 27.35H13.6589L18.3129 12.2C18.4839 11.641 18.6229 11.086 18.7259 10.543C18.8299 9.99803 18.9049 9.42903 18.9499 8.84903L18.9969 8.25703H20.3139L20.3659 8.84203C20.4259 9.50503 20.5139 10.136 20.6169 10.725C20.7189 11.295 20.8439 11.83 20.9899 12.32Z" fill="#241D13"/>
</svg>