<svg xmlns="http://www.w3.org/2000/svg" width="96" height="96" viewBox="0 0 96 96" fill="none">

<path d="M45.613 8.396C34.587 9.077 24.47 14.187 17.415 22.632C8.69603 33.067 5.95803 47.272 10.154 60.227C14.789 74.53 27.227 85.038 42.132 87.24C52.707 88.8 63.355 86.109 71.902 79.707C77.093 75.819 81.416 70.49 84.094 64.69C89.903 52.1 88.79 37.545 81.131 26.044C74.985 16.814 65.259 10.578 54.292 8.825C51.547 8.382 48.325 8.223 45.613 8.396ZM51.381 13.447C57.117 14.037 62.327 15.868 67.062 18.949C74.859 24.041 80.343 32.135 82.139 41.221C82.61 43.608 82.769 45.315 82.769 47.999C82.775 50.519 82.649 52 82.239 54.248C80.083 66.211 71.577 76.315 60.087 80.561C54.743 82.531 48.796 83.173 43.16 82.379C34.01 81.096 25.769 76.249 20.186 68.862C16.659 64.194 14.378 58.732 13.562 53.018C13.284 51.041 13.231 50.247 13.231 47.999C13.231 45.751 13.278 44.958 13.562 42.974C14.855 33.86 19.928 25.47 27.439 19.995C32.85 16.053 39.009 13.818 45.778 13.348C46.946 13.269 50.188 13.322 51.381 13.447Z" fill="#241D13"/>
<path d="M40.04 60.138H46.401L36.047 29.71H28.676L18.072 60.138H24.388L26.366 53.619H38.046L40.04 60.138ZM33.225 37.494L36.834 49.27H27.465L31.122 37.401C31.257 36.962 31.366 36.528 31.446 36.102C31.528 35.674 31.588 35.23 31.622 34.776L31.659 34.311H32.694L32.735 34.77C32.781 35.288 32.851 35.784 32.932 36.245C33.011 36.692 33.11 37.111 33.225 37.494Z" fill="#241D13"/>
<path d="M53.6829 42.553C53.6839 44.546 53.7839 46.787 53.9059 47.536C54.3179 50.069 55.8429 51.987 57.9529 52.626C59.8499 53.2 63.0749 52.869 65.5229 51.849C65.8659 51.705 65.8909 51.962 65.8909 55.601V59.508H71.1549V38.932H65.8909V48.332L65.1699 48.674C63.5869 49.422 61.4899 49.489 60.2609 48.83C60.0009 48.691 59.5789 48.177 59.3219 47.691C58.9019 46.89 58.8479 46.429 58.7729 42.869L58.6879 38.932H53.6819L53.6829 42.553Z" fill="#241D13"/>
<path d="M48.757 49.396H48.732C48.184 49.396 47.735 49.206 47.386 48.824C47.037 48.442 46.863 47.961 46.863 47.385C46.863 46.808 47.042 46.328 47.399 45.946C47.756 45.564 48.209 45.373 48.757 45.373C49.322 45.373 49.779 45.559 50.129 45.933C50.478 46.307 50.652 46.79 50.652 47.385C50.652 47.961 50.478 48.442 50.129 48.824C49.779 49.206 49.322 49.396 48.757 49.396Z" fill="#241D13"/>
<path d="M95.3541 49.5111H87.7771V45.7321H95.3541V49.5111Z" fill="#241D13"/>
<path d="M8.222 49.5111H0.645996V45.7321H8.222V49.5111Z" fill="#241D13"/>
</svg>