<svg xmlns="http://www.w3.org/2000/svg" width="96" height="96" viewBox="0 0 96 96" fill="none">

<path d="M78.6089 22.441L78.7219 92.626H3.6499V50.388H3.6629L6.0509 50.376C7.3269 50.376 8.9609 50.51 10.4109 50.409L9.8559 85.942L72.4029 84.987L73.8349 28.171L47.5759 55.863L52.8269 60.16L38.0259 63.503L39.6949 48.525L43.8619 52.371L69.5379 24.829H41.9059C41.8849 24.696 41.8429 24.572 41.7899 24.462L41.7919 24.406C41.8369 24.142 41.8519 23.861 41.8499 23.575C41.9179 22.609 42.1009 19.412 41.7129 18.699C41.7699 18.641 41.7979 18.572 41.8039 18.497L74.3119 18.621L90.5459 0L93.4099 3.343L93.8879 5.492L78.6089 22.441Z" fill="#26201A"/>
<path d="M35.4918 45.3769H30.8508L30.5248 41.0809H10.1118V11.0129H16.5778L16.5548 36.7849H27.2708L27.2928 11.0129H33.7728L33.7368 36.7849H35.8848L35.4918 45.3769Z" fill="black"/>
</svg>