<svg xmlns="http://www.w3.org/2000/svg" width="96" height="96" viewBox="0 0 96 96" fill="none">

<path d="M27.5939 26.694C27.3799 27.644 27.1299 28.802 27.0379 29.269C26.9119 29.912 26.8309 30.12 26.7059 30.12C26.6139 30.12 26.0999 30 25.5609 29.856C25.0229 29.71 23.7019 29.366 22.6249 29.09C21.5489 28.814 19.9259 28.397 19.0199 28.163C11.6289 26.254 11.4459 26.21 11.0259 26.207C10.5499 26.204 10.0059 26.564 9.78191 27.03C9.50891 27.598 9.05191 29.807 9.11391 30.265C9.17091 30.702 9.40991 31.082 9.80591 31.372C9.94391 31.473 10.7989 31.745 11.7059 31.977C12.6119 32.208 14.1649 32.607 15.1569 32.863C16.1479 33.119 18.8609 33.816 21.1829 34.412C23.5059 35.009 25.4489 35.536 25.4999 35.584C25.5539 35.637 25.4819 36.194 25.3249 36.939C24.7669 39.573 24.2929 41.61 24.2179 41.694C24.1749 41.742 23.8919 41.71 23.5889 41.621C23.2859 41.534 22.1339 41.23 21.0289 40.949C19.9239 40.666 18.2779 40.244 17.3719 40.008C16.4649 39.774 15.0279 39.403 14.1779 39.185C13.3289 38.968 11.8909 38.598 10.9849 38.363C5.64491 36.98 5.32691 36.908 4.85791 36.975C3.12691 37.223 1.42791 39.442 1.27691 41.654C1.14191 43.612 1.91891 45.475 3.12791 46.099C3.33991 46.207 4.22191 46.478 5.08591 46.7C5.94991 46.921 7.58491 47.342 8.71791 47.634C12.0599 48.497 13.9509 48.985 18.0929 50.05C20.2459 50.604 22.0419 51.088 22.0839 51.126C22.1259 51.165 22.0429 51.727 21.8999 52.376C21.4669 54.34 20.7919 57.264 20.7639 57.3C20.7489 57.318 20.3739 57.233 19.9299 57.111C19.4859 56.988 18.3349 56.686 17.3719 56.441C16.4079 56.195 14.8779 55.801 13.9729 55.565C13.0659 55.331 11.6289 54.96 10.7779 54.743C9.92891 54.525 8.30791 54.108 7.17691 53.816C4.82491 53.208 4.61091 53.207 4.02991 53.797C3.68891 54.145 3.63291 54.294 3.32191 55.681C2.94591 57.364 2.96691 57.734 3.47191 58.277C3.81591 58.645 3.89991 58.676 6.24591 59.276C7.32191 59.552 8.82891 59.939 9.59291 60.137C10.3579 60.334 12.9079 60.992 15.2599 61.597C17.6109 62.202 19.5469 62.708 19.5609 62.72C19.5759 62.734 19.3099 63.851 18.9699 65.202C18.6289 66.554 18.3859 67.692 18.4279 67.731C18.4699 67.77 21.0319 68.435 24.1189 69.209C27.2079 69.983 30.0719 70.71 30.4859 70.824L31.2379 71.032L33.0409 69.274C34.0329 68.307 34.9229 67.517 35.0189 67.517C35.1159 67.517 35.8699 67.695 36.6949 67.913L38.1959 68.308L39.8099 65.105C40.6989 63.343 42.5319 59.711 43.8859 57.034L46.3449 52.167L36.0529 52.141L25.7599 52.114L27.4899 50.26C28.4399 49.241 31.0239 46.529 33.2299 44.234C35.4359 41.939 38.2869 38.971 39.5639 37.64C40.8419 36.308 42.2449 34.848 42.6819 34.392L43.4779 33.565L43.2129 31.199C43.0679 29.897 42.9359 28.817 42.9189 28.799C42.9039 28.782 42.2709 28.613 41.5139 28.423C40.7579 28.234 39.3279 27.868 38.3359 27.61C33.4259 26.336 28.0959 24.968 28.0429 24.968C28.0089 24.968 27.8079 25.745 27.5939 26.694Z" fill="#241D13"/>
<path d="M47.0758 35.5541C46.3088 36.8991 44.3038 40.4051 42.6198 43.3431C40.9368 46.2821 39.5789 48.7051 39.6019 48.7281C39.6259 48.7511 43.3948 47.5651 47.9788 46.0901C52.5628 44.6161 56.3628 43.4091 56.4248 43.4091C56.5358 43.4091 56.3169 44.4681 55.4899 47.9421C54.9409 50.2461 54.2608 53.1431 53.7358 55.4111C53.4738 56.5441 53.0579 58.3291 52.8109 59.3781C52.1709 62.0921 51.4919 64.9851 50.9489 67.3101C50.6919 68.4151 50.4559 69.4001 50.4279 69.4991C50.3779 69.6691 50.6888 69.6801 55.9308 69.6801H61.4868L62.4398 68.6241C62.9658 68.0431 63.5928 67.2901 63.8348 66.9491C64.9628 65.3671 65.9628 62.7221 66.3908 60.2011L66.6248 58.8111L68.1649 58.7591C69.5469 58.7141 69.7678 58.6791 70.3228 58.4331C71.7738 57.7871 72.4618 57.3161 73.0188 56.5861L73.4038 56.0801H76.9308C78.8708 56.0801 80.4818 56.1201 80.5128 56.1681C80.5418 56.2171 80.4279 56.8061 80.2579 57.4791C79.6569 59.8601 79.6308 61.5931 80.1618 64.1161C80.6538 66.4561 82.3629 68.9101 84.1739 69.8741C84.9599 70.2931 86.8279 70.7811 88.2029 70.9241C89.7479 71.0881 92.0338 71.0071 92.6258 70.7681C92.8818 70.6661 93.4598 70.4511 93.9138 70.2901L94.7378 69.9981L94.7358 68.5511C94.7358 67.7551 94.7238 65.7821 94.7098 64.1681L94.6858 61.2311H94.0338C93.0968 61.2311 91.9328 61.5621 90.5818 62.2121C89.9358 62.5231 89.2938 62.7771 89.1568 62.7771C88.8398 62.7771 88.4138 62.5561 88.1308 62.2461C87.8008 61.8851 87.3108 60.8421 87.1778 60.2191C87.0728 59.7191 87.0858 59.6041 87.3318 58.9311C87.8648 57.4771 87.9778 56.9091 87.9838 55.6691C87.9968 52.7411 87.3308 50.7631 85.8248 49.2551C85.1508 48.5801 84.8598 48.3761 83.9588 47.9461C82.8838 47.4331 81.4379 47.0171 80.0069 46.8131C79.6099 46.7561 77.9768 46.7091 76.3788 46.7081C74.1828 46.7071 73.4468 46.6751 73.3658 46.5771C73.3068 46.5061 73.0158 46.1261 72.7188 45.7331C72.1198 44.9431 71.1028 44.1771 70.1848 43.8251C69.7228 43.6491 69.3978 43.6151 68.1548 43.6151H66.6749L66.6118 43.2291C65.8688 38.6271 64.8518 36.2691 62.6108 33.9571L61.7878 33.1071H48.4728L47.0758 35.5541Z" fill="#241D13"/>
</svg>