<svg xmlns="http://www.w3.org/2000/svg" width="96" height="96" viewBox="0 0 96 96" fill="none">

<path d="M36.637 74.139C40.033 76.105 42.319 79.776 42.319 83.982C42.319 90.258 37.231 95.345 30.956 95.345C24.68 95.345 19.593 90.258 19.593 83.982C19.593 79.776 21.878 76.105 25.274 74.139C25.274 48.058 25.274 26.079 25.274 6.33703C25.274 3.21103 27.83 0.655029 30.956 0.655029C34.081 0.655029 36.637 3.21203 36.637 6.33703V46.106H53.457C49.932 39.162 48.302 34.112 44.777 27.168H76.407V30.956H64.311L57.683 46.106H66.938V49.894C57.782 49.894 45.957 49.894 36.637 49.894V74.139ZM30.956 4.44203C29.913 4.44203 29.062 5.29203 29.062 6.33603V29.062H32.85V6.33603C32.85 5.29303 31.998 4.44203 30.956 4.44203ZM50.936 30.956L55.564 41.911L60.095 30.956H50.936Z" fill="#26201A"/>
</svg>