<svg xmlns="http://www.w3.org/2000/svg" width="96" height="96" viewBox="0 0 96 96" fill="none">

<path d="M45.8641 8.15205C45.2501 8.43105 44.3041 9.10105 43.8041 9.65905C43.3011 10.2691 33.9491 26.4741 23.0911 45.7961C8.27809 71.9671 3.26709 81.3231 3.26709 82.6581C3.26709 83.8821 3.82309 85.0531 4.88009 86.2771L6.49709 88.1161L47.1461 88.2831C73.0921 88.3371 88.2941 88.2261 89.2401 87.8371C91.2451 87.1131 93.0271 84.1071 92.6951 81.9911C92.5811 81.0441 83.5071 64.45 72.4811 45.017C51.9891 8.76605 51.2651 7.59605 48.0911 7.70905C47.4781 7.70905 46.4781 7.93105 45.8641 8.15205ZM67.4131 47.802C77.7141 66.01 86.1771 81.2121 86.1771 81.5441C86.2341 82.1011 78.1601 82.2691 47.7561 82.2691C26.5961 82.2691 9.39209 82.0471 9.50309 81.7691C10.5621 79.0951 47.7021 14.3921 48.0911 14.5021C48.4261 14.6131 57.1111 29.591 67.4131 47.802Z" fill="#241D13"/>
<path d="M45.8222 28.693C45.4322 29.417 45.0132 30.698 44.8922 31.477C44.8032 32.258 44.8922 39.829 45.1322 48.296L45.5812 63.72L46.3912 65.055C47.4122 66.671 48.4312 66.671 49.4212 65.055L50.2012 63.83L50.6202 48.128C50.9202 38.105 50.9802 31.979 50.8012 31.088C50.0512 27.468 47.2312 26.076 45.8222 28.693Z" fill="#241D13"/>
<path d="M45.8411 72.2041C44.8621 72.9851 44.5671 73.6221 44.5671 75.0911C44.5671 77.2441 46.2811 79.0081 48.3361 79.0081C50.0031 79.0081 51.9111 76.9521 51.9111 75.0911C51.9111 73.2301 50.0031 71.1741 48.3361 71.1741C47.6991 71.1741 46.5751 71.6141 45.8411 72.2041Z" fill="#241D13"/>
</svg>