<svg xmlns="http://www.w3.org/2000/svg" width="96" height="96" viewBox="0 0 96 96" fill="none">

<path d="M38.341 16.265V25.883L35.87 28.059C22.845 39.522 20.811 60.589 31.376 74.58C38.305 83.758 47.835 88.497 59.354 88.497C69.098 88.497 77.13 85.182 83.978 78.334C90.558 71.757 94.011 63.329 94.011 53.856C94.011 44.505 90.59 36.06 84.16 29.541L80.367 25.694V6.646H38.341V16.265ZM74.91 20.453V28.798L77.586 30.841C84.56 36.158 88.554 44.537 88.554 53.856C88.554 62.102 85.793 68.835 80.064 74.566C74.261 80.367 67.705 83.056 59.354 83.056C51.024 83.056 44.351 80.334 38.613 74.596C31.459 67.439 28.384 56.771 30.671 47.033C32.131 40.839 36.789 33.733 41.567 30.421L43.799 28.874V12.103H74.91V20.453Z" fill="#241D13"/>
<path d="M47.0909 36.726C44.9249 37.589 42.2259 39.868 41.3419 41.578C39.6769 44.794 40.7079 49.63 43.5239 51.846C44.8899 52.921 47.5409 53.871 52.4889 55.061C57.1369 56.177 52.9999 58.848 47.5939 58.218C44.6819 57.881 44.3469 57.962 42.7349 59.403C39.3619 62.419 40.1399 67.591 44.5489 71.462C46.9579 73.578 48.2289 73.974 51.1819 73.53C55.5399 72.878 57.9439 69.772 59.1939 63.177C59.9769 59.052 60.8929 58.566 62.1619 61.6C62.7629 63.043 62.8969 64.44 62.6349 66.541C62.1969 70.065 63.0999 71.823 65.9739 73.023C68.4369 74.053 71.0229 73.558 73.8389 71.518C78.0799 68.443 79.1579 64.789 77.1369 60.338C76.3259 58.553 75.5079 57.789 73.1919 56.662C71.5849 55.88 68.9229 55.048 67.2739 54.814C61.3609 53.973 64.6349 50.872 70.6819 51.588C74.0709 51.988 76.0709 51.046 77.2909 48.477C78.4969 45.936 78.4239 45 76.7589 41.663C74.2179 36.561 69.2769 34.707 64.5389 37.076C62.1679 38.259 59.8569 42.554 59.3329 46.75C58.8659 50.475 57.7189 51.1 56.5369 48.274C55.9239 46.801 55.7909 45.384 56.0509 43.07C56.4029 39.973 56.3629 39.84 54.5269 38.002C53.0069 36.485 52.2329 36.125 50.5399 36.153C49.3849 36.171 47.8299 36.429 47.0909 36.726Z" fill="#241D13"/>
<path d="M6.01592 8.14104C5.19692 8.65204 4.00992 10.056 3.37692 11.267L2.22192 13.467L3.64692 39.589C4.43192 53.954 5.31392 66.16 5.61092 66.713C7.36492 69.993 12.3169 70.242 14.2489 67.147C14.7139 66.403 15.3789 57.651 16.3319 39.708C17.6669 14.581 17.6879 13.269 16.7879 11.376C14.9869 7.57904 9.55492 5.94804 6.01592 8.14104Z" fill="#241D13"/>
<path d="M6.95788 79.323C4.91988 80.445 3.98088 82.15 3.96888 84.756C3.95288 87.894 5.38888 89.883 8.29788 90.754C12.8399 92.115 17.3819 87.574 16.0209 83.033C15.1789 80.224 13.1429 78.686 10.2949 78.707C9.05988 78.715 7.55888 78.993 6.95788 79.323Z" fill="#241D13"/>
</svg>