<svg xmlns="http://www.w3.org/2000/svg" width="96" height="96" viewBox="0 0 96 96" fill="none">

<path d="M61.2839 43.5359H72.5569V30.8869C72.5569 30.2759 72.3049 29.719 71.8989 29.313C71.4939 28.907 70.9359 28.655 70.3249 28.655H45.2079L49.4919 32.9399L46.3349 36.096L39.0749 28.836L31.8139 36.096L28.6589 32.9399L32.9429 28.655H25.6809C25.0699 28.655 24.5119 28.907 24.1069 29.313C23.7019 29.719 23.4489 30.2759 23.4489 30.8869V43.5359H34.7159C36.9409 43.5359 38.9619 44.4439 40.4229 45.9059C41.8859 47.3689 42.7949 49.3889 42.7949 51.6129V77.123C42.7949 79.347 41.8859 81.367 40.4239 82.83C38.9609 84.292 36.9409 85.2 34.7159 85.2H9.20593C6.98093 85.2 4.96093 84.292 3.49793 82.83C2.03593 81.367 1.12793 79.347 1.12793 77.123V51.6129C1.12793 49.3889 2.03593 47.3689 3.49793 45.9059C4.96093 44.4439 6.98093 43.5359 9.20593 43.5359H18.9849V30.8869C18.9849 29.0439 19.7369 27.37 20.9499 26.1569C22.1629 24.9439 23.8369 24.191 25.6809 24.191H34.4299L28.6589 18.42L31.8139 15.2629L39.0749 22.524L46.3349 15.2629L49.4919 18.42L43.7199 24.191H70.3249C72.1689 24.191 73.8429 24.9439 75.0559 26.1569C76.2689 27.37 77.0209 29.0439 77.0209 30.8869V43.5359H86.7939C89.0189 43.5359 91.0389 44.4439 92.5019 45.9059C93.9639 47.3689 94.8729 49.3889 94.8729 51.6129V77.123C94.8729 79.347 93.9639 81.367 92.5019 82.83C91.0389 84.292 89.0189 85.2 86.7939 85.2H61.2839C59.0599 85.2 57.0389 84.292 55.5759 82.83C54.1129 81.367 53.2049 79.347 53.2049 77.123V51.6129C53.2049 49.3889 54.1129 47.3689 55.5759 45.9059C57.0389 44.4439 59.0599 43.5359 61.2839 43.5359ZM34.7159 49.4879H9.20593C8.62393 49.4879 8.09293 49.728 7.70593 50.115C7.31993 50.501 7.07993 51.0329 7.07993 51.6129V77.123C7.07993 77.703 7.31993 78.235 7.70593 78.621C8.09293 79.008 8.62393 79.248 9.20593 79.248H34.7159C35.2969 79.248 35.8279 79.008 36.2149 78.621C36.6019 78.235 36.8419 77.703 36.8419 77.123V51.6129C36.8419 51.0329 36.6019 50.501 36.2149 50.115C35.8279 49.728 35.2969 49.4879 34.7159 49.4879ZM86.7939 49.4879H61.2839C60.7019 49.4879 60.1719 49.728 59.7849 50.115C59.3979 50.501 59.1579 51.0329 59.1579 51.6129V77.123C59.1579 77.703 59.3979 78.235 59.7849 78.621C60.1709 79.008 60.7019 79.248 61.2839 79.248H86.7939C87.3759 79.248 87.9069 79.008 88.2939 78.621C88.6789 78.235 88.9199 77.703 88.9199 77.123V51.6129C88.9199 51.0329 88.6789 50.501 88.2929 50.115C87.9059 49.728 87.3759 49.4879 86.7939 49.4879ZM53.2049 10.799H56.1809V21.215H53.2049V10.799ZM72.5499 10.799H75.5259V21.215H72.5499V10.799ZM91.8959 10.799H94.8719V21.215H91.8959V10.799ZM64.3659 10.799C65.7969 10.799 67.0969 11.382 68.0419 12.325L68.0479 12.331C68.9909 13.276 69.5739 14.5759 69.5739 16.0079C69.5739 17.4449 68.9909 18.7469 68.0479 19.6889L68.0449 19.686C67.0999 20.632 65.7989 21.215 64.3659 21.215C62.9279 21.215 61.6259 20.6329 60.6829 19.6889C59.7399 18.7469 59.1569 17.4449 59.1569 16.0079C59.1569 14.5749 59.7419 13.274 60.6859 12.328L60.6829 12.325C61.6259 11.382 62.9279 10.799 64.3659 10.799ZM65.9439 14.423C65.5439 14.023 64.9859 13.776 64.3659 13.776C63.7489 13.776 63.1909 14.025 62.7879 14.429H62.7819C62.3809 14.829 62.1329 15.3869 62.1329 16.0079C62.1329 16.6239 62.3829 17.182 62.7879 17.586C63.1909 17.99 63.7489 18.24 64.3659 18.24C64.9859 18.24 65.5439 17.9919 65.9439 17.5919V17.586C66.3479 17.182 66.5979 16.6239 66.5979 16.0079C66.5979 15.3869 66.3499 14.829 65.9499 14.429L65.9439 14.423ZM83.7119 10.799C85.1429 10.799 86.4419 11.382 87.3869 12.325L87.3929 12.331C88.3369 13.276 88.9199 14.5759 88.9199 16.0079C88.9199 17.4449 88.3369 18.7469 87.3929 19.6889L87.3909 19.686C86.4449 20.632 85.1439 21.215 83.7119 21.215C82.2729 21.215 80.9709 20.6329 80.0279 19.6889C79.0859 18.7469 78.5029 17.4449 78.5029 16.0079C78.5029 14.5749 79.0869 13.274 80.0319 12.328L80.0279 12.325C80.9709 11.382 82.2729 10.799 83.7119 10.799ZM85.2889 14.423C84.8899 14.023 84.3309 13.776 83.7119 13.776C83.0939 13.776 82.5369 14.025 82.1329 14.429H82.1269C81.7259 14.829 81.4789 15.3869 81.4789 16.0079C81.4789 16.6239 81.7279 17.182 82.1329 17.586C82.5369 17.99 83.0939 18.24 83.7119 18.24C84.3309 18.24 84.8899 17.9919 85.2889 17.5919V17.586C85.6929 17.182 85.9439 16.6239 85.9439 16.0079C85.9439 15.3869 85.6949 14.829 85.2949 14.429L85.2889 14.423Z" fill="#26201A"/>
</svg>