<svg xmlns="http://www.w3.org/2000/svg" width="96" height="96" viewBox="0 0 96 96" fill="none">

<g clip-path="url(#clip0_0_1)">
<path d="M25.7851 31.683L3.61206 53.506H13.6021V86.14H82.4001V53.506H92.3881L70.5471 32.009V11.735H58.5271V20.18L53.2801 15.015C50.4051 12.185 48.0261 9.85999 48.0001 9.85999C47.9761 9.85999 37.9801 19.682 25.7851 31.683ZM54.5231 19.666L61.0131 26.054V14.183H68.0591V32.988L86.4191 51.059H79.9121V83.692H16.0871V51.059H9.58106L28.7701 32.172C39.3221 21.787 47.9761 13.286 48.0001 13.286C48.0261 13.286 50.9591 16.158 54.5231 19.666Z" fill="#241D13"/>
<path d="M2.39207 52.305L24.5641 30.482L27.0061 32.884L4.83307 54.707L3.61207 55.205L2.39207 52.305ZM3.61207 55.205H-0.554932L2.39207 52.305L3.61207 55.205ZM13.6021 55.205H3.61207V51.808H13.6021L15.3281 53.506L13.6021 55.205ZM13.6021 51.808H15.3281V53.506L13.6021 51.808ZM11.8751 86.14V53.506H15.3281V86.14L13.6021 87.838L11.8751 86.14ZM13.6021 87.838H11.8751V86.14L13.6021 87.838ZM82.4001 87.838H13.6021V84.441H82.4001L84.1261 86.14L82.4001 87.838ZM84.1261 86.14V87.838H82.4001L84.1261 86.14ZM84.1261 53.506V86.14H80.6731V53.506L82.4001 51.808L84.1261 53.506ZM80.6731 53.506V51.808H82.4001L80.6731 53.506ZM92.3881 55.205H82.4001V51.808H92.3881L93.6081 52.305L92.3881 55.205ZM93.6081 52.305L96.5551 55.205H92.3881L93.6081 52.305ZM71.7681 30.808L93.6081 52.305L91.1661 54.707L69.3261 33.21L68.8201 32.009L71.7681 30.808ZM69.3261 33.21L68.8201 32.713V32.009L69.3261 33.21ZM72.2731 11.735V32.009H68.8201V11.735L70.5471 10.037L72.2731 11.735ZM70.5471 10.037H72.2731V11.735L70.5471 10.037ZM58.5271 10.037H70.5471V13.434H58.5271L56.8001 11.735L58.5271 10.037ZM56.8001 11.735V10.037H58.5271L56.8001 11.735ZM56.8001 20.18V11.735H60.2541V20.18L57.3061 21.381L56.8001 20.18ZM60.2541 20.18V24.282L57.3061 21.381L60.2541 20.18ZM54.5011 13.814L59.7481 18.979L57.3061 21.381L52.0591 16.216L54.5011 13.814ZM48.0001 11.558V8.16101L49.1391 8.58201L49.1971 8.63301L49.2531 8.68501L49.3131 8.74101L49.3751 8.80001L49.4531 8.87401L49.5461 8.96301L49.6441 9.05801L49.7461 9.15701L49.8661 9.27401L49.9991 9.40201L50.1371 9.53601L50.2861 9.68001L50.4451 9.83801L50.6111 10L50.7881 10.171L50.9701 10.349L51.1621 10.537L51.3631 10.735L51.5691 10.935L51.7841 11.145L52.0051 11.363L52.2321 11.585L52.4631 11.812L52.7031 12.047L52.9471 12.287L53.1931 12.528L53.4491 12.779L53.7061 13.033L53.9671 13.289L54.2331 13.55L54.5011 13.814L52.0591 16.216L51.7911 15.953L51.5281 15.693L51.2641 15.436L51.0091 15.182L50.7581 14.937L50.5071 14.691L50.2631 14.451L50.0281 14.219L49.7931 13.99L49.5681 13.767L49.3491 13.554L49.1361 13.344L48.9281 13.142L48.7321 12.948L48.5391 12.763L48.3551 12.582L48.1811 12.411L48.0131 12.247L47.8581 12.097L47.7111 11.955L47.5711 11.818L47.4481 11.697L47.3301 11.585L47.2181 11.477L47.1251 11.386L47.0481 11.311L46.9801 11.246L46.9201 11.19L46.8811 11.153L46.8661 11.14L46.8791 11.152L48.0001 11.558ZM27.0061 32.884L24.5641 30.482L25.7031 29.364L26.8251 28.259L27.9311 27.171L29.0191 26.099L30.0911 25.045L31.1421 24.011L32.1711 22.999L33.1771 22.009L34.1601 21.042L35.1161 20.102L36.0461 19.188L36.9461 18.302L37.8181 17.445L38.6581 16.62L39.4641 15.828L40.2361 15.069L40.9751 14.345L41.6731 13.658L42.3361 13.008L42.9571 12.398L43.5371 11.828L44.0751 11.301L44.5691 10.818L45.0151 10.378L45.4161 9.98701L45.7681 9.64101L46.0721 9.34401L46.3251 9.09801L46.5241 8.90401L46.6681 8.76201L46.7751 8.66001L48.0001 8.16101V11.558L49.1611 11.116L49.0921 11.183L48.9491 11.321L48.7531 11.512L48.5041 11.755L48.2031 12.05L47.8511 12.394L47.4521 12.785L47.0041 13.224L46.5101 13.708L45.9741 14.234L45.3941 14.803L44.7731 15.412L44.1121 16.062L43.4121 16.75L42.6761 17.473L41.9041 18.233L41.0971 19.025L40.2571 19.85L39.3861 20.706L38.4851 21.59L37.5551 22.506L36.5991 23.446L35.6171 24.411L34.6101 25.401L33.5821 26.414L32.5311 27.447L31.4611 28.501L30.3711 29.573L29.2641 30.661L28.1421 31.766L27.0061 32.884ZM59.7921 27.255L53.3021 20.867L55.7441 18.465L62.2341 24.853L62.7401 26.054L59.7921 27.255ZM62.7401 26.054V30.156L59.7921 27.255L62.7401 26.054ZM62.7401 14.183V26.054H59.2871V14.183L61.0131 12.485L62.7401 14.183ZM59.2871 14.183V12.485H61.0131L59.2871 14.183ZM68.0591 15.882H61.0131V12.485H68.0591L69.7861 14.183L68.0591 15.882ZM68.0591 12.485H69.7861V14.183L68.0591 12.485ZM66.3331 32.988V14.183H69.7861V32.988L66.8391 34.189L66.3331 32.988ZM66.8391 34.189L66.3331 33.692V32.988L66.8391 34.189ZM85.1981 52.26L66.8391 34.189L69.2801 31.787L87.6401 49.858L86.4191 52.757L85.1981 52.26ZM87.6401 49.858L90.5861 52.757H86.4191L87.6401 49.858ZM79.9121 49.36H86.4191V52.757H79.9121L78.1861 51.059L79.9121 49.36ZM78.1861 51.059V49.36H79.9121L78.1861 51.059ZM78.1861 83.692V51.059H81.6391V83.692L79.9121 85.391L78.1861 83.692ZM81.6391 83.692V85.391H79.9121L81.6391 83.692ZM16.0871 81.993H79.9121V85.391H16.0871L14.3611 83.692L16.0871 81.993ZM16.0871 85.391H14.3611V83.692L16.0871 85.391ZM17.8141 51.059V83.692H14.3611V51.059L16.0871 49.36L17.8141 51.059ZM16.0871 49.36H17.8141V51.059L16.0871 49.36ZM9.58107 49.36H16.0871V52.757H9.58107L8.36007 49.858L9.58107 49.36ZM9.58107 52.757H5.41407L8.36007 49.858L9.58107 52.757ZM29.9911 33.373L10.8021 52.26L8.36007 49.858L27.5491 30.971L29.9911 33.373ZM48.0001 11.587V14.985L49.1671 14.536L49.1041 14.597L48.9821 14.716L48.8131 14.88L48.5981 15.091L48.3361 15.346L48.0331 15.642L47.6861 15.981L47.2991 16.36L46.8741 16.778L46.4071 17.234L45.9051 17.727L45.3671 18.255L44.7951 18.815L44.1891 19.411L43.5511 20.038L42.8831 20.695L42.1841 21.381L41.4571 22.094L40.7041 22.835L39.9251 23.601L39.1201 24.391L38.2931 25.207L37.4431 26.042L36.5721 26.898L35.6811 27.774L34.7711 28.669L33.8451 29.58L32.9021 30.508L31.9451 31.45L30.9731 32.405L29.9911 33.373L27.5491 30.971L28.5341 30.003L29.5051 29.048L30.4631 28.105L31.4051 27.178L32.3311 26.267L33.2411 25.372L34.1301 24.496L35.0031 23.637L35.8541 22.802L36.6811 21.989L37.4861 21.197L38.2651 20.43L39.0201 19.689L39.7471 18.976L40.4441 18.29L41.1131 17.633L41.7521 17.006L42.3581 16.411L42.9301 15.848L43.4681 15.32L43.9701 14.827L44.4361 14.371L44.8641 13.952L45.2521 13.571L45.5981 13.232L45.9051 12.932L46.1671 12.677L46.3851 12.464L46.5611 12.295L46.6881 12.171L46.7791 12.085L48.0001 11.587ZM55.7441 18.465L53.3021 20.867L52.9701 20.54L52.6431 20.217L52.3201 19.899L52.0021 19.587L51.6881 19.28L51.3791 18.976L51.0781 18.679L50.7871 18.392L50.4991 18.112L50.2161 17.834L49.9441 17.566L49.6821 17.309L49.4271 17.06L49.1811 16.819L48.9441 16.586L48.7181 16.365L48.5031 16.156L48.2961 15.954L48.1031 15.763L47.9221 15.588L47.7521 15.423L47.5921 15.268L47.4461 15.125L47.3191 15.001L47.1991 14.886L47.0951 14.784L47.0181 14.71L46.9431 14.64L46.8801 14.579L46.8601 14.561L46.8841 14.581L48.0001 14.985V11.587L49.1371 12.008L49.2161 12.077L49.2831 12.14L49.3391 12.193L49.4151 12.266L49.5181 12.363L49.6211 12.465L49.7391 12.578L49.8761 12.711L50.0201 12.851L50.1771 13.004L50.3501 13.172L50.5351 13.354L50.7281 13.543L50.9341 13.742L51.1521 13.956L51.3791 14.179L51.6141 14.409L51.8621 14.65L52.1171 14.902L52.3841 15.162L52.6551 15.43L52.9341 15.703L53.2221 15.985L53.5201 16.277L53.8201 16.574L54.1261 16.873L54.4391 17.182L54.7601 17.497L55.0821 17.815L55.4121 18.137L55.7441 18.465Z" fill="#241D13"/>
</g>
<defs>
<clipPath id="clip0_0_1">
<rect width="96" height="96" fill="white"/>
</clipPath>
</defs>
</svg>