<svg xmlns="http://www.w3.org/2000/svg" width="96" height="96" viewBox="0 0 96 96" fill="none">

<g clip-path="url(#clip0_0_1)">
<path d="M5.10897 1.21901C3.49697 1.83101 2.49597 2.66501 1.66297 4.08201L0.883973 5.38801L0.800973 47.362C0.716973 94.534 0.577973 90.975 2.82997 93.226C3.46897 93.865 4.46997 94.588 5.08197 94.783C6.69297 95.367 88.36 95.367 90.305 94.783C91.918 94.338 93.668 92.866 94.503 91.309L95.114 90.168L95.197 48.89C95.282 1.85801 95.448 5.13901 93.057 2.74701C92.279 1.99701 91.334 1.35901 90.639 1.13701C88.832 0.607013 6.58197 0.692013 5.10897 1.21901ZM88.581 48.057V88.362H7.69497V7.75101H88.581V48.057Z" fill="#6B7280"/>
<path d="M47.237 19.1391C45.725 19.5401 44.246 20.9271 43.83 22.3471C43.151 24.6591 44.215 27.0641 46.358 28.1291C46.944 28.4221 47.33 28.4831 48.393 28.4831C49.519 28.4831 49.812 28.4221 50.475 28.0671C52.187 27.1571 53.096 25.6931 53.096 23.7801C53.096 21.8841 52.14 20.3571 50.459 19.5251C49.565 19.0931 48.085 18.9071 47.237 19.1391Z" fill="#6B7280"/>
<path d="M37.99 33C37.949 33.203 37.93 34.997 37.949 36.993L38.01 40.578L40.26 40.723C42.409 40.869 42.55 40.897 43.072 41.678L43.635 42.459L43.694 55.33C43.736 63.892 43.675 68.578 43.535 69.359C43.212 71.066 42.67 71.443 40.3 71.615L38.311 71.76V79.482H60.61V71.76L58.641 71.615C57.516 71.528 56.512 71.326 56.25 71.094C55.286 70.198 55.286 70.372 55.225 50.906L55.165 32.625H46.628C39.798 32.625 38.071 32.712 37.99 33Z" fill="#6B7280"/>
</g>
<defs>
<clipPath id="clip0_0_1">
<rect width="96" height="96" fill="white"/>
</clipPath>
</defs>
</svg>