<svg xmlns="http://www.w3.org/2000/svg" width="96" height="96" viewBox="0 0 96 96" fill="none">

<path d="M79.452 22.835L79.5669 94.261H3.16895V51.276H3.18295L5.61295 51.264C6.91095 51.264 8.57495 51.4 10.0499 51.297L9.48595 87.458L73.1359 86.487L74.5929 28.667L47.8709 56.848L53.2149 61.221L38.1529 64.622L39.8509 49.38L44.0919 53.294L70.2209 25.266H42.1009C42.0789 25.131 42.0369 25.004 41.9829 24.892L41.9849 24.836C42.0309 24.567 42.0469 24.28 42.0459 23.99C42.1129 23.007 42.2999 19.753 41.9039 19.028C41.9619 18.969 41.9909 18.899 41.9969 18.822L75.0789 18.949L91.5999 0L94.5159 3.4L95.0009 5.587L79.452 22.835Z" fill="#26201A"/>
<path d="M34.5158 44.521H27.8138V17.716H16.6448V44.521H9.94385V13.249H34.5158V44.521Z" fill="black"/>
</svg>