<svg xmlns="http://www.w3.org/2000/svg" width="96" height="96" viewBox="0 0 96 96" fill="none">

<g clip-path="url(#clip0_0_1)">
<path d="M38.5931 0.525035C35.7101 1.99904 24.6591 6.17604 20.6471 7.89304C21.0731 10.795 22.0841 13.575 22.6151 16.519C22.8431 17.78 23.3711 20.591 23.8071 21.719C23.8481 21.827 21.5441 24.294 21.1521 23.982C21.0961 23.938 8.34506 20.923 7.53106 20.923C7.13606 20.923 0.431056 38.751 0.043056 38.751C-0.677944 38.751 7.83306 43.387 8.61206 44.179C9.23606 44.817 11.3511 45.933 12.1961 46.386C12.1921 49.178 12.8391 49.812 10.3061 50.854C9.28206 51.276 0.00705601 57.263 0.038056 57.325C0.782056 58.865 7.31406 75.143 7.58206 75.143C8.26606 75.143 15.9941 73.363 16.0651 73.248C16.1561 73.104 20.8691 72.135 21.3961 72.058C21.6191 72.026 24.2431 74.177 23.6901 74.908C23.5871 75.046 20.8361 86.885 20.6781 87.977C20.6151 88.412 25.8281 90.443 26.4841 90.585C27.8461 90.884 38.5401 95.882 38.8621 95.513C39.7531 94.496 45.9261 83.63 46.3471 83.628C50.0681 83.621 49.4291 82.846 51.1601 85.876C52.9921 89.084 55.0551 92.199 57.0761 95.318C57.6211 96.159 61.3401 93.619 62.2231 93.619C62.9891 93.619 66.7571 91.407 67.6641 91.382C68.1741 91.368 71.7181 89.73 71.7181 89.705C71.7181 89.7 76.2841 87.935 75.3761 87.935C75.3561 87.935 72.7431 76.503 72.4741 75.359C71.9851 73.275 73.4461 73.606 74.4351 72.11C74.7591 71.62 88.4431 75.581 88.6051 75.047C88.9881 73.786 91.4481 69.039 91.4481 68.199C91.4481 67.371 95.3611 59.773 95.3611 58.843C95.3611 57.799 96.9891 57.345 94.9251 56.495C93.3061 55.828 84.4521 49.691 83.8441 49.691L83.8011 46.663C83.8011 46.3 87.0931 44.394 87.1071 44.394C87.5071 44.394 96.0051 38.798 96.0001 38.775C95.7901 37.501 94.1431 35.299 94.1431 34.26C94.1431 34.081 92.4461 30.1 92.3491 30.002C92.1101 29.764 88.7661 21.762 88.6501 21.17C88.5581 20.692 84.7611 21.696 84.2351 21.859C82.8481 22.288 76.1791 23.867 74.6941 24.032C74.1671 24.091 72.6181 22.149 72.2391 21.796C72.6821 19.471 75.4111 9.19504 75.4111 8.01004C75.4111 7.99804 57.5871 0.361035 57.2801 0.488035C57.1241 0.554035 49.9251 11.84 49.7191 12.478C49.6611 12.652 46.3541 12.488 46.2591 12.347C45.5231 11.241 38.8161 0.813035 38.8161 0.525035C38.8161 0.448035 38.7401 0.448035 38.5931 0.525035ZM38.9231 11.274C40.7101 14.614 42.8421 15.624 44.6831 18.904C45.8101 18.865 49.9361 18.494 50.4441 18.904C50.7131 19.123 52.0621 18.41 52.3631 17.951C53.6871 15.941 57.9111 8.85204 59.0831 7.45704C59.0921 7.44704 68.3271 11.835 68.6841 12.228C69.0551 12.637 65.4021 24.264 65.8041 24.628C67.6771 26.326 71.2351 28.39 72.5241 30.352C72.8411 30.836 83.8591 26.934 84.0431 27.49C84.3661 28.472 89.3361 36.809 88.8431 37.029C87.4741 37.644 78.9921 43.575 77.3241 44.661C77.5331 48.575 77.2941 48.899 77.3241 52.294C77.3241 52.516 87.8841 58.723 87.8841 58.97C87.8841 59.368 86.2151 63.296 85.9641 63.74C85.1901 65.113 83.7511 67.08 83.0841 68.51C82.2051 68.389 71.5641 65.648 71.5641 65.648C71.5641 66.345 66.7211 71.174 66.7631 71.372C67.0131 72.537 68.9781 83.773 68.6841 83.773C68.2501 83.773 59.8851 88.171 59.0831 88.543C58.5691 88.781 53.0701 77.983 52.3631 78.049C43.3171 78.895 44.9081 77.933 42.7641 78.049C41.8341 78.099 37.1091 87.588 37.0031 87.588C36.3691 87.588 28.3641 82.82 28.3641 82.819C28.5831 82.537 30.4401 71.509 30.2831 71.372C28.6791 69.968 25.5761 66.458 24.5241 64.694C24.4091 64.501 13.0031 69.464 13.0031 69.464C13.0031 68.592 8.03406 59.409 8.20406 58.97C8.40606 58.443 18.7631 52.893 18.7631 52.294C18.7631 51.318 18.2881 44.218 18.7631 43.708C19.2601 43.174 17.0991 41.614 16.5211 41.119C16.0401 40.705 7.24306 37.222 7.24306 37.029C7.24306 36.891 11.7861 26.496 12.0431 26.537C15.7741 27.141 18.8771 28.739 22.6041 29.399C22.7081 29.416 28.5381 24.285 29.3231 23.675C29.4071 23.611 27.6031 12.349 27.4031 12.228C27.2841 12.157 36.5881 7.35104 37.0031 7.45704C37.0261 7.46404 38.8681 11.17 38.9231 11.274Z" fill="#6B7280"/>
<path d="M46.9991 27.566C42.1721 28.834 38.1111 29.093 34.3201 32.691C20.9821 45.344 30.6391 57.325 30.6391 59.188C30.6391 62.004 38.8741 66.217 41.1141 67.376C48.6431 71.27 59.5111 66.964 64.2831 60.746C77.6951 43.274 58.6061 30.562 58.5141 30.366C57.6931 28.618 48.3671 27.213 46.9991 27.566ZM49.7251 34.125C60.0361 35.134 65.9751 45.701 62.0141 52.996C61.6411 53.682 61.4041 55.663 60.8961 56.326C49.4061 71.274 27.2651 56.356 35.2041 41.895C37.5801 37.57 42.7801 32.494 49.7251 34.125Z" fill="#6B7280"/>
</g>
<defs>
<clipPath id="clip0_0_1">
<rect width="96" height="96" fill="white"/>
</clipPath>
</defs>
</svg>