<svg xmlns="http://www.w3.org/2000/svg" width="96" height="96" viewBox="0 0 96 96" fill="none">

<path d="M5.53006 1.45704C3.91106 2.07204 2.90706 2.91004 2.07006 4.33204L1.28906 5.64304L1.20606 47.775C1.12106 95.127 0.98106 91.555 3.24106 93.814C3.88406 94.456 4.88806 95.182 5.50306 95.377C7.12006 95.963 89.0961 95.963 91.0491 95.377C92.6681 94.93 94.4261 93.453 95.2631 91.89L95.8771 90.745L95.9601 49.31C96.0451 2.10004 96.2111 5.39304 93.8121 2.99204C93.0301 2.23904 92.0821 1.59804 91.3841 1.37504C89.5711 0.84404 7.00906 0.92804 5.53006 1.45704ZM89.3191 48.474V88.932H8.12506V8.01504H89.3191V48.474Z" fill="#26201A"/>
<path d="M46.8901 19.058C45.7481 19.551 44.7051 20.896 44.1771 22.585L43.8811 23.52V72.565L44.1901 73.55C44.5951 74.845 45.4411 76.108 46.2861 76.699C46.8681 77.092 47.0881 77.157 47.9991 77.157C48.9221 77.157 49.1301 77.108 49.7231 76.682C50.5581 76.108 51.4031 74.828 51.8211 73.516L52.1171 72.565V23.52L51.8211 22.585C51.4141 21.289 50.6341 20.092 49.8111 19.485C48.9981 18.895 47.7361 18.697 46.8901 19.058Z" fill="#26201A"/>
</svg>