<svg xmlns="http://www.w3.org/2000/svg" width="96" height="96" viewBox="0 0 96 96" fill="none">

<g clip-path="url(#clip0_0_1)">
<path d="M5.52912 1.67602C3.93212 2.28302 2.94112 3.10902 2.11612 4.51202L1.34512 5.80502L1.26312 47.368C1.17912 94.078 1.04212 90.554 3.27112 92.782C3.90512 93.416 4.89612 94.132 5.50212 94.324C7.09712 94.903 87.9641 94.903 89.8901 94.324C91.4881 93.884 93.2211 92.426 94.0471 90.884L94.6521 89.755L94.7351 48.881C94.8181 2.31002 94.9831 5.55802 92.6161 3.19002C91.8451 2.44702 90.9091 1.81502 90.2201 1.59502C88.4321 1.07102 6.98812 1.15502 5.52912 1.67602ZM88.1841 48.056V87.966H8.08912V8.14502H88.1841V48.056Z" fill="#26201A"/>
<path d="M2.57204 4.78406L1.66104 4.24106L1.65904 4.24306L1.74204 4.10506L1.82604 3.97006L1.91104 3.84106L1.99704 3.71206L2.08704 3.58606L2.17605 3.46406L2.26904 3.34306L2.36405 3.22406L2.46004 3.11206L2.55704 3.00106L2.65804 2.89006L2.76204 2.78506L2.86604 2.68206L2.97304 2.58106L3.08205 2.48206L3.19604 2.38706L3.30804 2.29506L3.42505 2.20506L3.54404 2.11706L3.66705 2.03206L3.78804 1.95106L3.91705 1.86806L4.04904 1.79106L4.17704 1.71606L4.31404 1.64206L4.45304 1.57006L4.59204 1.50106L4.73704 1.43206L4.88404 1.36706L5.03204 1.30306L5.18404 1.24206L5.34104 1.18006L5.71704 2.17206L5.57704 2.22606L5.44204 2.28306L5.30804 2.33906L5.17904 2.39706L5.05404 2.45606L4.93105 2.51706L4.81204 2.57806L4.69804 2.64106L4.58404 2.70706L4.47404 2.77106L4.37004 2.83806L4.26404 2.90906L4.16304 2.97906L4.06305 3.05306L3.96604 3.12706L3.87105 3.20506L3.78005 3.28206L3.69004 3.36206L3.60105 3.44606L3.51304 3.53106L3.42904 3.62006L3.34804 3.70806L3.26304 3.80406L3.18204 3.90006L3.10304 3.99706L3.02604 4.10006L2.94604 4.20706L2.87105 4.31306L2.79504 4.42506L2.72005 4.54206L2.64504 4.66006L2.57304 4.78106L2.57204 4.78406ZM2.57304 4.78106L2.57204 4.78406L2.55704 4.81006L2.57304 4.78106ZM0.890045 5.53406L1.66104 4.24106L2.57204 4.78406L1.80104 6.07606L0.815045 5.80406L0.890045 5.53406ZM0.815045 5.80406V5.65906L0.890045 5.53406L0.815045 5.80406ZM0.733045 47.3661L0.815045 5.80406L1.87604 5.80606L1.79304 47.3691L0.733045 47.3661ZM3.64604 92.4081L2.89705 93.1571L2.70705 92.9761L2.52604 92.8121L2.34604 92.6511L2.16704 92.4821L1.98704 92.2901L1.81504 92.0691L1.65604 91.8121L1.51604 91.5201L1.39204 91.1831L1.28504 90.7921L1.19204 90.3441L1.10804 89.8221L1.03604 89.2161L0.972045 88.5141L0.918045 87.7061L0.869045 86.7791L0.828045 85.7241L0.795045 84.5301L0.767045 83.1881L0.744045 81.6841L0.725045 80.0091L0.713045 78.1521L0.703045 76.1051L0.698045 73.8571L0.696045 71.3961V68.7131L0.698045 65.7971L0.703045 62.6381L0.709045 59.2251L0.717045 55.5491L0.725045 51.5991L0.733045 47.3661L1.79304 47.3691L1.78604 51.6021L1.77704 55.5511L1.77004 59.2271L1.76405 62.6401L1.75904 65.7991L1.75704 68.7131V71.3961L1.75904 73.8551L1.76405 76.1031L1.77404 78.1471L1.78604 80.0001L1.80404 81.6691L1.82804 83.1681L1.85604 84.5051L1.88905 85.6901L1.93004 86.7321L1.97604 87.6421L2.03004 88.4301L2.09204 89.1051L2.15904 89.6781L2.23504 90.1551L2.31604 90.5471L2.40404 90.8611L2.49604 91.1101L2.58904 91.3071L2.68704 91.4651L2.79305 91.6001L2.91805 91.7331L3.06305 91.8701L3.23604 92.0241L3.43105 92.2001L3.64604 92.4081ZM5.68304 93.8261L5.32204 94.8231L5.34104 94.8301L5.26804 94.8041L5.19204 94.7761L5.11304 94.7441L5.03705 94.7111L4.96304 94.6751L4.88604 94.6391L4.80704 94.5981L4.72904 94.5541L4.65004 94.5101L4.57404 94.4661L4.49404 94.4181L4.41404 94.3691L4.33305 94.3171L4.25104 94.2631L4.17104 94.2081L4.09304 94.1541L4.01005 94.0951L3.93304 94.0381L3.85504 93.9811L3.77205 93.9191L3.69305 93.8571L3.61604 93.7951L3.54205 93.7351L3.46305 93.6721L3.38704 93.6071L3.31305 93.5431L3.24104 93.4811L3.16805 93.4161L3.09605 93.3501L3.03104 93.2871L2.96204 93.2231L2.89705 93.1571L3.64604 92.4081L3.70105 92.4621L3.75804 92.5161L3.82004 92.5741L3.88004 92.6301L3.94305 92.6851L4.00804 92.7431L4.07504 92.8001L4.14104 92.8551L4.20704 92.9101L4.27904 92.9681L4.35104 93.0241L4.41805 93.0771L4.48604 93.1281L4.55904 93.1811L4.63204 93.2351L4.70204 93.2841L4.77304 93.3341L4.84304 93.3811L4.91004 93.4261L4.97904 93.4701L5.04704 93.5121L5.11404 93.5521L5.18105 93.5911L5.24404 93.6281L5.30605 93.6601L5.36504 93.6911L5.42204 93.7201L5.47904 93.7461L5.53005 93.7691L5.57704 93.7891L5.62104 93.8051L5.66304 93.8181L5.68304 93.8261ZM5.66304 93.8181L5.68304 93.8261L5.65804 93.8171L5.66304 93.8181ZM89.749 93.8141L90.031 94.8351L90.042 94.8331L89.526 94.9061L88.668 94.9571L87.413 95.0021L85.788 95.0451L83.818 95.0831L81.531 95.1191L78.956 95.1501L76.122 95.1801L73.055 95.2061L69.789 95.2281L66.349 95.2461L62.766 95.2611L59.066 95.2731L55.283 95.2821L51.441 95.2871L47.572 95.2881L43.704 95.2871L39.865 95.2821L36.087 95.2731L32.394 95.2611L28.82 95.2461L25.39 95.2281L22.136 95.2061L19.085 95.1801L16.267 95.1501L13.709 95.1191L11.443 95.0831L9.49504 95.0451L7.89404 95.0021L6.66704 94.9571L5.83404 94.9051L5.32204 94.8231L5.68304 93.8261L5.92404 93.8491L6.71604 93.8961L7.92804 93.9411L9.51904 93.9841L11.463 94.0221L13.724 94.0581L16.279 94.0901L19.095 94.1191L22.144 94.1451L25.397 94.1671L28.825 94.1861L32.399 94.2001L36.089 94.2131L39.868 94.2211L43.704 94.2261L47.572 94.2271L51.441 94.2261L55.28 94.2211L59.064 94.2131L62.761 94.2001L66.344 94.1861L69.782 94.1671L73.048 94.1451L76.112 94.1191L78.944 94.0901L81.516 94.0581L83.801 94.0221L85.764 93.9841L87.381 93.9411L88.618 93.8961L89.44 93.8481L89.738 93.8161L89.749 93.8141ZM89.738 93.8161L89.749 93.8141L89.714 93.8241L89.738 93.8161ZM93.579 90.6341L94.515 91.1351L94.428 91.2931L94.333 91.4501L94.236 91.6041L94.135 91.7571L94.026 91.9101L93.913 92.0591L93.799 92.2051L93.68 92.3521L93.556 92.4951L93.428 92.6361L93.298 92.7741L93.163 92.9111L93.026 93.0441L92.886 93.1741L92.742 93.3031L92.596 93.4241L92.449 93.5461L92.298 93.6631L92.147 93.7741L91.991 93.8861L91.832 93.9921L91.675 94.0921L91.516 94.1881L91.355 94.2801L91.194 94.3671L91.031 94.4521L90.864 94.5291L90.699 94.6021L90.534 94.6691L90.367 94.7311L90.2 94.7861L90.031 94.8351L89.749 93.8141L89.881 93.7741L90.015 93.7291L90.15 93.6801L90.287 93.6251L90.427 93.5641L90.562 93.4991L90.701 93.4291L90.839 93.3541L90.978 93.2751L91.116 93.1911L91.253 93.1031L91.389 93.0121L91.523 92.9171L91.657 92.8181L91.788 92.7161L91.918 92.6091L92.047 92.5001L92.174 92.3881L92.297 92.2751L92.417 92.1571L92.535 92.0401L92.648 91.9171L92.761 91.7931L92.867 91.6691L92.972 91.5431L93.074 91.4141L93.169 91.2861L93.26 91.1561L93.347 91.0271L93.43 90.8951L93.507 90.7651L93.579 90.6341ZM95.12 90.0051L94.515 91.1351L93.579 90.6341L94.185 89.5041L95.183 89.7561L95.12 90.0051ZM95.183 89.7561V89.8891L95.12 90.0051L95.183 89.7561ZM95.265 48.8821L95.183 89.7561L94.122 89.7541L94.204 48.8801L95.265 48.8821ZM92.247 3.57206L92.984 2.80806L92.991 2.81606L93.195 3.01206L93.39 3.19106L93.583 3.36906L93.771 3.55606L93.959 3.76106L94.137 3.99806L94.3 4.26706L94.447 4.57506L94.576 4.92906L94.688 5.33106L94.788 5.79806L94.874 6.33406L94.949 6.95506L95.017 7.67306L95.074 8.49606L95.124 9.43506L95.167 10.5021L95.203 11.7081L95.232 13.0621L95.255 14.5761L95.274 16.2591L95.287 18.1211L95.297 20.1741L95.302 22.4271L95.304 24.8911L95.303 27.5731L95.301 30.4891L95.294 33.6461L95.289 37.0521L95.281 40.7211L95.274 44.6601L95.265 48.8821L94.204 48.8801L94.213 44.6581L94.22 40.7181L94.228 37.0501L94.234 33.6431L94.24 30.4871L94.243 27.5731L94.244 24.8911L94.241 22.4291L94.236 20.1761L94.226 18.1291L94.213 16.2691L94.195 14.5911L94.171 13.0821L94.142 11.7351L94.106 10.5391L94.063 9.48406L94.015 8.56006L93.959 7.75806L93.894 7.06806L93.823 6.48106L93.744 5.98906L93.657 5.58206L93.565 5.25006L93.468 4.98206L93.367 4.77006L93.258 4.59206L93.141 4.43906L93.007 4.29006L92.852 4.13806L92.671 3.97206L92.466 3.78306L92.24 3.56506L92.247 3.57206ZM90.072 2.10506L90.369 1.08606L90.381 1.09006L90.459 1.11706L90.537 1.14306L90.618 1.17606L90.701 1.21006L90.78 1.24606L90.855 1.28006L90.939 1.31906L91.02 1.36106L91.105 1.40506L91.188 1.45206L91.266 1.49706L91.347 1.54406L91.431 1.59406L91.517 1.64706L91.602 1.70206L91.681 1.75606L91.764 1.81106L91.848 1.87006L91.932 1.92906L92.017 1.99106L92.1 2.05506L92.18 2.11506L92.263 2.18006L92.347 2.24606L92.428 2.31206L92.51 2.38206L92.59 2.45006L92.67 2.51906L92.75 2.59006L92.829 2.66306L92.907 2.73506L92.984 2.80806L92.247 3.57206L92.18 3.50806L92.11 3.44206L92.04 3.37806L91.97 3.31706L91.897 3.25306L91.825 3.19006L91.753 3.13006L91.679 3.07106L91.608 3.01206L91.534 2.95706L91.457 2.89706L91.385 2.84306L91.313 2.79106L91.239 2.73706L91.167 2.68806L91.092 2.63806L91.017 2.58906L90.947 2.54306L90.879 2.50006L90.807 2.45706L90.736 2.41506L90.665 2.37506L90.599 2.33806L90.534 2.30406L90.47 2.27206L90.408 2.24206L90.338 2.21006L90.278 2.18206L90.223 2.16006L90.167 2.13806L90.112 2.11806L90.06 2.10106L90.072 2.10506ZM90.369 1.08606L90.378 1.08806L90.381 1.09006L90.369 1.08606ZM5.71704 2.17206L5.34104 1.18006L5.35004 1.17706L5.85304 1.09906L6.67704 1.05406L7.90104 1.01106L9.50204 0.97206L11.454 0.93406L13.725 0.89906L16.291 0.86906L19.121 0.83906L22.185 0.81306L25.455 0.79006L28.901 0.77006L32.493 0.75306L36.204 0.73806L40.003 0.72706L43.861 0.71906L47.751 0.71406L51.64 0.71106H55.501L59.306 0.71506L63.023 0.72306L66.624 0.73406L70.081 0.74606L73.364 0.76306L76.442 0.78306L79.288 0.80606L81.872 0.83306L84.164 0.86406L86.137 0.89706L87.764 0.93406L89.011 0.97406L89.863 1.01806L90.369 1.08606L90.072 2.10506L89.785 2.07706L88.969 2.03506L87.734 1.99406L86.118 1.95806L84.149 1.92406L81.86 1.89406L79.278 1.86706L76.435 1.84306L73.357 1.82406L70.077 1.80706L66.622 1.79406L63.021 1.78306L59.303 1.77606L55.501 1.77206H51.64L47.751 1.77406L43.864 1.78006L40.005 1.78806L36.207 1.79906L32.498 1.81406L28.906 1.83106L25.462 1.85106L22.193 1.87406L19.131 1.90006L16.303 1.92906L13.74 1.96006L11.471 1.99406L9.52404 2.03206L7.93304 2.07206L6.72404 2.11506L5.93704 2.15806L5.70805 2.17606L5.71704 2.17206ZM5.34104 1.18006L5.35004 1.17706L5.37004 1.16906L5.34104 1.18006ZM87.653 87.9661V48.0561H88.714V87.9661L88.184 88.4961L87.653 87.9661ZM88.714 87.9661V88.4961H88.184L88.714 87.9661ZM8.08904 87.4361H88.184V88.4961H8.08904L7.55904 87.9661L8.08904 87.4361ZM8.08904 88.4961H7.55904V87.9661L8.08904 88.4961ZM8.61905 8.14506V87.9661H7.55904V8.14506L8.08904 7.61506L8.61905 8.14506ZM7.55904 8.14506V7.61506H8.08904L7.55904 8.14506ZM88.184 8.67506H8.08904V7.61506H88.184L88.714 8.14506L88.184 8.67506ZM88.184 7.61506H88.714V8.14506L88.184 7.61506ZM87.653 48.0561V8.14506H88.714V48.0561H87.653Z" fill="#241D13"/>
<path d="M49.9641 22.03C35.9641 22.03 24.6121 33.665 24.6121 48.016C24.6121 62.369 35.9641 74.002 49.9641 74.002C63.9661 74.002 75.3181 62.369 75.3181 48.016C75.3181 33.665 63.9661 22.03 49.9641 22.03Z" stroke="#241D13" stroke-width="8" stroke-miterlimit="22.9256"/>
</g>
<defs>
<clipPath id="clip0_0_1">
<rect width="96" height="96" fill="white"/>
</clipPath>
</defs>
</svg>