<svg xmlns="http://www.w3.org/2000/svg" width="96" height="96" viewBox="0 0 96 96" fill="none">

<path d="M45.6499 10.6109C41.1519 10.8579 36.6099 11.8549 32.3089 13.5399C30.7869 14.1359 27.7269 15.6549 26.2179 16.5629C19.9959 20.3059 14.8679 25.5389 11.2199 31.8719C4.11589 44.2009 3.78689 59.7419 10.3619 72.3539C15.1409 81.5209 23.0619 88.6499 32.5889 92.3589C37.4989 94.2689 42.6379 95.2349 47.9349 95.2429C55.7059 95.2539 63.1629 93.1969 69.7939 89.2129C79.4869 83.3879 86.4639 73.9249 89.1179 63.0059C90.9179 55.5939 90.7419 48.1279 88.5929 40.8279C86.9999 35.4119 84.1869 30.1559 80.5759 25.8369C80.2229 25.4159 79.9359 25.0349 79.9359 24.9889C79.9359 24.9429 80.4289 24.4279 81.0319 23.8449C84.2399 20.7409 84.6969 20.2749 84.7519 20.0579C84.8549 19.6479 84.7049 18.9879 84.3909 18.4809C84.0179 17.8759 82.2219 15.9439 81.6309 15.5099C81.3909 15.3339 80.9809 15.1209 80.7179 15.0339C79.9839 14.7949 79.6809 14.9209 78.6769 15.8879C78.2149 16.3329 77.3749 17.1389 76.8109 17.6799C76.2469 18.2209 75.5039 18.9339 75.1619 19.2649L74.5379 19.8649L73.4819 19.0739C66.5679 13.8929 58.7449 11.0629 50.0669 10.6029C48.0539 10.4979 47.7109 10.4979 45.6499 10.6109ZM51.9609 15.9609C58.5669 16.6819 64.8039 19.1209 70.0989 23.0539C77.9419 28.8799 83.2279 37.6169 84.6899 47.1719C85.0299 49.3939 85.1059 50.4729 85.1039 52.9569C85.0999 55.4209 84.9839 56.9359 84.6429 58.9739C83.3409 66.7399 79.7219 73.7169 74.1359 79.2329C72.5109 80.8399 71.7679 81.4849 70.1699 82.6829C64.8129 86.6969 58.6259 89.0989 51.6869 89.8589C49.8889 90.0559 45.0419 90.0049 43.4099 89.7709C40.4979 89.3539 38.6809 88.9369 36.2799 88.1349C24.7649 84.2849 15.9309 75.1879 12.4009 63.5449C11.8489 61.7269 11.4219 59.7019 11.1139 57.4339C10.8839 55.7449 10.8369 50.9869 11.0329 49.1989C11.7119 42.9959 13.6329 37.5709 16.9319 32.5339C20.1009 27.6969 24.6229 23.4569 29.7099 20.5569C32.2579 19.1039 35.6319 17.7319 38.4999 16.9829C40.9179 16.3529 42.7669 16.0609 46.0699 15.7849C46.9289 15.7129 50.7329 15.8279 51.9609 15.9609Z" fill="black"/>
<path d="M40.3309 0.80097C31.7789 0.84997 30.8589 0.86797 30.3719 1.01497C29.2159 1.35997 28.3529 1.95897 28.0509 2.62297C27.8009 3.17097 27.8009 5.71497 28.0519 6.26197C28.3769 6.97597 29.1959 7.53797 30.3969 7.86797C30.9679 8.02497 31.9309 8.03397 47.1899 8.03397H63.3749L64.1589 7.82597C65.4339 7.48597 66.2089 6.94397 66.5619 6.14597C66.7579 5.70297 66.7819 5.51197 66.7819 4.35497C66.7819 3.29897 66.7499 2.98297 66.6079 2.65397C66.2869 1.90597 65.4279 1.30997 64.1219 0.92997C63.6139 0.78097 62.9369 0.76597 56.6579 0.75797C52.8619 0.75297 45.5149 0.77297 40.3309 0.80097Z" fill="black"/>
<path d="M46.3959 22.134C45.8059 22.281 45.5589 22.41 45.1849 22.769C44.7199 23.215 44.4509 23.761 44.3029 24.559C44.1659 25.302 44.1659 46.091 44.3029 46.834C44.3579 47.129 44.4829 47.56 44.5819 47.791C44.8919 48.515 45.7659 49.224 46.3469 49.224C46.4509 49.224 46.5359 49.266 46.5359 49.317C46.5359 49.375 47.0649 49.411 47.9349 49.411C48.8069 49.411 49.3349 49.375 49.3349 49.317C49.3349 49.266 49.4209 49.224 49.5249 49.224C50.1049 49.224 50.9789 48.515 51.2889 47.791C51.3889 47.56 51.5139 47.129 51.5679 46.834C51.6339 46.476 51.6669 42.779 51.6669 35.697C51.6669 28.614 51.6339 24.918 51.5679 24.559C51.4259 23.787 51.1609 23.234 50.7329 22.809C50.1189 22.201 49.8689 22.134 48.1219 22.109C47.2749 22.098 46.4989 22.109 46.3959 22.134Z" fill="black"/>
</svg>