<svg xmlns="http://www.w3.org/2000/svg" width="96" height="96" viewBox="0 0 96 96" fill="none">

<path d="M12.696 5.79597V10.627L13.022 10.693C13.202 10.728 14.325 10.757 15.517 10.757C17.399 10.757 17.695 10.78 17.75 10.923C17.785 11.013 17.814 11.986 17.816 13.084C17.82 15.238 18.046 18.573 18.234 19.247C18.42 19.908 19.126 21.965 19.388 22.607C19.442 22.736 19.527 22.947 19.578 23.076C19.63 23.206 19.772 23.533 19.891 23.804C20.013 24.076 20.112 24.32 20.112 24.349C20.112 24.375 20.322 24.844 20.582 25.388C20.84 25.933 21.051 26.407 21.051 26.444C21.051 26.592 23.645 31.676 24.583 33.364C24.724 33.621 24.984 34.09 25.157 34.406C25.331 34.72 25.754 35.47 26.098 36.071C26.44 36.673 26.887 37.471 27.088 37.843C27.29 38.215 27.543 38.645 27.648 38.796C27.755 38.948 27.841 39.1 27.841 39.133C27.841 39.166 28.005 39.45 28.207 39.763C28.408 40.076 28.572 40.362 28.572 40.397C28.572 40.432 28.712 40.666 28.885 40.915C29.058 41.165 29.198 41.394 29.198 41.422C29.198 41.452 29.574 42.094 30.034 42.849C30.493 43.605 30.869 44.235 30.869 44.249C30.869 44.263 31.17 44.767 31.535 45.37C31.901 45.972 32.337 46.716 32.501 47.024C32.667 47.331 32.838 47.598 32.88 47.618C33.049 47.692 32.945 48.276 32.681 48.751C32.528 49.025 32.31 49.414 32.198 49.615C32.085 49.815 31.906 50.103 31.797 50.255C31.689 50.408 31.601 50.563 31.601 50.599C31.601 50.635 31.437 50.922 31.236 51.236C31.033 51.55 30.869 51.851 30.869 51.908C30.869 51.964 30.823 52.01 30.765 52.01C30.708 52.01 30.662 52.059 30.662 52.12C30.662 52.18 30.496 52.485 30.295 52.798C30.094 53.113 29.93 53.414 29.93 53.471C29.93 53.527 29.882 53.573 29.824 53.573C29.767 53.573 29.721 53.622 29.721 53.681C29.721 53.742 29.556 54.048 29.356 54.361C29.153 54.675 28.989 54.948 28.989 54.968C28.989 54.989 28.731 55.434 28.415 55.959C28.099 56.486 27.841 56.96 27.841 57.015C27.841 57.069 27.8 57.115 27.749 57.115C27.697 57.115 27.63 57.197 27.598 57.297C27.565 57.398 27.401 57.714 27.232 58.001C26.686 58.926 25.733 60.59 25.408 61.177C24.901 62.102 24.647 62.557 24.394 63.001C23.308 64.908 20.59 70.428 19.996 71.935C19.879 72.235 19.72 72.621 19.644 72.793C19.567 72.964 19.379 73.457 19.225 73.887C19.071 74.316 18.905 74.761 18.856 74.876C18.737 75.157 18.377 76.237 18.234 76.751C18.045 77.428 17.82 80.761 17.814 82.949C17.813 84.067 17.768 85.049 17.715 85.131C17.637 85.254 17.154 85.292 15.157 85.327L12.696 85.373V95.034H83.304V85.346H81.439C80.413 85.346 79.285 85.315 78.934 85.279C78.318 85.214 78.293 85.2 78.239 84.888C78.208 84.71 78.135 83.088 78.078 81.282C78.009 79.133 77.917 77.733 77.812 77.22C77.724 76.79 77.626 76.31 77.593 76.151C77.561 75.993 77.493 75.838 77.443 75.806C77.391 75.775 77.35 75.645 77.35 75.517C77.35 75.388 77.311 75.239 77.263 75.184C77.216 75.129 77.117 74.874 77.044 74.615C76.971 74.358 76.842 73.983 76.755 73.783C76.555 73.322 76.404 72.955 76.303 72.689C76.258 72.574 76.147 72.309 76.056 72.1C75.963 71.891 75.887 71.69 75.887 71.654C75.887 71.56 75.276 70.275 74.099 67.896C73.141 65.96 72.538 64.801 71.649 63.184C71.452 62.824 71.12 62.216 70.911 61.829C70.7 61.442 70.451 61.008 70.357 60.865C70.263 60.722 70.051 60.347 69.887 60.031C69.722 59.716 69.501 59.335 69.395 59.183C69.289 59.03 69.203 58.875 69.203 58.839C69.203 58.802 69.039 58.515 68.838 58.201C68.636 57.888 68.471 57.614 68.471 57.595C68.471 57.575 68.213 57.128 67.897 56.603C67.581 56.078 67.323 55.627 67.323 55.601C67.323 55.576 67.111 55.224 66.852 54.823C66.594 54.421 66.383 54.069 66.383 54.042C66.383 54.014 66.171 53.663 65.913 53.26C65.654 52.858 65.442 52.503 65.442 52.471C65.442 52.438 65.309 52.217 65.145 51.976C64.98 51.738 64.729 51.33 64.584 51.072C64.262 50.495 63.762 49.666 63.22 48.808C62.754 48.07 62.755 47.885 63.239 47.177C63.4 46.941 63.651 46.539 63.795 46.281C63.942 46.023 64.582 44.948 65.221 43.894C65.859 42.839 66.383 41.962 66.383 41.942C66.383 41.922 66.594 41.578 66.852 41.177C67.111 40.774 67.323 40.423 67.323 40.396C67.323 40.369 67.487 40.09 67.688 39.777C67.89 39.463 68.054 39.185 68.054 39.16C68.054 39.135 68.234 38.816 68.456 38.452C68.677 38.089 68.976 37.58 69.122 37.322C69.266 37.064 69.563 36.548 69.777 36.176C70.37 35.15 70.498 34.922 70.828 34.3C70.996 33.986 71.158 33.703 71.187 33.675C71.215 33.647 71.423 33.272 71.648 32.843C71.874 32.413 72.153 31.897 72.268 31.697C72.579 31.16 74.958 26.424 75.251 25.757C75.969 24.129 76.22 23.542 76.543 22.738C76.765 22.182 76.815 22.041 76.996 21.487C77.099 21.172 77.221 20.87 77.266 20.815C77.312 20.761 77.35 20.612 77.35 20.483C77.35 20.355 77.397 20.22 77.454 20.185C77.512 20.15 77.558 20.017 77.558 19.887C77.558 19.758 77.6 19.609 77.651 19.555C77.843 19.347 77.985 17.779 78.08 14.767C78.135 13.049 78.208 11.444 78.242 11.199L78.302 10.757H80.477C81.673 10.757 82.797 10.728 82.977 10.693L83.304 10.627V0.964966H12.696V5.79597ZM73.423 10.923C73.521 11.181 73.496 13.886 73.375 15.905C73.269 17.666 73.093 18.57 72.657 19.56C72.42 20.102 72.229 20.553 71.975 21.175C71.701 21.842 69.724 25.843 69.065 27.06C68.655 27.821 67.757 29.444 67.511 29.873C67.411 30.045 67.177 30.491 66.987 30.863C66.799 31.235 66.608 31.555 66.566 31.575C66.522 31.594 66.487 31.657 66.487 31.715C66.487 31.772 66.4 31.945 66.295 32.097C66.188 32.249 65.937 32.678 65.736 33.05C65.184 34.071 64.805 34.74 64.614 35.03C64.52 35.173 64.374 35.431 64.29 35.603C64.205 35.775 64.114 35.939 64.085 35.967C64.057 35.996 63.982 36.113 63.919 36.228C63.791 36.461 63.384 37.187 63.072 37.738C62.43 38.871 62.242 39.208 61.911 39.821C61.71 40.194 61.469 40.616 61.374 40.759C61.28 40.903 61.067 41.278 60.899 41.592C60.731 41.908 60.37 42.588 60.095 43.103C59.519 44.187 58.347 46.548 58.235 46.854C58.193 46.969 58.104 47.194 58.039 47.354C57.975 47.514 57.922 47.804 57.922 48C57.922 48.195 57.975 48.486 58.039 48.646C58.104 48.806 58.194 49.03 58.237 49.145C58.638 50.175 59.952 52.754 61.146 54.849C61.567 55.587 61.749 55.918 62.054 56.489C62.223 56.804 62.384 57.086 62.412 57.115C62.475 57.176 62.732 57.634 63.065 58.276C63.196 58.526 63.325 58.753 63.353 58.781C63.383 58.809 63.457 58.927 63.52 59.042C63.582 59.156 63.759 59.474 63.912 59.745C64.065 60.017 64.313 60.462 64.464 60.735C64.615 61.007 64.774 61.277 64.815 61.334C64.857 61.392 65.031 61.696 65.204 62.011C65.375 62.325 65.61 62.748 65.723 62.949C65.837 63.148 66.049 63.523 66.194 63.782C66.338 64.04 66.551 64.415 66.664 64.616C66.778 64.815 66.988 65.19 67.134 65.448C67.279 65.707 67.49 66.082 67.604 66.283C67.717 66.482 68.084 67.162 68.418 67.792C68.752 68.423 69.144 69.149 69.289 69.407C70.593 71.737 72.282 75.397 72.914 77.261C73.236 78.211 73.281 78.492 73.376 80.137C73.494 82.173 73.518 84.824 73.423 85.077C73.365 85.227 71.026 85.241 47.988 85.241H22.618V81.941C22.618 80.071 22.663 78.504 22.721 78.321C23.125 77.06 23.402 76.269 23.583 75.866C23.698 75.608 23.862 75.233 23.949 75.032C24.483 73.802 26.543 69.616 27.485 67.844C28.028 66.827 28.224 66.468 28.906 65.241C29.05 64.982 29.311 64.506 29.487 64.183C29.663 63.859 29.875 63.484 29.959 63.349C30.044 63.214 30.254 62.846 30.425 62.532C30.597 62.217 31.003 61.496 31.326 60.93C31.65 60.364 31.914 59.878 31.914 59.853C31.914 59.825 32.001 59.678 32.106 59.527C32.213 59.375 32.464 58.946 32.667 58.574C32.869 58.201 33.206 57.599 33.414 57.235C33.623 56.872 33.794 56.55 33.794 56.522C33.794 56.494 33.881 56.345 33.987 56.193C34.093 56.042 34.431 55.448 34.736 54.875C35.043 54.302 35.402 53.646 35.535 53.417C36.51 51.742 37.975 48.484 37.97 48C37.969 47.767 37.736 47.052 37.626 46.942C37.587 46.903 37.555 46.805 37.555 46.723C37.555 46.558 36.232 43.832 35.722 42.947C35.541 42.633 35.18 41.976 34.922 41.488C34.662 41.001 34.349 40.427 34.227 40.212C34.103 39.997 33.91 39.657 33.794 39.458C33.544 39.02 33.293 38.577 32.938 37.947C32.793 37.689 32.582 37.314 32.469 37.113C32.355 36.912 32.143 36.539 31.998 36.28C31.854 36.022 31.642 35.647 31.528 35.446C31.414 35.245 31.204 34.872 31.059 34.613C30.913 34.355 30.702 33.98 30.588 33.779C29.926 32.61 29.476 31.802 29.014 30.951C28.839 30.628 28.627 30.253 28.542 30.118C28.09 29.39 25.151 23.641 24.557 22.321C23.997 21.077 23.551 20.082 23.458 19.873C23.407 19.758 23.287 19.43 23.19 19.143C23.093 18.857 22.976 18.53 22.931 18.414C22.6 17.575 22.253 12.132 22.478 11.294C22.626 10.737 21.256 10.765 48.276 10.761C71.054 10.757 73.365 10.773 73.423 10.923Z" fill="#241D13"/>
<path d="M45.2402 51.294C45.0172 51.544 44.5961 52.007 44.3001 52.323C43.6791 52.992 42.3771 54.454 42.0891 54.809C41.9791 54.943 41.8401 55.108 41.7801 55.174C41.4561 55.528 39.9211 57.426 39.4931 58.002C39.3231 58.231 39.1561 58.44 39.1201 58.47C39.0851 58.498 38.8261 58.849 38.5421 59.25C38.2601 59.652 37.9932 59.995 37.9482 60.014C37.9042 60.034 37.8681 60.111 37.8681 60.188C37.8681 60.264 37.8301 60.343 37.7841 60.361C37.6081 60.434 35.2171 64.036 34.5441 65.241C34.2451 65.777 33.9951 66.217 33.5711 66.96C33.0081 67.944 31.5781 70.903 31.2161 71.833C31.1221 72.075 31.0141 72.319 30.9761 72.375C30.9381 72.433 30.8471 72.692 30.7721 72.95C30.6981 73.207 30.5941 73.554 30.5441 73.719C30.4931 73.887 30.4521 74.672 30.4521 75.465V76.908L65.4952 76.855L65.4751 75.303C65.4571 73.892 65.4141 73.599 65.1281 72.896C65.0801 72.783 64.9791 72.529 64.9031 72.332C64.6151 71.595 62.4521 67.382 61.6611 66.022C60.6121 64.213 58.5701 60.994 58.2811 60.692C58.2181 60.625 58.0061 60.32 57.8121 60.016C57.6181 59.709 57.4311 59.436 57.3981 59.406C57.3651 59.378 57.2252 59.19 57.0872 58.991C56.7852 58.548 55.3881 56.667 55.3081 56.594C55.2771 56.565 55.0652 56.307 54.8382 56.021C54.6092 55.734 54.3972 55.476 54.3652 55.448C54.3322 55.42 54.2381 55.298 54.1551 55.178C53.7791 54.632 50.8501 51.38 50.5791 51.207C50.3961 51.09 49.2191 50.981 47.3181 50.905L45.6441 50.839L45.2402 51.294Z" fill="#241D13"/>
</svg>