<svg xmlns="http://www.w3.org/2000/svg" width="96" height="96" viewBox="0 0 96 96" fill="none">

<path d="M15.1291 5.87502L15.0761 9.60202L12.2151 9.65302L9.33807 9.68802L9.30307 12.541L9.25007 15.374L5.50707 15.427L1.74707 15.462V21.235H9.33807V30.506H1.74707V36.455H9.33807V45.026H1.74707V50.974H9.33807V59.546H1.74707V65.494H9.33807V74.766H1.74707V80.538L5.50707 80.573L9.25007 80.626L9.30307 83.46L9.33807 86.311L12.2151 86.346L15.0761 86.399L15.1291 90.126L15.1641 93.834H20.9901V86.311H30.3471V93.834H36.3481V86.311H44.9991V93.834H51.0011V86.311H59.6511V93.834H65.6541V86.311H75.0111V93.834H80.8361L80.8721 90.108L80.9251 86.399L83.7851 86.346L86.6621 86.311L86.6971 83.46L86.7511 80.626L90.5101 80.573L94.2531 80.538V74.766H86.6621V65.494H94.2531V59.546H86.6621V50.974H94.2531V45.026H86.6621V36.455H94.2531V30.506H86.6621V21.235H94.2531V15.462L90.5101 15.427L86.7511 15.374L86.6971 12.541L86.6621 9.68802L83.7851 9.65302L80.9251 9.60202L80.8721 5.87502L80.8361 2.16602H75.0111V9.68802H65.6541V2.16602H59.6511V9.68802H51.0011V2.16602H44.9991V9.68802H36.3481V2.16602H30.3471V9.68802H20.9901V2.16602H15.1641L15.1291 5.87502ZM81.0131 16.284C81.0131 16.948 81.1371 31.749 81.2771 49.206C81.4191 66.666 81.5071 80.994 81.4541 81.029C81.4191 81.081 66.5541 81.046 48.4421 80.976L15.5171 80.854V15.287L32.7831 15.234C42.2621 15.217 57.0041 15.181 65.5301 15.146L81.0131 15.112V16.284Z" fill="#6B7280"/>
<path d="M14.567 9.59401L14.62 5.86801L15.638 5.88201L15.585 9.60901L15.085 10.111L14.567 9.59401ZM15.585 9.60901L15.578 10.102L15.085 10.111L15.585 9.60901ZM12.205 9.14501L15.066 9.09301L15.085 10.111L12.225 10.162H12.221L12.205 9.14501ZM12.225 10.162H12.232H12.221H12.225ZM9.33204 9.17901L12.209 9.14501L12.221 10.162L9.34404 10.197L8.82904 9.68201L9.33204 9.17901ZM8.82904 9.68201L8.83504 9.18501L9.33204 9.17901L8.82904 9.68201ZM8.79404 12.535L8.82904 9.68201L9.84604 9.69501L9.81204 12.547V12.55L8.79404 12.535ZM9.81204 12.547V12.558V12.55V12.547ZM8.74104 15.364L8.79404 12.531L9.81204 12.55L9.75904 15.383L9.25704 15.883L8.74104 15.364ZM9.75904 15.383L9.74904 15.875L9.25704 15.883L9.75904 15.383ZM5.50004 14.918L9.24304 14.865L9.25704 15.883L5.51504 15.936H5.51204L5.50004 14.918ZM5.51504 15.936H5.51904H5.51204H5.51504ZM1.74204 14.953L5.50204 14.918L5.51204 15.936L1.75204 15.97L1.23804 15.462L1.74204 14.953ZM1.23804 15.462V14.957L1.74204 14.953L1.23804 15.462ZM1.23804 21.235V15.462H2.25604V21.235L1.74704 21.745L1.23804 21.235ZM1.74704 21.745H1.23804V21.235L1.74704 21.745ZM9.33804 21.745H1.74704V20.725H9.33804L9.84604 21.235L9.33804 21.745ZM9.33804 20.725H9.84604V21.235L9.33804 20.725ZM8.82904 30.506V21.235H9.84604V30.506L9.33804 31.016L8.82904 30.506ZM9.84604 30.506V31.016H9.33804L9.84604 30.506ZM1.74704 29.996H9.33804V31.016H1.74704L1.23804 30.506L1.74704 29.996ZM1.23804 30.506V29.996H1.74704L1.23804 30.506ZM1.23804 36.455V30.506H2.25604V36.455L1.74704 36.965L1.23804 36.455ZM1.74704 36.965H1.23804V36.455L1.74704 36.965ZM9.33804 36.965H1.74704V35.945H9.33804L9.84604 36.455L9.33804 36.965ZM9.33804 35.945H9.84604V36.455L9.33804 35.945ZM8.82904 45.026V36.455H9.84604V45.026L9.33804 45.536L8.82904 45.026ZM9.84604 45.026V45.536H9.33804L9.84604 45.026ZM1.74704 44.516H9.33804V45.536H1.74704L1.23804 45.026L1.74704 44.516ZM1.23804 45.026V44.516H1.74704L1.23804 45.026ZM1.23804 50.974V45.026H2.25604V50.974L1.74704 51.484L1.23804 50.974ZM1.74704 51.484H1.23804V50.974L1.74704 51.484ZM9.33804 51.484H1.74704V50.464H9.33804L9.84604 50.974L9.33804 51.484ZM9.33804 50.464H9.84604V50.974L9.33804 50.464ZM8.82904 59.546V50.974H9.84604V59.546L9.33804 60.056L8.82904 59.546ZM9.84604 59.546V60.056H9.33804L9.84604 59.546ZM1.74704 59.036H9.33804V60.056H1.74704L1.23804 59.546L1.74704 59.036ZM1.23804 59.546V59.036H1.74704L1.23804 59.546ZM1.23804 65.494V59.546H2.25604V65.494L1.74704 66.004L1.23804 65.494ZM1.74704 66.004H1.23804V65.494L1.74704 66.004ZM9.33804 66.004H1.74704V64.984H9.33804L9.84604 65.494L9.33804 66.004ZM9.33804 64.984H9.84604V65.494L9.33804 64.984ZM8.82904 74.766V65.494H9.84604V74.766L9.33804 75.276L8.82904 74.766ZM9.84604 74.766V75.276H9.33804L9.84604 74.766ZM1.74704 74.256H9.33804V75.276H1.74704L1.23804 74.766L1.74704 74.256ZM1.23804 74.766V74.256H1.74704L1.23804 74.766ZM1.23804 80.538V74.766H2.25604V80.538L1.74204 81.047L1.23804 80.538ZM1.74204 81.047L1.23804 81.042V80.538L1.74204 81.047ZM5.50204 81.082L1.74204 81.047L1.75204 80.03L5.51204 80.064H5.51504L5.50204 81.082ZM5.51204 80.064H5.51904H5.51504H5.51204ZM9.24304 81.135L5.50004 81.082L5.51504 80.064L9.25704 80.117L9.75904 80.617L9.24304 81.135ZM9.25704 80.117L9.74904 80.125L9.75904 80.617L9.25704 80.117ZM8.79404 83.47L8.74104 80.636L9.75904 80.617L9.81204 83.451V83.454L8.79404 83.47ZM9.81204 83.451V83.444V83.454V83.451ZM8.82904 86.317L8.79404 83.467L9.81204 83.454L9.84604 86.305L9.33204 86.82L8.82904 86.317ZM9.33204 86.82L8.83504 86.814L8.82904 86.317L9.33204 86.82ZM12.209 86.855L9.33204 86.82L9.34404 85.803L12.221 85.837H12.225L12.209 86.855ZM12.221 85.837H12.232H12.225H12.221ZM15.066 86.908L12.205 86.855L12.225 85.837L15.085 85.89L15.585 86.392L15.066 86.908ZM15.085 85.89L15.578 85.9L15.585 86.392L15.085 85.89ZM14.62 90.133L14.567 86.407L15.585 86.392L15.638 90.119V90.122L14.62 90.133ZM15.638 90.119V90.114V90.122V90.119ZM14.655 93.839L14.62 90.131L15.638 90.122L15.673 93.829L15.164 94.344L14.655 93.839ZM15.164 94.344H14.66L14.655 93.839L15.164 94.344ZM20.99 94.344H15.164V93.324H20.99L21.499 93.834L20.99 94.344ZM21.499 93.834V94.344H20.99L21.499 93.834ZM21.499 86.311V93.834H20.481V86.311L20.99 85.801L21.499 86.311ZM20.481 86.311V85.801H20.99L20.481 86.311ZM30.347 86.822H20.99V85.801H30.347L30.855 86.311L30.347 86.822ZM30.347 85.801H30.855V86.311L30.347 85.801ZM29.838 93.834V86.311H30.855V93.834L30.347 94.344L29.838 93.834ZM30.347 94.344H29.838V93.834L30.347 94.344ZM36.348 94.344H30.347V93.324H36.348L36.857 93.834L36.348 94.344ZM36.857 93.834V94.344H36.348L36.857 93.834ZM36.857 86.311V93.834H35.839V86.311L36.348 85.801L36.857 86.311ZM35.839 86.311V85.801H36.348L35.839 86.311ZM44.999 86.822H36.348V85.801H44.999L45.508 86.311L44.999 86.822ZM44.999 85.801H45.508V86.311L44.999 85.801ZM44.49 93.834V86.311H45.508V93.834L44.999 94.344L44.49 93.834ZM44.999 94.344H44.49V93.834L44.999 94.344ZM51.001 94.344H44.999V93.324H51.001L51.51 93.834L51.001 94.344ZM51.51 93.834V94.344H51.001L51.51 93.834ZM51.51 86.311V93.834H50.492V86.311L51.001 85.801L51.51 86.311ZM50.492 86.311V85.801H51.001L50.492 86.311ZM59.651 86.822H51.001V85.801H59.651L60.16 86.311L59.651 86.822ZM59.651 85.801H60.16V86.311L59.651 85.801ZM59.142 93.834V86.311H60.16V93.834L59.651 94.344L59.142 93.834ZM59.651 94.344H59.142V93.834L59.651 94.344ZM65.654 94.344H59.651V93.324H65.654L66.163 93.834L65.654 94.344ZM66.163 93.834V94.344H65.654L66.163 93.834ZM66.163 86.311V93.834H65.145V86.311L65.654 85.801L66.163 86.311ZM65.145 86.311V85.801H65.654L65.145 86.311ZM75.011 86.822H65.654V85.801H75.011L75.52 86.311L75.011 86.822ZM75.011 85.801H75.52V86.311L75.011 85.801ZM74.502 93.834V86.311H75.52V93.834L75.011 94.344L74.502 93.834ZM75.011 94.344H74.502V93.834L75.011 94.344ZM80.836 94.344H75.011V93.324H80.836L81.345 93.839L80.836 94.344ZM81.345 93.839L81.34 94.344H80.836L81.345 93.839ZM81.381 90.113L81.345 93.839L80.327 93.829L80.363 90.103V90.101L81.381 90.113ZM80.363 90.103V90.096V90.101V90.103ZM81.434 86.407L81.381 90.115L80.363 90.101L80.416 86.392L80.915 85.89L81.434 86.407ZM80.416 86.392L80.423 85.9L80.915 85.89L80.416 86.392ZM83.794 86.855L80.935 86.908L80.915 85.89L83.775 85.837H83.778L83.794 86.855ZM83.775 85.837H83.768H83.778H83.775ZM86.668 86.82L83.791 86.855L83.778 85.837L86.656 85.803L87.171 86.317L86.668 86.82ZM87.171 86.317L87.165 86.814L86.668 86.82L87.171 86.317ZM87.206 83.467L87.171 86.317L86.153 86.305L86.188 83.454V83.451L87.206 83.467ZM86.188 83.454V83.445V83.451V83.454ZM87.26 80.636L87.206 83.47L86.188 83.451L86.242 80.617L86.744 80.117L87.26 80.636ZM86.242 80.617L86.252 80.125L86.744 80.117L86.242 80.617ZM90.518 81.082L86.758 81.135L86.744 80.117L90.503 80.064H90.506L90.518 81.082ZM90.503 80.064H90.499H90.506H90.503ZM94.258 81.047L90.515 81.082L90.506 80.064L94.248 80.03L94.762 80.538L94.258 81.047ZM94.762 80.538V81.042L94.258 81.047L94.762 80.538ZM94.762 74.766V80.538H93.744V74.766L94.253 74.256L94.762 74.766ZM94.253 74.256H94.762V74.766L94.253 74.256ZM86.662 74.256H94.253V75.276H86.662L86.153 74.766L86.662 74.256ZM86.662 75.276H86.153V74.766L86.662 75.276ZM87.171 65.494V74.766H86.153V65.494L86.662 64.984L87.171 65.494ZM86.153 65.494V64.984H86.662L86.153 65.494ZM94.253 66.004H86.662V64.984H94.253L94.762 65.494L94.253 66.004ZM94.762 65.494V66.004H94.253L94.762 65.494ZM94.762 59.546V65.494H93.744V59.546L94.253 59.036L94.762 59.546ZM94.253 59.036H94.762V59.546L94.253 59.036ZM86.662 59.036H94.253V60.056H86.662L86.153 59.546L86.662 59.036ZM86.662 60.056H86.153V59.546L86.662 60.056ZM87.171 50.974V59.546H86.153V50.974L86.662 50.464L87.171 50.974ZM86.153 50.974V50.464H86.662L86.153 50.974ZM94.253 51.484H86.662V50.464H94.253L94.762 50.974L94.253 51.484ZM94.762 50.974V51.484H94.253L94.762 50.974ZM94.762 45.026V50.974H93.744V45.026L94.253 44.516L94.762 45.026ZM94.253 44.516H94.762V45.026L94.253 44.516ZM86.662 44.516H94.253V45.536H86.662L86.153 45.026L86.662 44.516ZM86.662 45.536H86.153V45.026L86.662 45.536ZM87.171 36.455V45.026H86.153V36.455L86.662 35.945L87.171 36.455ZM86.153 36.455V35.945H86.662L86.153 36.455ZM94.253 36.965H86.662V35.945H94.253L94.762 36.455L94.253 36.965ZM94.762 36.455V36.965H94.253L94.762 36.455ZM94.762 30.506V36.455H93.744V30.506L94.253 29.996L94.762 30.506ZM94.253 29.996H94.762V30.506L94.253 29.996ZM86.662 29.996H94.253V31.016H86.662L86.153 30.506L86.662 29.996ZM86.662 31.016H86.153V30.506L86.662 31.016ZM87.171 21.235V30.506H86.153V21.235L86.662 20.725L87.171 21.235ZM86.153 21.235V20.725H86.662L86.153 21.235ZM94.253 21.745H86.662V20.725H94.253L94.762 21.235L94.253 21.745ZM94.762 21.235V21.745H94.253L94.762 21.235ZM94.762 15.462V21.235H93.744V15.462L94.258 14.953L94.762 15.462ZM94.258 14.953L94.762 14.957V15.462L94.258 14.953ZM90.515 14.918L94.258 14.953L94.248 15.97L90.506 15.936H90.503L90.515 14.918ZM90.506 15.936H90.499H90.503H90.506ZM86.758 14.865L90.518 14.918L90.503 15.936L86.744 15.883L86.242 15.383L86.758 14.865ZM86.744 15.883L86.252 15.875L86.242 15.383L86.744 15.883ZM87.206 12.531L87.26 15.364L86.242 15.383L86.188 12.55V12.547L87.206 12.531ZM86.188 12.55V12.556V12.547V12.55ZM87.171 9.68201L87.206 12.535L86.188 12.547L86.153 9.69501L86.668 9.17901L87.171 9.68201ZM86.668 9.17901L87.165 9.18501L87.171 9.68201L86.668 9.17901ZM83.791 9.14501L86.668 9.17901L86.656 10.197L83.778 10.162H83.775L83.791 9.14501ZM83.778 10.162H83.768H83.775H83.778ZM80.935 9.09301L83.794 9.14501L83.775 10.162L80.915 10.111L80.416 9.60901L80.935 9.09301ZM80.915 10.111L80.423 10.102L80.416 9.60901L80.915 10.111ZM81.381 5.86801L81.434 9.59401L80.416 9.60901L80.363 5.88201V5.88001L81.381 5.86801ZM80.363 5.88201V5.88701V5.88001V5.88201ZM81.345 2.16101L81.381 5.87001L80.363 5.88001L80.327 2.17101L80.836 1.65601L81.345 2.16101ZM80.836 1.65601H81.34L81.345 2.16101L80.836 1.65601ZM75.011 1.65601H80.836V2.67601H75.011L74.502 2.16601L75.011 1.65601ZM74.502 2.16601V1.65601H75.011L74.502 2.16601ZM74.502 9.68801V2.16601H75.52V9.68801L75.011 10.199L74.502 9.68801ZM75.52 9.68801V10.199H75.011L75.52 9.68801ZM65.654 9.17801H75.011V10.199H65.654L65.145 9.68801L65.654 9.17801ZM65.654 10.199H65.145V9.68801L65.654 10.199ZM66.163 2.16601V9.68801H65.145V2.16601L65.654 1.65601L66.163 2.16601ZM65.654 1.65601H66.163V2.16601L65.654 1.65601ZM59.651 1.65601H65.654V2.67601H59.651L59.142 2.16601L59.651 1.65601ZM59.142 2.16601V1.65601H59.651L59.142 2.16601ZM59.142 9.68801V2.16601H60.16V9.68801L59.651 10.199L59.142 9.68801ZM60.16 9.68801V10.199H59.651L60.16 9.68801ZM51.001 9.17801H59.651V10.199H51.001L50.492 9.68801L51.001 9.17801ZM51.001 10.199H50.492V9.68801L51.001 10.199ZM51.51 2.16601V9.68801H50.492V2.16601L51.001 1.65601L51.51 2.16601ZM51.001 1.65601H51.51V2.16601L51.001 1.65601ZM44.999 1.65601H51.001V2.67601H44.999L44.49 2.16601L44.999 1.65601ZM44.49 2.16601V1.65601H44.999L44.49 2.16601ZM44.49 9.68801V2.16601H45.508V9.68801L44.999 10.199L44.49 9.68801ZM45.508 9.68801V10.199H44.999L45.508 9.68801ZM36.348 9.17801H44.999V10.199H36.348L35.839 9.68801L36.348 9.17801ZM36.348 10.199H35.839V9.68801L36.348 10.199ZM36.857 2.16601V9.68801H35.839V2.16601L36.348 1.65601L36.857 2.16601ZM36.348 1.65601H36.857V2.16601L36.348 1.65601ZM30.347 1.65601H36.348V2.67601H30.347L29.838 2.16601L30.347 1.65601ZM29.838 2.16601V1.65601H30.347L29.838 2.16601ZM29.838 9.68801V2.16601H30.855V9.68801L30.347 10.199L29.838 9.68801ZM30.855 9.68801V10.199H30.347L30.855 9.68801ZM20.99 9.17801H30.347V10.199H20.99L20.481 9.68801L20.99 9.17801ZM20.99 10.199H20.481V9.68801L20.99 10.199ZM21.499 2.16601V9.68801H20.481V2.16601L20.99 1.65601L21.499 2.16601ZM20.99 1.65601H21.499V2.16601L20.99 1.65601ZM15.164 1.65601H20.99V2.67601H15.164L14.655 2.16101L15.164 1.65601ZM14.655 2.16101L14.66 1.65601H15.164L14.655 2.16101ZM14.62 5.87001L14.655 2.16101L15.673 2.17101L15.638 5.88001V5.88201L14.62 5.87001ZM15.638 5.88001V5.88701V5.88201V5.88001ZM81.786 49.203L80.769 49.21L80.756 47.581L80.742 45.97L80.73 44.38L80.717 42.81L80.705 41.266L80.692 39.747L80.68 38.254L80.668 36.794L80.657 35.366L80.645 33.973L80.634 32.615L80.623 31.298L80.612 30.019L80.603 28.783L80.593 27.594L80.583 26.451L80.575 25.357L80.566 24.317L80.558 23.327L80.551 22.393L80.544 21.519L80.536 20.703L80.53 19.947L80.526 19.257L80.521 18.632L80.516 18.077L80.512 17.591L80.51 17.177L80.507 16.838L80.505 16.575L80.504 16.39V16.284H81.522V16.385L81.523 16.568L81.525 16.83L81.528 17.17L81.53 17.584L81.534 18.069L81.538 18.625L81.543 19.25L81.548 19.94L81.554 20.693L81.561 21.509L81.569 22.386L81.576 23.32L81.584 24.307L81.593 25.35L81.601 26.444L81.611 27.587L81.62 28.776L81.63 30.012L81.641 31.288L81.652 32.608L81.663 33.963L81.675 35.359L81.685 36.787L81.697 38.247L81.709 39.738L81.723 41.258L81.735 42.803L81.748 44.373L81.76 45.963L81.773 47.574L81.786 49.203ZM81.877 81.314L81.032 80.744L81.174 80.603L80.95 80.959L80.954 80.849L80.956 80.647L80.959 80.365L80.96 80.008L80.961 79.575V79.071L80.96 78.498L80.959 77.857L80.956 77.151L80.954 76.382L80.95 75.551L80.947 74.66L80.942 73.713L80.936 72.711L80.93 71.654L80.924 70.548L80.917 69.393L80.909 68.19L80.901 66.942L80.892 65.651L80.883 64.32L80.873 62.949L80.864 61.543L80.853 60.101L80.842 58.627L80.831 57.122L80.819 55.588L80.807 54.029L80.795 52.444L80.782 50.838L80.769 49.21L81.786 49.203L81.8 50.831L81.813 52.437L81.825 54.022L81.837 55.581L81.849 57.115L81.86 58.62L81.871 60.093L81.881 61.536L81.891 62.942L81.901 64.313L81.91 65.644L81.919 66.935L81.927 68.182L81.934 69.385L81.942 70.543L81.947 71.649L81.954 72.706L81.96 73.708L81.965 74.656L81.968 75.546L81.972 76.377L81.974 77.148L81.976 77.855L81.978 78.496L81.979 79.071V79.577L81.978 80.01L81.976 80.37L81.974 80.656L81.972 80.868L81.968 81.01L81.735 81.455L81.877 81.314ZM81.032 80.744L81.09 80.659L81.174 80.603L81.032 80.744ZM48.44 81.486L48.444 80.466L50.132 80.472L51.8 80.479L53.442 80.485L55.061 80.49L56.651 80.496L58.213 80.501L59.742 80.506L61.237 80.511L62.697 80.515L64.118 80.52L65.5 80.524L66.839 80.528L68.134 80.53L69.381 80.534L70.581 80.536L71.728 80.538L72.824 80.54L73.864 80.542L74.845 80.543H75.769L76.632 80.544H77.43L78.162 80.543L78.827 80.542L79.422 80.541L79.945 80.54L80.393 80.537L80.764 80.536L81.056 80.532L81.265 80.529L81.383 80.525L81.032 80.744L81.877 81.314L81.432 81.543L81.287 81.546L81.071 81.55L80.773 81.554L80.398 81.557L79.949 81.56L79.425 81.561L78.829 81.562L78.164 81.563L77.43 81.565H76.632L75.769 81.563H74.845L73.861 81.562L72.822 81.56L71.726 81.559L70.578 81.556L69.379 81.554L68.131 81.55L66.837 81.548L65.498 81.544L64.116 81.54L62.695 81.536L61.234 81.531L59.739 81.526L58.21 81.521L56.649 81.516L55.058 81.51L53.439 81.506L51.795 81.5L50.127 81.492L48.44 81.486ZM15.52 80.343L48.444 80.466L48.44 81.486L15.515 81.364L15.008 80.854L15.52 80.343ZM15.515 81.364L15.008 81.361V80.854L15.515 81.364ZM16.026 15.287V80.854H15.008V15.287L15.516 14.777L16.026 15.287ZM15.008 15.287V14.778L15.516 14.777L15.008 15.287ZM32.784 15.744L15.519 15.797L15.516 14.777L32.781 14.724L32.784 15.744ZM65.529 14.636L65.531 15.656H65.533L64.716 15.66L63.863 15.662L62.98 15.666L62.066 15.67L61.124 15.673L60.156 15.676L59.165 15.679L58.15 15.683L57.118 15.685L56.068 15.689L55.002 15.692L53.923 15.695L52.832 15.699L51.732 15.701L50.627 15.705L49.515 15.707L48.401 15.71L47.286 15.713L46.173 15.715L45.063 15.718L43.958 15.721L42.862 15.724L41.775 15.726L40.701 15.729L39.64 15.731L38.595 15.733L37.569 15.735L36.562 15.737L35.58 15.739L34.62 15.741L33.687 15.743L32.784 15.744L32.781 14.724L33.685 14.723L34.617 14.72L35.577 14.719L36.56 14.717L37.567 14.714L38.593 14.713L39.637 14.711L40.698 14.708L41.773 14.706L42.86 14.704L43.956 14.701L45.06 14.698L46.171 14.695L47.283 14.693L48.399 14.69L49.513 14.687L50.624 14.684L51.73 14.681L52.829 14.678L53.92 14.675L54.999 14.672L56.065 14.669L57.115 14.665L58.148 14.663L59.161 14.659L60.153 14.655L61.121 14.653L62.061 14.649L62.975 14.646L63.861 14.642L64.711 14.64L65.529 14.636ZM81.014 15.621L65.531 15.656L65.529 14.636L81.012 14.601L81.522 15.112L81.014 15.621ZM81.012 14.601L81.522 14.6V15.112L81.012 14.601ZM80.504 16.284V15.112H81.522V16.284H80.504Z" fill="#6B7280"/>
</svg>