<svg xmlns="http://www.w3.org/2000/svg" width="96" height="96" viewBox="0 0 96 96" fill="none">

<path d="M82.17 6.32001H13.83C9.68235 6.32001 6.32001 9.59281 6.32001 13.63V82.37C6.32001 86.4072 9.68235 89.68 13.83 89.68H82.17C86.3177 89.68 89.68 86.4072 89.68 82.37V13.63C89.68 9.59281 86.3177 6.32001 82.17 6.32001Z" stroke="#6B7280" stroke-width="6.25" stroke-miterlimit="22.9256"/>
<path d="M60.81 40.5H35.19C33.6326 40.5 32.37 41.7267 32.37 43.24V69.02C32.37 70.5333 33.6326 71.76 35.19 71.76H60.81C62.3674 71.76 63.63 70.5333 63.63 69.02V43.24C63.63 41.7267 62.3674 40.5 60.81 40.5Z" stroke="#6B7280" stroke-width="6.25" stroke-miterlimit="22.9256"/>
<path fill-rule="evenodd" clip-rule="evenodd" d="M47.5 23.54C41.74 23.54 37.07 28.2 37.07 33.96C37.07 36.48 37.97 38.79 39.47 40.6H55.52C57.02 38.79 57.92 36.48 57.92 33.96C57.92 28.2 53.25 23.54 47.5 23.54Z" stroke="#6B7280" stroke-width="6.25" stroke-miterlimit="22.9256"/>
</svg>