<svg xmlns="http://www.w3.org/2000/svg" width="96" height="96" viewBox="0 0 96 96" fill="none">

<path fill-rule="evenodd" clip-rule="evenodd" d="M0.63501 27.701H95.365V68.2991H0.63501V27.701Z" fill="#2B2A29"/>
<path fill-rule="evenodd" clip-rule="evenodd" d="M24.057 42.885C24.535 43.005 24.788 43.585 24.619 44.175C24.451 44.765 23.924 45.148 23.446 45.028C22.968 44.907 22.716 44.328 22.884 43.738C23.053 43.148 23.58 42.765 24.057 42.885ZM22.27 46.85L22.075 46.678C22.37 46.308 22.64 46.047 22.884 45.89C23.127 45.733 23.336 45.654 23.507 45.654C23.601 45.654 23.674 45.678 23.724 45.725C23.775 45.773 23.8 45.837 23.8 45.917C23.8 46.014 23.704 46.429 23.512 47.158C23.199 48.35 23.041 49.07 23.041 49.314C23.041 49.362 23.052 49.402 23.073 49.433C23.092 49.466 23.115 49.481 23.14 49.481C23.233 49.481 23.475 49.273 23.866 48.856L24.039 49.047C23.635 49.481 23.339 49.758 23.153 49.88C22.965 50 22.814 50.061 22.696 50.061C22.592 50.061 22.51 50.025 22.449 49.951C22.389 49.877 22.358 49.774 22.358 49.643C22.358 49.223 22.581 48.196 23.024 46.563C23.044 46.485 23.055 46.417 23.055 46.356C23.055 46.289 23.029 46.255 22.974 46.255C22.916 46.255 22.849 46.282 22.773 46.336C22.698 46.389 22.529 46.561 22.27 46.85ZM19.813 47.924C20.288 47.681 20.646 47.421 20.887 47.143C21.049 46.947 21.13 46.754 21.13 46.563C21.13 46.418 21.097 46.303 21.031 46.217C20.964 46.131 20.877 46.088 20.77 46.088C20.661 46.088 20.555 46.136 20.451 46.229C20.313 46.354 20.195 46.542 20.101 46.795C19.965 47.163 19.869 47.54 19.813 47.924ZM21.365 48.655L21.512 48.877C20.787 49.66 20.166 50.051 19.648 50.051C19.438 50.051 19.279 49.97 19.167 49.81C19.056 49.648 19 49.388 19 49.032C19 48.313 19.192 47.597 19.577 46.885C20.009 46.076 20.525 45.67 21.126 45.67C21.335 45.67 21.495 45.73 21.607 45.848C21.718 45.969 21.772 46.133 21.772 46.341C21.772 46.559 21.707 46.774 21.574 46.986C21.441 47.198 21.203 47.418 20.86 47.647C20.688 47.757 20.32 47.957 19.759 48.246C19.733 48.428 19.72 48.6 19.72 48.765C19.72 49.004 19.753 49.17 19.819 49.264C19.886 49.359 19.983 49.405 20.11 49.405C20.231 49.405 20.364 49.368 20.51 49.29C20.704 49.185 20.989 48.974 21.365 48.655ZM17.311 44.197H22.597C22.615 44.735 22.909 45.188 23.367 45.303C23.968 45.454 24.63 44.972 24.842 44.231C24.845 44.219 24.848 44.208 24.851 44.197H25.728C25.933 44.197 26.101 44.363 26.101 44.566V51.15C26.101 51.352 25.933 51.518 25.728 51.518H17.311C17.106 51.518 16.938 51.352 16.938 51.15V44.566C16.938 44.363 17.106 44.197 17.311 44.197Z" fill="#E95228"/>
<path d="M32.589 49.2951V46.3151C32.589 45.1741 31.902 44.3511 30.451 44.3511C29.048 44.3511 28.322 45.1641 28.322 46.3151V46.6061H29.648C29.648 45.8801 29.831 45.4251 30.451 45.4251C31.089 45.4251 31.234 45.8801 31.234 46.6061V47.2251H30.122V48.2791H31.234V49.4601C31.234 50.1471 30.963 50.5341 30.451 50.5341C29.812 50.5341 29.648 50.1471 29.648 49.4601V48.9761H28.322V49.3151C28.322 50.9401 29.019 51.5981 30.47 51.5981C31.854 51.5981 32.589 50.9211 32.589 49.2951Z" fill="#FEFEFE"/>
<path d="M37.011 51.4721V46.1901H33.682V48.2021C33.682 50.4471 33.634 50.6311 33.189 50.6311C33.112 50.6311 33.034 50.6211 32.928 50.6021V51.4721C33.17 51.5401 33.353 51.5691 33.615 51.5691C34.321 51.5691 34.844 51.1141 34.844 49.2471V47.1281H35.821V51.4721H37.011Z" fill="#FEFEFE"/>
<path d="M41.2969 49.9531V49.8081H40.1069V50.1081C40.1069 50.4761 39.8649 50.6981 39.4779 50.6981C39.0909 50.6981 38.8489 50.4951 38.8489 50.1081V48.9571H41.2969V47.7281C41.2969 46.5381 40.5329 46.0541 39.4779 46.0541C38.4229 46.0541 37.6589 46.5281 37.6589 47.7281V49.9531C37.6589 51.1531 38.4229 51.6271 39.4779 51.6271C40.5329 51.6271 41.2969 51.1431 41.2969 49.9531ZM40.1069 48.0861H38.8489V47.5731C38.8489 47.1861 39.0909 46.9831 39.4779 46.9831C39.8649 46.9831 40.1069 47.2051 40.1069 47.5731V48.0861Z" fill="#FEFEFE"/>
<path d="M45.448 51.4721L44.2 48.3181L45.448 46.1901H44.2L43.107 48.1541V46.1901H41.917V51.4721H43.107V49.9631L43.387 49.4211L44.122 51.4721H45.448Z" fill="#FEFEFE"/>
<path d="M48.9801 47.1281V46.1901H45.3511V47.1281H46.5701V51.4721H47.7601V47.1281H48.9801Z" fill="#FEFEFE"/>
<path d="M52.966 49.9341V47.3991C52.966 46.5091 52.376 46.0541 51.592 46.0541C51.176 46.0541 50.75 46.2961 50.566 46.7801V46.1901H49.377V53.1371H50.566V50.9111C50.77 51.3851 51.137 51.6271 51.592 51.6271C52.308 51.6271 52.966 51.1821 52.966 49.9341ZM51.728 49.9631C51.728 50.4281 51.486 50.6981 51.157 50.6981C50.886 50.6981 50.566 50.4471 50.566 49.9631V47.6801C50.566 47.2441 50.886 47.0311 51.157 47.0311C51.486 47.0311 51.728 47.2441 51.728 47.6801V49.9631Z" fill="#FEFEFE"/>
<path d="M57.233 49.9051V47.7761C57.233 46.8571 56.749 46.0541 55.366 46.0541C53.953 46.0541 53.489 46.8571 53.489 47.7761V49.9051C53.489 50.8241 53.953 51.6271 55.366 51.6271C56.749 51.6271 57.233 50.8241 57.233 49.9051ZM55.995 50.0601C55.995 50.5531 55.753 50.6981 55.366 50.6981C54.998 50.6981 54.727 50.5341 54.727 50.0601V47.6221C54.727 47.1381 54.998 46.9831 55.366 46.9831C55.753 46.9831 55.995 47.1281 55.995 47.6221V50.0601Z" fill="#FEFEFE"/>
<path d="M62.971 51.4721V44.5061H61.849L59.681 50.0111C59.527 50.3981 59.498 50.6501 59.401 50.9691H59.381C59.391 50.7181 59.401 50.4471 59.401 50.1951V44.5061H58.627V51.4721H59.749L61.926 45.9871C62.052 45.6671 62.129 45.2711 62.197 44.8541H62.216C62.207 45.2031 62.197 45.5611 62.197 45.9191V51.4721H62.971Z" fill="#FEFEFE"/>
<path d="M67.4221 51.4721V46.3151H66.6861V48.4441H64.8571V46.3151H64.1221V51.4721H64.8571V49.0631H66.6861V51.4721H67.4221Z" fill="#FEFEFE"/>
<path d="M71.34 46.9351V46.3151H67.905V46.9351H69.26V51.4721H69.995V46.9351H71.34Z" fill="#FEFEFE"/>
<path d="M74.833 48.947C74.833 47.583 74.727 46.17 73.208 46.17C71.843 46.17 71.553 47.583 71.553 48.879C71.553 50.96 72.182 51.608 73.266 51.608C74.35 51.608 74.833 50.766 74.785 49.75H74.098C74.146 50.34 73.953 50.989 73.247 50.989C72.385 50.989 72.318 50.186 72.318 48.947H74.833ZM74.059 48.347H72.318C72.318 47.66 72.405 46.79 73.217 46.79C73.982 46.79 74.059 47.563 74.059 48.347Z" fill="#FEFEFE"/>
<path d="M79.0621 51.4721V46.3151H76.0141V48.9231C76.0141 50.5841 75.8691 50.9021 75.4721 50.9021C75.3461 50.9021 75.2501 50.8921 75.1531 50.8731V51.4341C75.3081 51.4921 75.4331 51.5111 75.6271 51.5111C76.5561 51.5111 76.7201 50.4681 76.7201 48.9811V46.9351H78.3261V51.4721H79.0621Z" fill="#FEFEFE"/>
</svg>