<svg xmlns="http://www.w3.org/2000/svg" width="96" height="96" viewBox="0 0 96 96" fill="none">

<path d="M40.65 52.76C40.65 53.63 40.32 53.97 39.5 53.97H36.59V50.98H39.5C40.32 50.98 40.65 51.4 40.65 52.19V52.76ZM18.37 33.64H0V62.36H18.37V33.64ZM39.5 49.03H33.42V50.85L34.5 51.01V58.32H36.59V55.92H39.5C41.89 55.92 42.71 54.71 42.71 52.84V52.12C42.71 50.34 41.94 49.03 39.5 49.03ZM84.34 49.03H85.12V58.32H83.03V51.73L78.73 58.32H76.34V49.03H78.43V55.38L81.57 50.52C82.36 49.29 83.06 49.03 84.34 49.03ZM25.52 37.68H31.21V38.84C31.21 39.77 31.13 40.54 30.93 41.23H29.15V39.64H25.52C24.44 39.64 24.19 39.92 24.19 41.1V43.55C24.19 44.73 24.44 45.01 25.52 45.01H31.21V46.97H25.52C22.87 46.97 22.1 46.2 22.1 43.55V41.1C22.1 38.43 22.87 37.68 25.52 37.68ZM83.03 37.68H85.12V46.97H83.03V43.24H78.43V46.97H76.34V37.68H78.43V41.28H83.03V37.68ZM28.1 56.36H24.49V54.56H28.1C28.79 54.56 29.05 54.89 29.05 55.44C29.05 55.97 28.79 56.36 28.1 56.36ZM28.64 51.81C28.64 52.37 28.35 52.68 27.63 52.68H24.49V51.01H27.63C28.35 51.01 28.64 51.27 28.64 51.81ZM29.83 53.41C30.32 53.11 30.72 52.48 30.72 51.5C30.72 50.24 30 49.03 27.87 49.03H22.41V58.32H28.07C30.13 58.32 31.13 57.26 31.13 55.54C31.13 54.38 30.47 53.7 29.83 53.41ZM68.83 49.03H74.57V50.19C74.57 51.11 74.49 51.88 74.28 52.58H72.51V50.98H68.83C67.75 50.98 67.49 51.27 67.49 52.45V54.89C67.49 56.08 67.75 56.36 68.83 56.36H74.57V58.32H68.83C66.18 58.32 65.41 57.54 65.41 54.89V52.45C65.41 49.77 66.18 49.03 68.83 49.03ZM51.26 54.89C51.26 56.08 51 56.36 49.92 56.36H47.45C46.37 56.36 46.11 56.08 46.11 54.89V52.45C46.11 51.27 46.37 50.98 47.45 50.98H49.92C51 50.98 51.26 51.27 51.26 52.45V54.89ZM49.92 49.03H47.45C44.8 49.03 44.02 49.77 44.02 52.45V54.89C44.02 57.54 44.8 58.32 47.45 58.32H49.92C52.59 58.32 53.34 57.54 53.34 54.89V52.45C53.34 49.77 52.59 49.03 49.92 49.03ZM36.08 39.64H39.75V44.73H35.3C35.58 44.23 35.7 43.54 35.79 42.65L36.08 39.64ZM41.84 37.68H34.25L33.78 42.39C33.55 44.63 33.22 44.99 32.6 44.99H32.47V47.84H34.45L34.53 46.66H40.65L40.73 47.84H42.71V44.96H41.84V37.68ZM58.23 49.03H63.94V50.19C63.94 51.11 63.86 51.88 63.66 52.58H61.88V50.98H58.23C57.15 50.98 56.89 51.27 56.89 52.45V54.89C56.89 56.08 57.15 56.36 58.23 56.36H63.94V58.32H58.23C55.58 58.32 54.81 57.54 54.81 54.89V52.45C54.81 49.77 55.58 49.03 58.23 49.03ZM93.92 43.55C93.92 44.73 93.66 45.01 92.58 45.01H90.29C89.21 45.01 88.95 44.73 88.95 43.55V41.1C88.95 39.92 89.21 39.64 90.29 39.64H92.58C93.66 39.64 93.92 39.92 93.92 41.1V43.55ZM92.58 37.68H90.29C87.64 37.68 86.87 38.43 86.87 41.1V43.55C86.87 46.2 87.9 46.97 90.55 46.97H92.32C95 46.97 96 46.2 96 43.55V41.1C96 38.43 95.25 37.68 92.58 37.68ZM44.18 43.55V41.1C44.18 38.43 44.93 37.68 47.6 37.68H53.06V39.64H47.5C46.42 39.64 46.26 39.82 46.26 41V41.31H51.54V43.24H46.26V43.65C46.26 44.83 46.42 45.01 47.5 45.01H53.13V46.97H47.6C44.93 46.97 44.18 46.2 44.18 43.55ZM69.03 39.64H72.3V41.93H67.7V41.1C67.7 40.05 67.82 39.64 69.03 39.64ZM67.7 43.86H72.3V46.97H74.39V37.68H69.03C66.41 37.68 65.61 38.4 65.61 41.1V46.97H67.7V43.86ZM12.27 49.03H14.36V58.32H7.69C5.02 58.32 4.01 57.31 4.01 54.64V49.03H6.1V54.69C6.1 55.87 6.56 56.36 7.64 56.36H12.27V49.03ZM2.01 35.65H16.36V60.35H2.01V35.65ZM54.39 46.97V44.99C55.24 44.99 55.45 44.47 55.63 42.75L56.2 37.68H63.66V46.97H61.57V39.64H57.98L57.61 43.19C57.3 46.25 56.48 47.07 54.39 46.97ZM95.07 49.03H95.85V58.32H93.76V51.73L89.46 58.32H87.07V49.03H89.16V55.38L92.29 50.52C93.09 49.29 93.79 49.03 95.07 49.03ZM11.24 41.75H6.1V39.64H11.24C12.02 39.64 12.38 40.05 12.38 40.67C12.38 41.28 12.07 41.75 11.24 41.75ZM14.46 40.43C14.46 38.89 13.71 37.68 11.53 37.68H4.01V46.97H6.1V43.7H10.91C11.99 43.7 12.27 44.01 12.27 45.09V46.97H14.36V44.76C14.36 43.65 13.97 43.01 13.1 42.79C14 42.48 14.46 41.6 14.46 40.43Z" fill="#6B7280"/>
</svg>