<svg xmlns="http://www.w3.org/2000/svg" width="200" height="200" viewBox="0 0 200 200" fill="none">
<path d="M6.9 100.01C6.89 101.91 5.35 103.44 3.46 103.45C5.36 103.46 6.9 105 6.9 106.9C6.9 108.8 5.35 110.35 3.45 110.35C1.54 110.35 0 108.8 0 106.9C0 105 1.54 103.46 3.43 103.45C1.54 103.44 0 101.9 0 100C0 98.1 1.54 96.55 3.45 96.55C5.35 96.55 6.89 98.09 6.9 99.99C6.9 98.09 8.44 96.55 10.34 96.55C12.25 96.55 13.79 98.1 13.79 100C13.79 101.91 12.25 103.45 10.34 103.45C8.44 103.45 6.9 101.91 6.9 100.01ZM6.9 120.69C6.9 118.79 5.35 117.24 3.45 117.24C1.54 117.24 0 118.79 0 120.69C0 122.59 1.54 124.14 3.45 124.14C5.35 124.14 6.9 122.59 6.9 120.69C6.9 122.59 8.44 124.14 10.34 124.14C8.44 124.14 6.9 125.68 6.9 127.58C6.89 125.68 5.35 124.14 3.45 124.14C1.54 124.14 0 125.68 0 127.59C0 129.49 1.54 131.04 3.45 131.04C5.35 131.04 6.89 129.5 6.9 127.6C6.9 129.5 8.44 131.04 10.34 131.04C8.44 131.04 6.9 132.58 6.9 134.48C6.9 136.38 8.43 137.93 10.33 137.93C8.43 137.94 6.9 139.48 6.9 141.38C6.9 139.48 5.35 137.93 3.45 137.93C1.54 137.93 0 139.48 0 141.38C0 143.28 1.54 144.83 3.45 144.83C5.35 144.83 6.9 143.28 6.9 141.38C6.9 143.28 8.44 144.83 10.34 144.83C12.24 144.83 13.79 143.29 13.79 141.39V141.38C13.79 139.48 12.25 137.94 10.35 137.93C12.25 137.93 13.79 136.38 13.79 134.48C13.79 132.58 12.25 131.04 10.34 131.04C12.24 131.04 13.79 129.5 13.79 127.6C13.8 129.5 15.34 131.04 17.24 131.04C19.14 131.04 20.69 129.49 20.69 127.59C20.69 125.68 19.14 124.14 17.24 124.14C15.34 124.14 13.8 125.68 13.79 127.58C13.79 125.68 12.24 124.14 10.34 124.14C12.25 124.14 13.79 122.59 13.79 120.69C13.79 118.79 12.25 117.25 10.35 117.24C10.35 117.24 10.35 117.24 10.34 117.24C10.34 117.24 10.34 117.24 10.33 117.24C8.43 117.24 6.9 115.69 6.9 113.79C6.9 111.89 8.44 110.35 10.34 110.35C12.25 110.35 13.79 111.89 13.79 113.79C13.79 115.7 15.34 117.24 17.24 117.24C19.14 117.24 20.69 115.7 20.69 113.79C20.69 111.89 22.23 110.35 24.14 110.35C26.04 110.35 27.58 111.89 27.58 113.79C27.58 115.7 26.04 117.24 24.14 117.24C26.04 117.24 27.58 118.79 27.58 120.69C27.58 122.59 26.04 124.14 24.14 124.14C22.23 124.14 20.69 122.59 20.69 120.69C20.69 118.79 22.23 117.25 24.13 117.24C22.23 117.24 20.69 115.69 20.69 113.79C20.69 111.89 19.15 110.35 17.25 110.35H17.24C15.34 110.35 13.79 108.8 13.79 106.9C13.79 104.99 15.34 103.45 17.24 103.45C19.14 103.45 20.69 104.99 20.69 106.9C20.69 108.8 19.15 110.34 17.25 110.35H17.24C15.34 110.35 13.79 111.89 13.79 113.79C13.79 115.69 12.25 117.24 10.35 117.24C10.35 117.24 10.35 117.24 10.34 117.24C10.34 117.24 10.34 117.24 10.33 117.24C8.43 117.25 6.9 118.79 6.9 120.69ZM13.79 141.38C13.79 139.48 15.34 137.93 17.24 137.93C19.14 137.93 20.69 139.48 20.69 141.38C20.69 143.28 19.14 144.83 17.24 144.83C15.34 144.83 13.8 143.29 13.79 141.39V141.38ZM27.58 120.69C27.58 122.59 29.13 124.14 31.03 124.14C32.94 124.14 34.48 122.59 34.48 120.69C34.48 118.79 32.94 117.24 31.03 117.24C29.13 117.24 27.58 118.79 27.58 120.69ZM13.79 58.63C13.79 60.53 12.24 62.07 10.34 62.07C8.44 62.07 6.9 60.53 6.9 58.62C6.9 56.72 8.44 55.17 10.34 55.17C12.24 55.17 13.79 56.71 13.79 58.61C13.8 56.71 15.34 55.17 17.24 55.17C19.14 55.17 20.69 56.72 20.69 58.62C20.69 60.53 19.14 62.07 17.24 62.07C15.34 62.07 13.8 60.53 13.79 58.63ZM17.24 62.07C15.34 62.07 13.79 63.61 13.79 65.52C13.79 67.42 15.33 68.96 17.23 68.97H17.24C19.14 68.97 20.69 70.51 20.69 72.42C20.69 74.32 19.14 75.86 17.24 75.86C19.14 75.86 20.69 77.41 20.69 79.31C20.69 81.22 19.14 82.76 17.24 82.76C15.34 82.76 13.79 81.22 13.79 79.31C13.79 77.41 15.34 75.86 17.24 75.86C15.34 75.86 13.79 74.32 13.79 72.42C13.79 70.51 15.33 68.97 17.23 68.97H17.24C19.14 68.97 20.69 67.42 20.69 65.52C20.69 63.61 22.23 62.07 24.14 62.07C26.04 62.07 27.58 63.61 27.58 65.52C27.58 67.42 26.04 68.97 24.14 68.97C22.23 68.97 20.69 67.42 20.69 65.52C20.69 63.61 19.14 62.07 17.24 62.07ZM27.58 93.12C27.58 95.01 26.04 96.55 24.14 96.55C22.23 96.55 20.69 95.01 20.69 93.1C20.69 91.2 22.23 89.66 24.14 89.66C26.04 89.66 27.58 91.19 27.58 93.09C27.59 91.19 29.13 89.66 31.03 89.66C32.94 89.66 34.48 91.2 34.48 93.1C34.48 95.01 32.94 96.55 31.03 96.55C29.13 96.55 27.59 95.01 27.58 93.12ZM27.58 134.5C27.58 136.39 26.04 137.93 24.14 137.93C22.23 137.93 20.69 136.39 20.69 134.48C20.69 132.58 22.23 131.04 24.14 131.04C26.04 131.04 27.58 132.57 27.58 134.47C27.59 132.57 29.13 131.04 31.03 131.04C32.94 131.04 34.48 132.58 34.48 134.48C34.48 134.49 34.48 134.49 34.48 134.5C34.48 136.39 32.94 137.93 31.04 137.93C32.94 137.94 34.48 139.48 34.48 141.38C34.48 139.48 36.02 137.94 37.92 137.93C36.02 137.93 34.49 136.39 34.48 134.5C34.48 134.49 34.48 134.49 34.48 134.48C34.48 132.58 36.03 131.04 37.93 131.04C39.83 131.04 41.38 132.58 41.38 134.48C41.38 136.39 39.83 137.93 37.93 137.93C39.83 137.93 41.38 139.48 41.38 141.38C41.38 139.48 42.92 137.93 44.83 137.93C46.73 137.93 48.27 139.47 48.27 141.37C48.28 139.47 49.82 137.93 51.72 137.93C53.63 137.93 55.17 139.48 55.17 141.38C55.17 143.28 53.63 144.83 51.72 144.83C49.82 144.83 48.27 143.28 48.27 141.38C48.27 143.28 46.73 144.83 44.83 144.83C42.93 144.83 41.38 143.29 41.38 141.39C41.37 143.29 39.83 144.83 37.93 144.83C36.03 144.83 34.49 143.29 34.48 141.39C34.48 143.29 32.93 144.83 31.03 144.83C29.13 144.83 27.58 143.28 27.58 141.38C27.58 139.48 29.12 137.94 31.02 137.93C29.13 137.93 27.59 136.39 27.58 134.5ZM34.48 79.32C34.48 81.22 32.93 82.76 31.03 82.76C29.13 82.76 27.58 81.22 27.58 79.31C27.58 77.41 29.13 75.86 31.03 75.86C32.93 75.86 34.48 77.4 34.48 79.3C34.49 77.4 36.03 75.86 37.93 75.86C39.83 75.86 41.38 77.41 41.38 79.31C41.38 81.22 39.83 82.76 37.93 82.76C36.03 82.76 34.49 81.22 34.48 79.32ZM41.38 113.81C41.37 115.7 39.83 117.24 37.93 117.24C36.03 117.24 34.48 115.7 34.48 113.79C34.48 111.89 36.03 110.35 37.93 110.35C39.83 110.35 41.37 111.88 41.38 113.78C41.38 111.88 42.93 110.35 44.83 110.35C46.73 110.35 48.27 111.89 48.27 113.79C48.27 115.7 46.73 117.24 44.83 117.24C42.93 117.24 41.38 115.7 41.38 113.81ZM48.27 58.62C48.27 56.72 46.73 55.17 44.83 55.17C42.92 55.17 41.38 56.72 41.38 58.62C41.38 60.53 42.92 62.07 44.83 62.07C46.73 62.07 48.27 60.53 48.27 58.62ZM48.27 72.42C48.27 70.51 46.73 68.97 44.83 68.97C42.92 68.97 41.38 70.51 41.38 72.42C41.38 74.32 42.92 75.86 44.83 75.86C46.73 75.86 48.27 74.32 48.27 72.42ZM48.27 86.22C48.27 88.12 46.73 89.66 44.83 89.66C42.92 89.66 41.38 88.11 41.38 86.21C41.38 84.3 42.92 82.76 44.83 82.76C46.73 82.76 48.27 84.3 48.27 86.2C48.28 84.3 49.82 82.76 51.72 82.76C53.63 82.76 55.17 84.3 55.17 86.21C55.17 88.11 53.63 89.66 51.72 89.66C49.82 89.66 48.27 91.2 48.27 93.1C48.27 95.01 49.82 96.55 51.72 96.55C53.63 96.55 55.17 95.01 55.17 93.1C55.17 91.2 53.63 89.66 51.72 89.66C49.82 89.66 48.28 88.12 48.27 86.22ZM48.27 100C48.27 98.1 46.73 96.55 44.83 96.55C42.92 96.55 41.38 98.1 41.38 100C41.38 101.91 42.92 103.45 44.83 103.45C46.73 103.45 48.27 101.91 48.27 100ZM48.27 127.6C48.27 129.5 46.73 131.04 44.83 131.04C42.92 131.04 41.38 129.49 41.38 127.59C41.38 125.68 42.92 124.14 44.83 124.14C46.73 124.14 48.27 125.68 48.27 127.58C48.28 125.68 49.82 124.14 51.72 124.14C53.63 124.14 55.17 122.59 55.17 120.69C55.17 118.79 53.63 117.24 51.72 117.24C49.82 117.24 48.27 118.79 48.27 120.69C48.27 122.59 49.82 124.14 51.72 124.14C53.63 124.14 55.17 125.68 55.17 127.59C55.17 129.49 53.63 131.04 51.72 131.04C49.82 131.04 48.28 129.5 48.27 127.6ZM55.17 106.9C55.17 104.99 53.63 103.45 51.72 103.45C49.82 103.45 48.27 104.99 48.27 106.9C48.27 108.8 49.82 110.35 51.72 110.35C53.63 110.35 55.17 108.8 55.17 106.9ZM62.07 10.35C62.07 8.44 60.52 6.9 58.62 6.9C56.72 6.9 55.17 8.44 55.17 10.35C55.17 12.25 56.72 13.79 58.62 13.79C60.52 13.79 62.07 12.25 62.07 10.35ZM58.62 13.79C56.72 13.79 55.17 15.34 55.17 17.24C55.17 19.15 56.72 20.69 58.62 20.69C56.72 20.69 55.17 22.23 55.17 24.14C55.17 26.04 56.72 27.59 58.62 27.59C60.52 27.59 62.07 26.04 62.07 24.14C62.07 26.04 63.61 27.59 65.52 27.59C67.42 27.59 68.96 26.04 68.96 24.14C68.96 22.23 67.42 20.69 65.52 20.69C63.61 20.69 62.07 22.23 62.07 24.14C62.07 22.23 60.52 20.69 58.62 20.69C60.52 20.69 62.07 19.15 62.07 17.24C62.07 15.34 60.52 13.79 58.62 13.79ZM62.07 37.93C62.07 36.03 60.52 34.48 58.62 34.48C56.72 34.48 55.17 36.03 55.17 37.93C55.17 39.84 56.72 41.38 58.62 41.38C56.72 41.38 55.17 42.92 55.17 44.83C55.17 46.73 56.72 48.28 58.62 48.28C60.52 48.28 62.07 46.73 62.07 44.83C62.07 42.92 60.52 41.38 58.62 41.38C60.52 41.38 62.07 39.84 62.07 37.93C62.07 36.03 63.61 34.48 65.52 34.48C67.42 34.48 68.96 36.03 68.96 37.93C68.96 39.84 67.42 41.38 65.52 41.38C63.61 41.38 62.07 39.84 62.07 37.93ZM62.07 65.52C62.07 63.61 60.52 62.07 58.62 62.07C56.72 62.07 55.17 63.61 55.17 65.52C55.17 67.42 56.72 68.97 58.62 68.97C60.52 68.97 62.07 67.42 62.07 65.52C62.07 67.42 63.61 68.97 65.52 68.97C67.42 68.97 68.96 67.42 68.96 65.52C68.96 67.42 70.51 68.97 72.41 68.97C74.32 68.97 75.86 67.42 75.86 65.52C75.86 67.42 77.41 68.97 79.31 68.97C81.21 68.97 82.76 67.42 82.76 65.52C82.76 63.61 84.3 62.07 86.21 62.07C84.31 62.07 82.76 60.53 82.76 58.63C82.75 60.53 81.21 62.07 79.31 62.07C77.41 62.07 75.86 60.53 75.86 58.62C75.86 60.53 74.32 62.07 72.41 62.07C70.51 62.07 68.96 60.53 68.96 58.62C68.96 56.72 70.51 55.17 72.41 55.17C74.32 55.17 75.86 53.63 75.86 51.72C75.86 49.82 74.32 48.28 72.41 48.28C74.32 48.28 75.86 46.73 75.86 44.83C75.86 42.92 74.32 41.38 72.41 41.38C70.51 41.38 68.96 42.92 68.96 44.83C68.96 46.73 70.51 48.28 72.41 48.28C70.51 48.28 68.96 49.82 68.96 51.72C68.96 53.63 70.51 55.17 72.41 55.17C74.31 55.17 75.85 56.71 75.86 58.61C75.87 56.71 77.41 55.17 79.31 55.17C81.21 55.17 82.76 56.72 82.76 58.62C82.76 56.72 84.3 55.17 86.21 55.17C88.11 55.17 89.65 53.63 89.65 51.72C89.65 49.82 88.11 48.28 86.21 48.28C84.3 48.28 82.76 46.73 82.76 44.83C82.76 42.92 84.3 41.38 86.21 41.38C88.11 41.38 89.65 42.92 89.65 44.83C89.65 46.73 88.11 48.28 86.21 48.28C84.3 48.28 82.76 49.82 82.76 51.72C82.76 53.63 84.3 55.17 86.21 55.17C88.11 55.17 89.65 56.72 89.65 58.62C89.65 60.53 88.11 62.07 86.21 62.07C88.11 62.07 89.65 63.61 89.65 65.52C89.65 67.42 88.11 68.97 86.21 68.97C84.3 68.97 82.76 67.42 82.76 65.52C82.76 63.61 81.21 62.07 79.31 62.07C77.41 62.07 75.86 63.61 75.86 65.52C75.86 63.61 74.32 62.07 72.41 62.07C70.51 62.07 68.96 63.61 68.96 65.52C68.96 63.61 67.42 62.07 65.52 62.07C63.61 62.07 62.07 63.61 62.07 65.52ZM89.65 51.72C89.65 49.82 91.2 48.28 93.1 48.28C95.01 48.28 96.55 49.82 96.55 51.72C96.55 53.63 95.01 55.17 93.1 55.17C91.2 55.17 89.65 53.63 89.65 51.72ZM62.07 113.79C62.07 111.89 60.52 110.35 58.62 110.35C56.72 110.35 55.17 111.89 55.17 113.79C55.17 115.7 56.72 117.24 58.62 117.24C60.52 117.24 62.07 115.7 62.07 113.79C62.07 115.7 63.61 117.24 65.52 117.24C63.61 117.24 62.07 118.79 62.07 120.69C62.07 122.59 63.61 124.14 65.52 124.14C67.42 124.14 68.96 122.59 68.96 120.69C68.96 118.79 67.42 117.24 65.52 117.24C67.42 117.24 68.96 115.7 68.96 113.79C68.96 111.89 67.42 110.35 65.52 110.35C67.42 110.35 68.96 108.8 68.96 106.9C68.96 105 67.43 103.46 65.53 103.45C67.43 103.44 68.96 101.9 68.96 100C68.96 98.1 67.42 96.55 65.52 96.55C63.61 96.55 62.07 98.1 62.07 100C62.07 101.9 63.61 103.44 65.5 103.45C63.61 103.46 62.07 105 62.07 106.9C62.07 108.8 63.61 110.35 65.52 110.35C63.61 110.35 62.07 111.89 62.07 113.79ZM62.07 182.76C62.07 180.86 60.52 179.31 58.62 179.31C56.72 179.31 55.17 180.86 55.17 182.76C55.17 184.66 56.72 186.21 58.62 186.21C56.72 186.21 55.17 187.75 55.17 189.66C55.17 191.56 56.72 193.1 58.62 193.1C60.52 193.1 62.07 191.56 62.07 189.66C62.07 187.75 60.52 186.21 58.62 186.21C60.52 186.21 62.07 184.66 62.07 182.76ZM68.96 3.46C68.96 5.36 67.42 6.9 65.52 6.9C63.61 6.9 62.07 5.35 62.07 3.45C62.07 1.54 63.61 0 65.52 0C67.42 0 68.96 1.54 68.96 3.44C68.97 1.54 70.51 0 72.41 0C74.32 0 75.86 1.54 75.86 3.45C75.86 1.54 77.41 0 79.31 0C81.21 0 82.76 1.54 82.76 3.45C82.76 5.35 81.21 6.9 79.31 6.9C77.41 6.9 75.87 5.36 75.86 3.46C75.85 5.36 74.31 6.9 72.41 6.9C74.32 6.9 75.86 8.44 75.86 10.35C75.86 12.25 74.32 13.79 72.41 13.79C70.51 13.79 68.96 12.25 68.96 10.35C68.96 8.44 70.51 6.9 72.41 6.9C70.51 6.9 68.97 5.36 68.96 3.46ZM68.96 79.31C68.96 77.41 67.42 75.86 65.52 75.86C63.61 75.86 62.07 77.41 62.07 79.31C62.07 81.22 63.61 82.76 65.52 82.76C67.42 82.76 68.96 81.22 68.96 79.31ZM68.96 155.17C68.96 153.27 67.42 151.73 65.52 151.73C63.61 151.73 62.07 153.27 62.07 155.17C62.07 157.08 63.61 158.62 65.52 158.62C63.61 158.62 62.07 160.17 62.07 162.07C62.07 163.97 63.61 165.51 65.5 165.52C65.51 165.52 65.51 165.52 65.52 165.52C65.52 165.52 65.52 165.52 65.53 165.52C67.43 165.51 68.96 163.97 68.96 162.07C68.96 160.17 67.42 158.62 65.52 158.62C67.42 158.62 68.96 157.08 68.96 155.17C68.96 157.08 70.51 158.62 72.41 158.62C70.51 158.62 68.96 160.17 68.96 162.07C68.96 163.97 70.51 165.52 72.41 165.52C74.32 165.52 75.86 163.97 75.86 162.07C75.86 160.17 74.32 158.62 72.41 158.62C74.32 158.62 75.86 157.08 75.86 155.17C75.86 153.27 74.32 151.73 72.41 151.73C70.51 151.73 68.96 153.27 68.96 155.17ZM65.5 165.52C63.61 165.52 62.07 167.07 62.07 168.97C62.07 170.87 63.61 172.41 65.5 172.42C63.61 172.42 62.07 173.96 62.07 175.86C62.07 177.77 63.61 179.31 65.52 179.31C67.42 179.31 68.96 177.77 68.96 175.86C68.96 175.86 68.96 175.86 68.96 175.85C68.96 173.96 67.42 172.42 65.53 172.42C67.43 172.41 68.96 170.87 68.96 168.97C68.96 167.07 67.43 165.52 65.53 165.52C65.52 165.52 65.52 165.52 65.52 165.52C65.51 165.52 65.51 165.52 65.5 165.52ZM68.96 175.86C68.96 177.76 70.5 179.31 72.4 179.31H72.41C74.32 179.31 75.86 180.86 75.86 182.76C75.86 184.66 74.32 186.21 72.41 186.21C70.51 186.21 68.96 187.75 68.96 189.66C68.96 191.56 70.51 193.1 72.41 193.1C74.32 193.1 75.86 191.56 75.86 189.66C75.86 187.75 74.32 186.21 72.41 186.21C70.51 186.21 68.96 184.66 68.96 182.76C68.96 180.86 70.5 179.32 72.4 179.31H72.41C74.32 179.31 75.86 177.77 75.86 175.86C75.86 175.86 75.86 175.86 75.86 175.85C75.85 173.95 74.31 172.42 72.41 172.42C70.51 172.42 68.96 170.87 68.96 168.97C68.96 167.06 70.51 165.52 72.41 165.52C74.32 165.52 75.86 167.06 75.86 168.97C75.86 170.87 74.32 172.42 72.41 172.42C70.51 172.42 68.97 173.95 68.96 175.85C68.96 175.86 68.96 175.86 68.96 175.86ZM75.86 175.86C75.86 175.86 75.86 175.86 75.86 175.85C75.87 173.95 77.41 172.42 79.31 172.42C81.21 172.42 82.76 173.96 82.76 175.86C82.76 177.77 81.21 179.31 79.31 179.31C77.41 179.31 75.86 177.77 75.86 175.86ZM68.96 196.55C68.96 194.65 67.42 193.1 65.52 193.1C63.61 193.1 62.07 194.65 62.07 196.55C62.07 198.46 63.61 200 65.52 200C67.42 200 68.96 198.46 68.96 196.55ZM75.86 31.03C75.86 29.13 74.32 27.59 72.41 27.59C70.51 27.59 68.96 29.13 68.96 31.03C68.96 32.94 70.51 34.48 72.41 34.48C74.32 34.48 75.86 32.94 75.86 31.03ZM82.76 141.38C82.76 139.48 81.21 137.93 79.31 137.93C77.41 137.93 75.86 139.48 75.86 141.38C75.86 143.28 77.41 144.83 79.31 144.83C81.21 144.83 82.76 143.28 82.76 141.38ZM82.76 196.57C82.75 198.46 81.21 200 79.31 200C77.41 200 75.86 198.46 75.86 196.55C75.86 194.65 77.41 193.1 79.31 193.1C81.21 193.1 82.75 194.64 82.76 196.54C82.76 194.64 84.31 193.1 86.21 193.1C88.11 193.1 89.65 191.56 89.65 189.66C89.65 189.65 89.65 189.65 89.65 189.65C89.66 187.75 91.2 186.21 93.1 186.21C91.2 186.21 89.66 184.67 89.65 182.77V182.76C89.65 180.86 91.2 179.31 93.1 179.31C95.01 179.31 96.55 177.77 96.55 175.86C96.55 175.86 96.55 175.86 96.55 175.85C96.54 173.95 95 172.42 93.1 172.42C91.2 172.42 89.65 173.96 89.65 175.86C89.65 177.77 91.2 179.31 93.1 179.31C95.01 179.31 96.55 180.86 96.55 182.76C96.55 184.66 95.01 186.21 93.1 186.21C95.01 186.21 96.55 187.75 96.55 189.66C96.55 191.56 98.09 193.1 100 193.1H100.01C101.91 193.11 103.44 194.65 103.45 196.54C103.45 194.64 104.99 193.1 106.9 193.1C104.99 193.1 103.45 191.57 103.45 189.67C103.44 191.56 101.91 193.1 100.01 193.1H100C98.1 193.1 96.56 194.64 96.55 196.54C96.54 194.64 95 193.1 93.1 193.1C91.2 193.1 89.65 194.65 89.65 196.55C89.65 194.65 88.11 193.1 86.21 193.1C84.3 193.1 82.76 191.56 82.76 189.66C82.76 187.75 84.3 186.21 86.21 186.21C84.3 186.21 82.76 184.66 82.76 182.76C82.76 180.86 84.3 179.31 86.21 179.31C88.11 179.31 89.65 180.86 89.65 182.76V182.77C89.65 184.67 88.11 186.21 86.21 186.21C88.11 186.21 89.65 187.75 89.65 189.65C89.65 189.65 89.65 189.65 89.65 189.66C89.65 191.56 91.2 193.1 93.1 193.1C95.01 193.1 96.55 191.56 96.55 189.66C96.55 187.75 98.09 186.21 100 186.21C101.9 186.21 103.44 187.75 103.45 189.65C103.45 187.75 104.99 186.21 106.9 186.21C108.8 186.21 110.34 187.75 110.34 189.66C110.34 191.56 108.8 193.1 106.9 193.1C108.8 193.1 110.34 194.65 110.34 196.55C110.34 198.46 108.8 200 106.9 200C104.99 200 103.45 198.46 103.45 196.57C103.44 198.46 101.9 200 100 200C98.09 200 96.55 198.46 96.55 196.55C96.55 198.46 95.01 200 93.1 200C91.2 200 89.65 198.46 89.65 196.55C89.65 198.46 88.11 200 86.21 200C84.31 200 82.76 198.46 82.76 196.57ZM96.55 175.86C96.55 177.77 98.09 179.31 100 179.31C101.9 179.31 103.44 177.77 103.45 175.87C103.45 177.77 104.99 179.31 106.9 179.31C108.8 179.31 110.34 177.77 110.34 175.86C110.34 173.96 108.8 172.42 106.9 172.42C108.79 172.42 110.33 170.88 110.34 168.98C110.35 170.88 111.89 172.42 113.79 172.42C115.7 172.42 117.24 173.96 117.24 175.86C117.24 177.77 115.7 179.31 113.79 179.31C111.89 179.31 110.34 177.77 110.34 175.86C110.34 173.96 111.89 172.42 113.79 172.42C115.7 172.42 117.24 170.87 117.24 168.97C117.24 167.06 115.7 165.52 113.79 165.52C111.89 165.52 110.34 167.06 110.34 168.97C110.34 167.06 108.8 165.52 106.9 165.52C104.99 165.52 103.45 167.06 103.45 168.96C103.44 167.06 101.9 165.52 100 165.52C98.1 165.52 96.56 163.98 96.55 162.08C96.54 163.98 95 165.52 93.1 165.52C91.2 165.52 89.66 163.98 89.65 162.08C89.65 163.98 88.11 165.52 86.21 165.52C84.3 165.52 82.76 163.97 82.76 162.07C82.76 160.17 84.3 158.62 86.21 158.62C88.11 158.62 89.65 160.16 89.65 162.06C89.66 160.16 91.2 158.62 93.1 158.62C95.01 158.62 96.55 160.17 96.55 162.07C96.55 160.17 98.09 158.62 100 158.62C101.9 158.62 103.45 160.17 103.45 162.07C103.45 163.97 101.9 165.52 100 165.52C98.09 165.52 96.55 167.06 96.55 168.97C96.55 170.87 98.09 172.42 100 172.42C98.1 172.42 96.56 173.95 96.55 175.85C96.55 175.86 96.55 175.86 96.55 175.86ZM100 158.62C101.9 158.62 103.44 157.08 103.45 155.19C103.45 157.08 104.99 158.62 106.9 158.62C108.8 158.62 110.34 157.08 110.34 155.17C110.34 153.27 108.8 151.73 106.9 151.73C104.99 151.73 103.45 153.26 103.45 155.16C103.44 153.26 101.9 151.73 100 151.73C98.09 151.73 96.55 150.18 96.55 148.28C96.55 146.37 98.09 144.83 100 144.83C101.9 144.83 103.44 143.29 103.45 141.39C103.45 143.29 104.99 144.83 106.9 144.83C108.8 144.83 110.34 146.37 110.34 148.28C110.34 150.18 111.89 151.73 113.79 151.73C115.7 151.73 117.24 150.18 117.24 148.28C117.24 146.37 115.7 144.83 113.79 144.83C111.89 144.83 110.35 143.29 110.34 141.39C110.34 143.29 108.8 144.83 106.9 144.83C104.99 144.83 103.45 146.37 103.45 148.26C103.44 146.37 101.9 144.83 100 144.83C98.09 144.83 96.55 143.28 96.55 141.38C96.55 139.48 98.09 137.93 100 137.93H100.01C101.91 137.93 103.45 136.38 103.45 134.48C103.45 132.58 101.9 131.04 100 131.04C98.09 131.04 96.55 132.58 96.55 134.48C96.55 132.58 95.01 131.04 93.1 131.04C91.2 131.04 89.66 132.57 89.65 134.47C89.65 132.57 88.11 131.04 86.21 131.04C84.3 131.04 82.76 132.58 82.76 134.48C82.76 136.39 84.3 137.93 86.21 137.93C88.11 137.93 89.65 136.39 89.65 134.5C89.66 136.39 91.2 137.93 93.1 137.93C95.01 137.93 96.55 136.39 96.55 134.48C96.55 136.39 98.09 137.93 100 137.93H100.01C101.91 137.94 103.44 139.47 103.45 141.37C103.45 139.47 104.99 137.93 106.9 137.93C108.8 137.93 110.34 139.47 110.34 141.37C110.35 139.47 111.89 137.93 113.79 137.93C115.7 137.93 117.24 139.48 117.24 141.38C117.24 143.28 115.7 144.83 113.79 144.83C111.89 144.83 110.34 146.37 110.34 148.28C110.34 150.18 108.8 151.73 106.9 151.73C104.99 151.73 103.45 150.19 103.45 148.29C103.44 150.19 101.9 151.73 100 151.73C98.09 151.73 96.55 153.27 96.55 155.17C96.55 153.27 95.01 151.73 93.1 151.73C91.2 151.73 89.65 153.27 89.65 155.17C89.65 157.08 91.2 158.62 93.1 158.62C95.01 158.62 96.55 157.08 96.55 155.17C96.55 157.08 98.09 158.62 100 158.62ZM100.01 172.42C101.91 172.41 103.44 170.87 103.45 168.98C103.45 170.87 104.99 172.41 106.88 172.42C104.99 172.42 103.45 173.96 103.45 175.85C103.44 173.96 101.91 172.42 100.01 172.42ZM89.65 10.35C89.65 8.44 88.11 6.9 86.21 6.9C84.3 6.9 82.76 8.44 82.76 10.35C82.76 12.25 84.3 13.79 86.21 13.79C88.11 13.79 89.65 12.25 89.65 10.35ZM86.21 13.79C84.3 13.79 82.76 15.34 82.76 17.24C82.76 19.15 84.3 20.69 86.21 20.69C84.3 20.69 82.76 22.23 82.76 24.14C82.76 26.04 84.3 27.59 86.21 27.59C88.11 27.59 89.65 26.04 89.65 24.14C89.65 26.04 91.2 27.59 93.1 27.59C95.01 27.59 96.55 26.04 96.55 24.14C96.55 22.23 95.01 20.69 93.1 20.69C95.01 20.69 96.55 19.15 96.55 17.24C96.55 19.15 98.09 20.69 100 20.69C101.9 20.69 103.45 19.15 103.45 17.24C103.45 15.34 101.9 13.79 100 13.79C98.09 13.79 96.55 12.25 96.55 10.35C96.55 8.44 98.09 6.9 100 6.9C98.09 6.9 96.55 5.35 96.55 3.45C96.55 1.54 98.09 0 100 0C101.9 0 103.44 1.54 103.45 3.44C103.45 1.54 104.99 0 106.9 0C108.8 0 110.34 1.54 110.34 3.45C110.34 1.54 111.89 0 113.79 0C115.7 0 117.24 1.54 117.24 3.45C117.24 5.35 115.7 6.9 113.79 6.9C111.89 6.9 110.35 5.36 110.34 3.46C110.34 5.36 108.8 6.9 106.9 6.9C104.99 6.9 103.45 5.36 103.45 3.46C103.44 5.36 101.9 6.9 100 6.9C101.9 6.9 103.45 8.44 103.45 10.35C103.45 12.25 101.9 13.79 100 13.79C98.09 13.79 96.55 15.34 96.55 17.24C96.55 15.34 95.01 13.79 93.1 13.79C91.2 13.79 89.65 15.34 89.65 17.24C89.65 19.15 91.2 20.69 93.1 20.69C91.2 20.69 89.65 22.23 89.65 24.14C89.65 22.23 88.11 20.69 86.21 20.69C88.11 20.69 89.65 19.15 89.65 17.24C89.65 15.34 88.11 13.79 86.21 13.79ZM89.65 148.28C89.65 146.37 88.11 144.83 86.21 144.83C84.3 144.83 82.76 146.37 82.76 148.28C82.76 150.18 84.3 151.73 86.21 151.73C88.11 151.73 89.65 150.18 89.65 148.28ZM96.55 37.93C96.55 36.03 95.01 34.48 93.1 34.48C91.2 34.48 89.65 36.03 89.65 37.93C89.65 39.84 91.2 41.38 93.1 41.38C95.01 41.38 96.55 39.84 96.55 37.93ZM103.45 44.83C103.45 42.92 101.9 41.38 100 41.38C98.09 41.38 96.55 42.92 96.55 44.83C96.55 46.73 98.09 48.28 100 48.28C101.9 48.28 103.45 46.73 103.45 44.83ZM110.34 24.14C110.34 22.23 108.8 20.69 106.9 20.69C104.99 20.69 103.45 22.23 103.45 24.14C103.45 26.04 104.99 27.59 106.9 27.59C108.8 27.59 110.34 26.04 110.34 24.14ZM106.9 27.59C104.99 27.59 103.45 29.13 103.45 31.03C103.45 32.94 104.99 34.48 106.9 34.48C108.8 34.48 110.34 32.94 110.34 31.03C110.34 29.13 108.8 27.59 106.9 27.59ZM110.34 31.03C110.34 32.94 111.89 34.48 113.79 34.48C115.7 34.48 117.24 32.94 117.24 31.03C117.24 29.13 115.7 27.59 113.79 27.59C111.89 27.59 110.34 29.13 110.34 31.03ZM113.79 34.48C115.7 34.48 117.24 36.03 117.24 37.93C117.24 39.84 115.7 41.38 113.79 41.38C111.89 41.38 110.34 39.84 110.34 37.93C110.34 36.03 111.89 34.48 113.79 34.48ZM113.79 41.38C115.7 41.38 117.24 42.92 117.24 44.83C117.24 46.73 115.7 48.28 113.79 48.28C111.89 48.28 110.34 46.73 110.34 44.83C110.34 42.92 111.89 41.38 113.79 41.38ZM117.24 31.03C117.24 29.13 118.78 27.59 120.69 27.59C122.59 27.59 124.14 29.13 124.14 31.03C124.14 32.94 122.59 34.48 120.69 34.48C118.78 34.48 117.24 32.94 117.24 31.03ZM110.34 51.72C110.34 49.82 108.8 48.28 106.9 48.28C104.99 48.28 103.45 49.82 103.45 51.72C103.45 53.63 104.99 55.17 106.9 55.17C108.8 55.17 110.34 53.63 110.34 51.72ZM106.9 55.17C104.99 55.17 103.45 56.72 103.45 58.62C103.45 60.53 104.99 62.07 106.9 62.07C104.99 62.07 103.45 63.61 103.45 65.52C103.45 67.42 104.99 68.97 106.9 68.97C108.8 68.97 110.34 67.42 110.34 65.52C110.34 63.61 111.89 62.07 113.79 62.07C115.7 62.07 117.24 63.61 117.24 65.52C117.24 63.61 118.78 62.07 120.69 62.07C122.59 62.07 124.14 63.61 124.14 65.52V65.53C124.14 67.43 125.69 68.97 127.58 68.97C129.49 68.97 131.03 67.42 131.03 65.52C131.03 63.61 129.49 62.07 127.58 62.07C125.68 62.07 124.14 60.53 124.14 58.62C124.14 60.53 122.59 62.07 120.69 62.07C118.78 62.07 117.24 60.53 117.24 58.62C117.24 56.72 118.78 55.17 120.69 55.17C122.59 55.17 124.14 53.63 124.14 51.72C124.14 49.82 125.68 48.28 127.58 48.28C125.68 48.28 124.14 46.73 124.14 44.83C124.14 42.92 125.68 41.38 127.58 41.38C129.49 41.38 131.03 42.92 131.03 44.83C131.03 46.73 129.49 48.28 127.58 48.28C129.49 48.28 131.03 49.82 131.03 51.72C131.03 53.63 129.49 55.17 127.58 55.17C125.68 55.17 124.14 53.63 124.14 51.72C124.14 49.82 122.59 48.28 120.69 48.28C118.78 48.28 117.24 49.82 117.24 51.72C117.24 53.63 118.78 55.17 120.69 55.17C122.59 55.17 124.14 56.72 124.14 58.62C124.14 56.72 125.68 55.17 127.58 55.17C129.49 55.17 131.03 56.72 131.03 58.62C131.03 58.63 131.03 58.63 131.03 58.63C131.03 60.53 129.49 62.07 127.58 62.07C125.68 62.07 124.14 63.61 124.14 65.52V65.53C124.13 67.43 122.59 68.97 120.69 68.97C118.78 68.97 117.24 67.42 117.24 65.52C117.24 67.42 115.7 68.97 113.79 68.97C111.89 68.97 110.34 67.42 110.34 65.52C110.34 63.61 108.8 62.07 106.9 62.07C108.8 62.07 110.34 60.53 110.34 58.62C110.34 56.72 108.8 55.17 106.9 55.17ZM131.03 58.62C131.03 56.72 132.58 55.17 134.48 55.17C136.39 55.17 137.93 56.72 137.93 58.62C137.93 60.53 136.39 62.07 134.48 62.07C132.58 62.07 131.03 63.61 131.03 65.52C131.03 67.42 132.57 68.96 134.47 68.97H134.48C136.39 68.97 137.93 70.51 137.93 72.42C137.93 74.32 136.39 75.86 134.48 75.86C132.58 75.86 131.03 74.32 131.03 72.42C131.03 70.51 132.57 68.97 134.47 68.97H134.48C136.39 68.97 137.93 67.42 137.93 65.52C137.93 63.61 136.39 62.07 134.48 62.07C132.58 62.07 131.04 60.53 131.03 58.63C131.03 58.63 131.03 58.63 131.03 58.62ZM134.48 75.86C132.58 75.86 131.03 77.41 131.03 79.31C131.03 81.22 132.58 82.76 134.48 82.76C136.39 82.76 137.93 81.22 137.93 79.31C137.93 77.41 136.39 75.86 134.48 75.86ZM137.93 65.52C137.93 67.42 139.48 68.97 141.38 68.97C143.28 68.97 144.83 67.42 144.83 65.52C144.83 63.61 143.28 62.07 141.38 62.07C139.48 62.07 137.93 63.61 137.93 65.52ZM124.14 17.24C124.14 15.34 122.59 13.79 120.69 13.79C118.78 13.79 117.24 15.34 117.24 17.24C117.24 19.15 118.78 20.69 120.69 20.69C122.59 20.69 124.14 19.15 124.14 17.24C124.14 15.34 125.68 13.79 127.58 13.79C129.49 13.79 131.03 15.33 131.03 17.23C131.04 15.33 132.58 13.79 134.48 13.79C136.39 13.79 137.93 15.34 137.93 17.24C137.93 19.15 136.39 20.69 134.48 20.69C132.58 20.69 131.04 19.15 131.03 17.25C131.03 19.15 129.49 20.69 127.58 20.69C125.68 20.69 124.14 19.15 124.14 17.24ZM134.48 20.69C136.39 20.69 137.93 22.23 137.93 24.14C137.93 26.04 136.39 27.59 134.48 27.59C132.58 27.59 131.03 26.04 131.03 24.14C131.03 22.23 132.58 20.69 134.48 20.69ZM124.14 162.07C124.14 160.17 122.59 158.62 120.69 158.62C118.78 158.62 117.24 160.17 117.24 162.07C117.24 163.97 118.78 165.52 120.69 165.52C122.59 165.52 124.14 163.97 124.14 162.07C124.14 163.97 125.68 165.51 127.57 165.52C125.68 165.52 124.14 167.07 124.14 168.97C124.14 170.87 125.68 172.41 127.57 172.42C125.68 172.42 124.14 173.96 124.14 175.86C124.14 177.76 125.68 179.31 127.57 179.31C125.68 179.32 124.14 180.85 124.14 182.75V182.76C124.14 184.66 122.59 186.21 120.69 186.21C118.78 186.21 117.24 184.66 117.24 182.76C117.24 180.86 118.78 179.31 120.69 179.31C122.59 179.31 124.13 180.85 124.14 182.75V182.76C124.14 184.66 125.68 186.21 127.58 186.21C129.49 186.21 131.03 184.66 131.03 182.76C131.03 180.86 132.58 179.31 134.48 179.31C136.39 179.31 137.93 180.86 137.93 182.76V182.77C137.92 184.67 136.38 186.21 134.48 186.21C132.58 186.21 131.03 184.66 131.03 182.76C131.03 180.86 129.5 179.32 127.6 179.31C129.49 179.31 131.03 177.77 131.03 175.87C131.03 175.87 131.03 175.87 131.03 175.86C131.03 173.96 132.58 172.42 134.48 172.42C136.39 172.42 137.93 173.96 137.93 175.86C137.93 177.77 136.39 179.31 134.48 179.31C132.58 179.31 131.04 177.77 131.03 175.87C131.03 175.87 131.03 175.87 131.03 175.86C131.03 173.96 129.5 172.42 127.6 172.42C129.5 172.41 131.03 170.87 131.03 168.97C131.03 167.07 129.5 165.52 127.6 165.52C129.5 165.51 131.03 163.97 131.03 162.07C131.03 160.17 129.49 158.62 127.58 158.62C125.68 158.62 124.14 160.17 124.14 162.07ZM127.58 158.62C129.49 158.62 131.03 157.08 131.03 155.17C131.03 153.27 129.49 151.73 127.58 151.73C125.68 151.73 124.14 153.27 124.14 155.17C124.14 157.08 125.68 158.62 127.58 158.62ZM131.03 155.17C131.03 153.27 132.57 151.73 134.47 151.73C132.57 151.72 131.03 150.18 131.03 148.28C131.03 146.37 132.58 144.83 134.48 144.83C136.39 144.83 137.93 146.37 137.93 148.28C137.93 150.18 139.48 151.73 141.38 151.73C143.28 151.73 144.83 150.18 144.83 148.28C144.83 146.37 143.28 144.83 141.38 144.83C139.48 144.83 137.93 143.28 137.93 141.38C137.93 143.28 136.39 144.83 134.48 144.83C132.58 144.83 131.03 143.28 131.03 141.38C131.03 139.48 129.49 137.93 127.58 137.93C125.68 137.93 124.14 139.48 124.14 141.38C124.14 143.28 125.68 144.83 127.58 144.83C129.49 144.83 131.03 143.28 131.03 141.38C131.03 139.48 132.58 137.93 134.48 137.93C136.39 137.93 137.93 136.39 137.93 134.48C137.93 132.58 136.39 131.04 134.48 131.04C132.58 131.04 131.03 132.58 131.03 134.48C131.03 136.39 132.58 137.93 134.48 137.93C136.39 137.93 137.93 139.48 137.93 141.38C137.93 139.48 139.48 137.93 141.38 137.93C143.28 137.93 144.83 139.48 144.83 141.38C144.83 143.28 146.37 144.83 148.28 144.83C150.18 144.83 151.72 143.29 151.72 141.39V141.38C151.72 139.48 153.27 137.93 155.17 137.93C157.08 137.93 158.62 139.48 158.62 141.38C158.62 143.28 157.08 144.83 155.17 144.83C153.27 144.83 151.73 143.29 151.72 141.39V141.38C151.72 139.48 150.18 137.93 148.28 137.93C146.37 137.93 144.83 139.48 144.83 141.38C144.83 143.28 143.28 144.83 141.38 144.83C139.48 144.83 137.93 146.37 137.93 148.28C137.93 150.18 136.39 151.73 134.48 151.73C136.38 151.73 137.92 153.26 137.93 155.16C137.94 153.26 139.48 151.73 141.38 151.73C143.28 151.73 144.83 153.27 144.83 155.17C144.83 157.08 143.28 158.62 141.38 158.62C139.48 158.62 137.94 157.08 137.93 155.19C137.92 157.08 136.38 158.62 134.48 158.62C132.58 158.62 131.03 157.08 131.03 155.17ZM141.38 137.93C143.28 137.93 144.83 136.39 144.83 134.48C144.83 132.58 143.28 131.04 141.38 131.04C139.48 131.04 137.93 129.49 137.93 127.59C137.93 129.49 136.39 131.04 134.48 131.04C132.58 131.04 131.03 129.49 131.03 127.59C131.03 125.68 132.58 124.14 134.48 124.14C136.38 124.14 137.92 122.6 137.93 120.7C137.94 122.6 139.47 124.13 141.37 124.14C139.47 124.15 137.94 125.68 137.93 127.58C137.92 125.68 136.38 124.14 134.48 124.14C132.58 124.14 131.03 122.59 131.03 120.69C131.03 118.79 132.58 117.24 134.48 117.24C136.39 117.24 137.93 118.79 137.93 120.69C137.93 118.79 139.48 117.24 141.38 117.24C139.48 117.24 137.93 115.7 137.93 113.79C137.93 111.89 139.48 110.35 141.38 110.35C143.28 110.35 144.83 111.89 144.83 113.79C144.83 115.69 143.29 117.24 141.39 117.24C143.29 117.25 144.83 118.79 144.83 120.69C144.83 122.59 143.29 124.13 141.39 124.14C143.29 124.15 144.83 125.69 144.83 127.59C144.83 129.49 146.37 131.04 148.28 131.04C150.18 131.04 151.72 129.49 151.72 127.59C151.72 125.68 150.18 124.14 148.28 124.14C146.37 124.14 144.83 125.68 144.83 127.59C144.83 129.49 143.28 131.04 141.38 131.04C139.48 131.04 137.93 132.58 137.93 134.48C137.93 136.39 139.48 137.93 141.38 137.93ZM141.38 158.62C139.48 158.62 137.93 160.17 137.93 162.07C137.93 163.97 139.48 165.52 141.38 165.52H141.39C143.29 165.51 144.83 163.97 144.83 162.07C144.83 160.17 143.28 158.62 141.38 158.62ZM141.38 165.52H141.39C143.29 165.52 144.83 167.07 144.83 168.97C144.83 167.06 146.37 165.52 148.28 165.52C150.18 165.52 151.72 167.06 151.72 168.96C151.73 167.06 153.27 165.52 155.17 165.52C157.07 165.52 158.61 167.06 158.62 168.96C158.62 168.96 158.62 168.96 158.62 168.97C158.62 168.97 158.62 168.97 158.62 168.98C158.63 170.88 160.17 172.42 162.07 172.42C163.97 172.42 165.51 170.88 165.52 168.98C165.52 170.88 167.06 172.42 168.97 172.42C167.06 172.42 165.52 173.96 165.52 175.86C165.52 177.77 167.06 179.31 168.97 179.31C167.06 179.31 165.52 180.86 165.52 182.76C165.52 184.66 167.06 186.21 168.97 186.21C170.87 186.21 172.41 184.67 172.41 182.77C172.42 184.67 173.96 186.21 175.86 186.21C177.77 186.21 179.31 187.75 179.31 189.66C179.31 191.56 177.77 193.1 175.86 193.1C173.96 193.1 172.41 191.56 172.41 189.66C172.41 187.75 173.96 186.21 175.86 186.21C177.76 186.21 179.3 184.67 179.31 182.77V182.76V182.75C179.32 180.85 180.86 179.31 182.76 179.31C184.66 179.31 186.21 180.86 186.21 182.76C186.21 184.66 184.66 186.21 182.76 186.21C180.86 186.21 179.32 184.67 179.31 182.77V182.76V182.75C179.3 180.85 177.76 179.31 175.86 179.31C173.96 179.31 172.41 180.86 172.41 182.76C172.41 180.86 170.87 179.31 168.97 179.31C170.87 179.31 172.41 177.77 172.41 175.86C172.41 173.96 170.87 172.42 168.97 172.42C170.87 172.42 172.41 170.88 172.41 168.98C172.42 170.88 173.96 172.42 175.86 172.42C177.77 172.42 179.31 170.87 179.31 168.97C179.31 167.06 177.77 165.52 175.86 165.52C173.96 165.52 172.42 167.06 172.41 168.96C172.41 167.06 170.87 165.52 168.97 165.52C167.06 165.52 165.52 163.97 165.52 162.07C165.52 160.17 167.05 158.63 168.95 158.62C167.05 158.62 165.52 157.07 165.52 155.17C165.52 153.27 167.05 151.73 168.95 151.73C167.05 151.72 165.52 150.18 165.52 148.28C165.52 146.37 167.06 144.83 168.97 144.83C170.87 144.83 172.41 143.28 172.41 141.38C172.41 139.48 170.87 137.93 168.97 137.93C167.06 137.93 165.52 139.48 165.52 141.38C165.52 143.28 163.97 144.83 162.07 144.83C160.16 144.83 158.62 143.28 158.62 141.38C158.62 139.48 160.16 137.93 162.07 137.93C163.97 137.93 165.52 139.48 165.52 141.38C165.52 143.28 167.06 144.83 168.97 144.83C170.87 144.83 172.41 146.37 172.41 148.28C172.41 150.18 170.87 151.73 168.97 151.73C170.87 151.73 172.41 153.27 172.41 155.17C172.41 157.07 170.87 158.62 168.98 158.62C170.87 158.63 172.41 160.17 172.41 162.07C172.41 163.97 170.87 165.52 168.97 165.52C167.06 165.52 165.52 167.06 165.52 168.96C165.51 167.06 163.97 165.52 162.07 165.52C160.17 165.52 158.63 167.06 158.62 168.96C158.62 168.96 158.62 168.96 158.62 168.97C158.62 168.97 158.62 168.97 158.62 168.98C158.61 170.88 157.07 172.42 155.17 172.42C153.27 172.42 151.72 170.87 151.72 168.97C151.72 170.87 150.19 172.41 148.29 172.42C150.19 172.42 151.72 173.96 151.72 175.86C151.72 177.77 150.18 179.31 148.28 179.31C146.37 179.31 144.83 177.77 144.83 175.86C144.83 173.96 146.36 172.42 148.26 172.42C146.36 172.41 144.83 170.87 144.83 168.97C144.83 170.87 143.28 172.42 141.38 172.42C139.48 172.42 137.93 170.87 137.93 168.97C137.93 167.06 139.48 165.52 141.38 165.52ZM137.93 182.76C137.93 180.86 139.48 179.31 141.38 179.31C143.28 179.31 144.83 180.86 144.83 182.76C144.83 184.66 143.28 186.21 141.38 186.21C139.48 186.21 137.94 184.67 137.93 182.77V182.76ZM155.17 137.93C153.27 137.93 151.72 136.39 151.72 134.48C151.72 132.58 153.27 131.04 155.17 131.04C157.08 131.04 158.62 132.58 158.62 134.48C158.62 136.39 157.08 137.93 155.17 137.93ZM131.03 3.45C131.03 1.54 129.49 0 127.58 0C125.68 0 124.14 1.54 124.14 3.45C124.14 5.35 125.68 6.9 127.58 6.9C129.49 6.9 131.03 5.35 131.03 3.45ZM137.93 37.93C137.93 36.03 136.39 34.48 134.48 34.48C132.58 34.48 131.03 36.03 131.03 37.93C131.03 39.84 132.58 41.38 134.48 41.38C136.39 41.38 137.93 39.84 137.93 37.93C137.93 39.84 139.48 41.38 141.38 41.38C139.48 41.38 137.93 42.92 137.93 44.83C137.93 46.73 139.47 48.27 141.37 48.28C141.37 48.28 141.37 48.28 141.38 48.28C143.28 48.28 144.83 49.82 144.83 51.72C144.83 53.63 143.28 55.17 141.38 55.17C139.48 55.17 137.93 53.63 137.93 51.72C137.93 49.82 139.47 48.28 141.37 48.28C141.37 48.28 141.37 48.28 141.38 48.28C143.28 48.28 144.83 46.73 144.83 44.83C144.83 42.92 143.28 41.38 141.38 41.38C143.28 41.38 144.83 39.84 144.83 37.93C144.83 36.03 143.28 34.48 141.38 34.48C143.28 34.48 144.83 32.94 144.83 31.03C144.83 29.13 143.28 27.59 141.38 27.59C139.48 27.59 137.93 29.13 137.93 31.03C137.93 32.94 139.48 34.48 141.38 34.48C139.48 34.48 137.93 36.03 137.93 37.93ZM137.93 93.1C137.93 91.2 136.39 89.66 134.48 89.66C132.58 89.66 131.03 91.2 131.03 93.1C131.03 95.01 132.58 96.55 134.48 96.55C132.58 96.55 131.03 98.1 131.03 100C131.03 101.91 132.58 103.45 134.48 103.45C136.39 103.45 137.93 101.91 137.93 100C137.93 98.1 136.39 96.55 134.48 96.55C136.39 96.55 137.93 95.01 137.93 93.1ZM137.93 100C137.93 101.91 139.48 103.45 141.38 103.45C143.28 103.45 144.83 101.91 144.83 100C144.83 98.1 143.28 96.55 141.38 96.55C139.48 96.55 137.93 98.1 137.93 100ZM144.83 100C144.83 101.91 146.37 103.45 148.28 103.45C150.18 103.45 151.72 101.91 151.72 100C151.72 98.1 150.18 96.55 148.28 96.55C146.37 96.55 144.83 98.1 144.83 100ZM151.72 100C151.72 101.91 153.27 103.45 155.17 103.45C157.08 103.45 158.62 101.91 158.62 100C158.62 98.1 157.08 96.55 155.17 96.55C153.27 96.55 151.72 98.1 151.72 100ZM158.62 100C158.62 98.1 160.16 96.55 162.07 96.55C163.97 96.55 165.52 98.1 165.52 100C165.52 98.1 167.06 96.55 168.97 96.55C170.87 96.55 172.41 98.1 172.41 100C172.41 98.1 173.96 96.55 175.86 96.55C173.96 96.55 172.41 95.01 172.41 93.1C172.41 91.2 173.96 89.66 175.86 89.66C173.96 89.66 172.41 88.11 172.41 86.21C172.41 84.3 173.96 82.76 175.86 82.76C177.77 82.76 179.31 81.22 179.31 79.31C179.31 77.41 177.77 75.86 175.86 75.86C173.96 75.86 172.41 77.41 172.41 79.31C172.41 81.22 173.96 82.76 175.86 82.76C177.77 82.76 179.31 84.3 179.31 86.21C179.31 88.11 177.77 89.66 175.86 89.66C177.77 89.66 179.31 91.2 179.31 93.1C179.31 91.2 180.85 89.66 182.76 89.66C184.66 89.66 186.21 91.2 186.21 93.1C186.21 95.01 184.66 96.55 182.76 96.55C180.85 96.55 179.31 95.01 179.31 93.1C179.31 95.01 177.77 96.55 175.86 96.55C177.77 96.55 179.31 98.1 179.31 100C179.31 101.91 177.77 103.45 175.86 103.45C173.96 103.45 172.41 101.91 172.41 100C172.41 101.91 170.87 103.45 168.97 103.45C167.06 103.45 165.52 101.91 165.52 100.01C165.51 101.91 163.97 103.44 162.08 103.45C163.98 103.46 165.52 105 165.52 106.9C165.52 108.8 163.97 110.35 162.07 110.35C160.16 110.35 158.62 108.8 158.62 106.9C158.62 105 160.16 103.46 162.06 103.45C160.16 103.44 158.62 101.9 158.62 100ZM155.17 96.55C153.27 96.55 151.73 95.01 151.72 93.12C151.72 95.01 150.18 96.55 148.28 96.55C146.37 96.55 144.83 95.01 144.83 93.1C144.83 91.2 146.37 89.66 148.28 89.66C150.18 89.66 151.72 91.2 151.72 93.1C151.72 91.2 153.27 89.66 155.17 89.66C157.08 89.66 158.62 91.2 158.62 93.1C158.62 95.01 157.08 96.55 155.17 96.55ZM175.86 75.86C177.77 75.86 179.31 74.32 179.31 72.42C179.31 70.51 177.77 68.97 175.86 68.97C173.96 68.97 172.41 70.51 172.41 72.42C172.41 72.42 172.41 72.42 172.41 72.43C172.42 74.32 173.96 75.86 175.86 75.86ZM172.41 72.42C172.41 72.42 172.41 72.42 172.41 72.43C172.41 74.32 170.87 75.86 168.97 75.86C167.06 75.86 165.52 74.32 165.52 72.42C165.52 70.51 167.06 68.97 168.97 68.97C170.87 68.97 172.41 70.51 172.41 72.42ZM168.97 68.97C170.87 68.97 172.41 67.42 172.41 65.52C172.41 63.61 170.87 62.07 168.97 62.07C167.06 62.07 165.52 63.61 165.52 65.52C165.52 67.42 163.97 68.97 162.07 68.97C160.16 68.97 158.62 67.42 158.62 65.52C158.62 63.61 160.16 62.07 162.07 62.07C163.97 62.07 165.52 60.53 165.52 58.62C165.52 56.72 163.97 55.17 162.07 55.17C160.16 55.17 158.62 56.72 158.62 58.62C158.62 60.53 160.16 62.07 162.07 62.07C163.97 62.07 165.52 63.61 165.52 65.52C165.52 67.42 167.06 68.97 168.97 68.97ZM137.93 196.55C137.93 194.65 136.39 193.1 134.48 193.1C132.58 193.1 131.03 194.65 131.03 196.55C131.03 198.46 132.58 200 134.48 200C136.39 200 137.93 198.46 137.93 196.55ZM144.83 10.35C144.83 8.44 143.28 6.9 141.38 6.9C139.48 6.9 137.93 8.44 137.93 10.35C137.93 12.25 139.48 13.79 141.38 13.79C143.28 13.79 144.83 12.25 144.83 10.35ZM144.83 86.21C144.83 84.3 143.28 82.76 141.38 82.76C139.48 82.76 137.93 84.3 137.93 86.21C137.93 88.11 139.48 89.66 141.38 89.66C143.28 89.66 144.83 88.11 144.83 86.21ZM151.72 58.62C151.72 56.72 150.18 55.17 148.28 55.17C146.37 55.17 144.83 56.72 144.83 58.62C144.83 60.53 146.37 62.07 148.28 62.07C150.18 62.07 151.72 60.53 151.72 58.62ZM151.72 79.31C151.72 77.41 150.18 75.86 148.28 75.86C146.37 75.86 144.83 77.41 144.83 79.31C144.83 81.22 146.37 82.76 148.28 82.76C150.18 82.76 151.72 81.22 151.72 79.31ZM151.72 196.55C151.72 194.65 150.18 193.1 148.28 193.1C146.37 193.1 144.83 194.65 144.83 196.55C144.83 198.46 146.37 200 148.28 200C150.18 200 151.72 198.46 151.72 196.55ZM158.62 120.69C158.62 118.79 157.08 117.24 155.17 117.24C153.27 117.24 151.72 118.79 151.72 120.69C151.72 122.59 153.27 124.14 155.17 124.14C157.08 124.14 158.62 122.59 158.62 120.69ZM158.62 155.17C158.62 153.27 157.08 151.73 155.17 151.73C153.27 151.73 151.72 153.27 151.72 155.17C151.72 157.08 153.27 158.62 155.17 158.62C157.08 158.62 158.62 157.08 158.62 155.17ZM158.62 182.76C158.62 180.86 157.08 179.31 155.17 179.31C153.27 179.31 151.72 180.86 151.72 182.76C151.72 184.66 153.27 186.21 155.17 186.21C157.08 186.21 158.62 184.66 158.62 182.76ZM155.17 186.21C153.27 186.21 151.72 187.75 151.72 189.66C151.72 191.56 153.27 193.1 155.17 193.1C157.08 193.1 158.62 191.56 158.62 189.66C158.62 187.75 157.08 186.21 155.17 186.21ZM165.52 79.31C165.52 77.41 163.97 75.86 162.07 75.86C160.16 75.86 158.62 77.41 158.62 79.31C158.62 81.22 160.16 82.76 162.07 82.76C163.97 82.76 165.52 81.22 165.52 79.31ZM165.52 127.59C165.52 125.68 163.97 124.14 162.07 124.14C160.16 124.14 158.62 125.68 158.62 127.59C158.62 129.49 160.16 131.04 162.07 131.04C163.97 131.04 165.52 129.49 165.52 127.59C165.52 125.68 167.06 124.14 168.97 124.14C170.87 124.14 172.41 125.68 172.41 127.58C172.42 125.68 173.96 124.14 175.86 124.14C177.77 124.14 179.31 125.68 179.31 127.59C179.31 129.49 180.85 131.04 182.76 131.04C184.66 131.04 186.21 129.49 186.21 127.59C186.21 125.68 184.66 124.14 182.76 124.14C182.75 124.14 182.75 124.14 182.75 124.14C180.85 124.15 179.31 125.69 179.31 127.59C179.31 129.49 177.77 131.03 175.87 131.04C177.77 131.04 179.31 132.58 179.31 134.48C179.31 136.39 177.77 137.93 175.86 137.93C173.96 137.93 172.41 136.39 172.41 134.48C172.41 132.58 173.95 131.04 175.85 131.04C173.96 131.03 172.42 129.49 172.41 127.6C172.41 129.5 170.87 131.04 168.97 131.04C167.06 131.04 165.52 129.49 165.52 127.59ZM182.75 124.14C180.85 124.13 179.31 122.59 179.31 120.69C179.31 118.79 180.85 117.24 182.76 117.24C180.85 117.24 179.31 115.7 179.31 113.79C179.31 115.7 177.77 117.24 175.86 117.24C173.96 117.24 172.41 115.7 172.41 113.79C172.41 111.89 173.96 110.35 175.86 110.35C177.77 110.35 179.31 111.89 179.31 113.79C179.31 111.89 180.85 110.35 182.76 110.35C180.85 110.35 179.31 108.8 179.31 106.9C179.31 104.99 180.85 103.45 182.76 103.45C184.66 103.45 186.21 104.99 186.21 106.9C186.21 108.8 184.66 110.35 182.76 110.35C184.66 110.35 186.21 111.89 186.21 113.79C186.21 111.89 187.75 110.35 189.65 110.35C191.56 110.35 193.1 111.89 193.1 113.79C193.1 115.7 191.56 117.24 189.65 117.24C187.75 117.24 186.21 115.7 186.21 113.79C186.21 115.7 184.66 117.24 182.76 117.24C184.66 117.24 186.21 118.79 186.21 120.69C186.21 122.59 184.66 124.14 182.76 124.14C182.75 124.14 182.75 124.14 182.75 124.14ZM172.41 196.55C172.41 194.65 170.87 193.1 168.97 193.1C167.06 193.1 165.52 194.65 165.52 196.55C165.52 198.46 167.06 200 168.97 200C170.87 200 172.41 198.46 172.41 196.55ZM179.31 58.62C179.31 56.72 177.77 55.17 175.86 55.17C173.96 55.17 172.41 56.72 172.41 58.62C172.41 60.53 173.96 62.07 175.86 62.07C177.77 62.07 179.31 60.53 179.31 58.62C179.31 60.53 180.85 62.07 182.76 62.07C184.66 62.07 186.21 60.53 186.21 58.62C186.21 60.53 187.75 62.07 189.65 62.07C191.56 62.07 193.1 60.53 193.1 58.62C193.1 56.72 191.56 55.17 189.65 55.17C187.75 55.17 186.21 56.72 186.21 58.62C186.21 56.72 184.66 55.17 182.76 55.17C180.85 55.17 179.31 56.72 179.31 58.62ZM189.65 62.07C187.75 62.07 186.21 63.61 186.21 65.52C186.21 67.42 187.75 68.97 189.65 68.97C191.56 68.97 193.1 67.42 193.1 65.52C193.1 63.61 191.56 62.07 189.65 62.07ZM186.21 141.38C186.21 139.48 184.66 137.93 182.76 137.93C180.85 137.93 179.31 139.48 179.31 141.38C179.31 143.28 180.85 144.83 182.76 144.83C184.66 144.83 186.21 143.28 186.21 141.38C186.21 143.28 187.75 144.83 189.65 144.83C191.56 144.83 193.1 143.28 193.1 141.38C193.1 139.48 194.65 137.93 196.55 137.93C198.46 137.93 200 139.48 200 141.38C200 143.28 198.46 144.83 196.55 144.83C194.65 144.83 193.1 146.37 193.1 148.28C193.1 146.37 191.56 144.83 189.65 144.83C187.75 144.83 186.21 146.37 186.21 148.28C186.21 150.18 187.74 151.72 189.64 151.73C189.65 151.73 189.65 151.73 189.65 151.73C191.56 151.73 193.1 153.27 193.1 155.17C193.1 157.08 191.56 158.62 189.65 158.62C187.75 158.62 186.21 157.08 186.21 155.17C186.21 153.27 187.74 151.73 189.64 151.73C189.65 151.73 189.65 151.73 189.65 151.73C191.56 151.73 193.1 150.18 193.1 148.28C193.1 150.18 194.65 151.73 196.55 151.73C198.46 151.73 200 150.18 200 148.28C200 146.37 198.46 144.83 196.55 144.83C194.65 144.83 193.1 143.28 193.1 141.38C193.1 139.48 191.56 137.93 189.65 137.93C187.75 137.93 186.21 139.48 186.21 141.38ZM189.65 137.93C191.56 137.93 193.1 136.39 193.1 134.48C193.1 134.48 193.1 134.48 193.1 134.47C193.1 132.57 191.56 131.04 189.65 131.04C187.75 131.04 186.21 132.58 186.21 134.48C186.21 136.39 187.75 137.93 189.65 137.93ZM193.1 134.48C193.1 136.39 194.65 137.93 196.55 137.93C198.46 137.93 200 136.39 200 134.48C200 132.58 198.46 131.04 196.55 131.04C198.46 131.04 200 129.49 200 127.59C200 125.68 198.46 124.14 196.55 124.14C194.65 124.14 193.1 125.68 193.1 127.59C193.1 129.49 194.65 131.04 196.55 131.04C194.65 131.04 193.11 132.57 193.1 134.47C193.1 134.48 193.1 134.48 193.1 134.48ZM186.21 162.07C186.21 160.17 184.66 158.62 182.76 158.62C180.85 158.62 179.31 160.17 179.31 162.07C179.31 163.97 180.85 165.52 182.76 165.52C184.66 165.52 186.21 163.97 186.21 162.07ZM186.21 196.55C186.21 194.65 184.66 193.1 182.76 193.1C180.85 193.1 179.31 194.65 179.31 196.55C179.31 198.46 180.85 200 182.76 200C184.66 200 186.21 198.46 186.21 196.55ZM193.1 168.97C193.1 167.06 191.56 165.52 189.65 165.52C187.75 165.52 186.21 167.06 186.21 168.97C186.21 170.87 187.75 172.42 189.65 172.42C191.56 172.42 193.1 173.96 193.1 175.86C193.1 177.77 191.56 179.31 189.65 179.31C187.75 179.31 186.21 177.77 186.21 175.86C186.21 173.96 187.75 172.42 189.65 172.42C191.56 172.42 193.1 170.87 193.1 168.97ZM193.1 189.66C193.1 187.75 191.56 186.21 189.65 186.21C187.75 186.21 186.21 187.75 186.21 189.66C186.21 191.56 187.75 193.1 189.65 193.1C191.56 193.1 193.1 191.56 193.1 189.66C193.1 191.56 194.65 193.1 196.55 193.1C198.46 193.1 200 191.56 200 189.66C200 187.75 198.46 186.21 196.55 186.21C194.65 186.21 193.1 187.75 193.1 189.66ZM200 79.31C200 77.41 198.46 75.86 196.55 75.86C194.65 75.86 193.1 77.41 193.1 79.31C193.1 81.22 194.65 82.76 196.55 82.76C198.46 82.76 200 81.22 200 79.31ZM196.55 82.76C194.65 82.76 193.1 84.3 193.1 86.21C193.1 88.11 194.65 89.66 196.55 89.66C198.46 89.66 200 88.11 200 86.21C200 84.3 198.46 82.76 196.55 82.76ZM200 106.9C200 104.99 198.46 103.45 196.55 103.45C194.65 103.45 193.1 104.99 193.1 106.9C193.1 108.8 194.65 110.35 196.55 110.35C198.46 110.35 200 108.8 200 106.9ZM200 162.07C200 160.17 198.46 158.62 196.55 158.62C194.65 158.62 193.1 160.17 193.1 162.07C193.1 163.97 194.65 165.52 196.55 165.52C198.46 165.52 200 163.97 200 162.07Z" fill="#6B7280"/>
<path d="M17.24 48.28H31.03C40.55 48.28 48.27 40.56 48.27 31.04V17.24C48.27 7.72 40.55 0 31.03 0H17.24C7.72 0 0 7.72 0 17.24V31.03C0 40.56 7.72 48.28 17.24 48.28ZM17.24 6.9H31.03C36.75 6.9 41.38 11.53 41.38 17.24V31.03C41.38 36.75 36.75 41.38 31.03 41.38H17.24C11.53 41.38 6.9 36.75 6.9 31.03V17.24C6.9 11.53 11.53 6.9 17.24 6.9Z" fill="#6B7280"/>
<path d="M34.48 24.14V24.13C34.48 18.42 29.85 13.79 24.14 13.79C18.42 13.79 13.79 18.43 13.79 24.14C13.79 29.85 18.42 34.48 24.14 34.48C29.85 34.48 34.48 29.85 34.48 24.14Z" fill="#6B7280"/>
<path d="M168.97 48.28H182.76C192.28 48.28 200 40.56 200 31.03V17.24C200 7.72 192.28 0 182.76 0H168.97C159.44 0 151.72 7.72 151.72 17.24V31.03C151.72 40.56 159.44 48.28 168.97 48.28ZM193.1 17.24V31.03C193.1 36.75 188.47 41.38 182.76 41.38H168.97C163.25 41.38 158.62 36.75 158.62 31.03V17.24C158.62 11.53 163.25 6.9 168.97 6.9H182.76C188.47 6.9 193.1 11.53 193.1 17.24Z" fill="#6B7280"/>
<path d="M186.21 24.14C186.21 18.43 181.57 13.79 175.86 13.79C170.15 13.79 165.52 18.43 165.52 24.14C165.52 29.85 170.15 34.48 175.86 34.48C181.57 34.48 186.21 29.85 186.21 24.14Z" fill="#707380"/>
<path d="M17.24 200H31.03C40.55 200 48.27 192.28 48.27 182.76V168.97C48.27 159.45 40.56 151.73 31.04 151.73H17.24C7.72 151.73 0 159.45 0 168.96V182.76C0 192.28 7.72 200 17.24 200ZM6.9 182.76V168.97C6.9 163.25 11.53 158.62 17.24 158.62H31.03C36.75 158.62 41.38 163.25 41.38 168.97V182.76C41.38 188.47 36.75 193.1 31.03 193.1H17.24C11.53 193.1 6.9 188.47 6.9 182.76Z" fill="#6B7280"/>
<path d="M34.48 175.87V175.86C34.48 170.15 29.85 165.52 24.14 165.52H24.13C18.42 165.52 13.79 170.15 13.79 175.86C13.79 181.58 18.42 186.21 24.14 186.21C29.85 186.21 34.48 181.58 34.48 175.87Z" fill="#6B7280"/>
<path fill-rule="evenodd" clip-rule="evenodd" d="M112.75 78.36C115.16 78.97 116.43 81.88 115.58 84.84C114.73 87.81 112.08 89.73 109.69 89.13C107.28 88.52 106.02 85.62 106.86 82.65C107.7 79.68 110.36 77.76 112.75 78.36ZM103.77 98.29L102.79 97.43C104.27 95.57 105.63 94.25 106.86 93.46C108.08 92.67 109.13 92.28 109.99 92.28C110.46 92.28 110.83 92.4 111.08 92.63C111.34 92.88 111.46 93.2 111.46 93.6C111.46 94.08 110.98 96.17 110.02 99.84C108.44 105.83 107.65 109.45 107.65 110.68C107.65 110.92 107.7 111.12 107.81 111.27C107.91 111.44 108.02 111.51 108.14 111.51C108.61 111.51 109.83 110.47 111.8 108.37L112.66 109.34C110.63 111.51 109.15 112.91 108.21 113.52C107.27 114.12 106.51 114.43 105.91 114.43C105.39 114.43 104.98 114.25 104.67 113.88C104.37 113.5 104.21 112.98 104.21 112.33C104.21 110.22 105.34 105.06 107.56 96.85C107.66 96.46 107.72 96.11 107.72 95.81C107.72 95.47 107.59 95.3 107.31 95.3C107.02 95.3 106.68 95.44 106.3 95.71C105.92 95.97 105.07 96.84 103.77 98.29ZM91.43 103.69C93.81 102.47 95.61 101.16 96.82 99.76C97.63 98.78 98.04 97.8 98.04 96.85C98.04 96.12 97.88 95.54 97.54 95.11C97.2 94.67 96.77 94.46 96.23 94.46C95.68 94.46 95.15 94.7 94.63 95.17C93.93 95.8 93.34 96.74 92.87 98.01C92.18 99.87 91.71 101.76 91.43 103.69ZM99.22 107.36L99.96 108.48C96.32 112.42 93.2 114.38 90.59 114.38C89.53 114.38 88.74 113.97 88.17 113.17C87.62 112.35 87.34 111.05 87.34 109.26C87.34 105.64 88.3 102.04 90.23 98.46C92.41 94.4 95 92.36 98.02 92.36C99.07 92.36 99.88 92.66 100.44 93.26C101 93.86 101.27 94.68 101.27 95.73C101.27 96.83 100.94 97.91 100.27 98.97C99.6 100.04 98.41 101.15 96.68 102.29C95.82 102.85 93.97 103.85 91.15 105.31C91.02 106.22 90.95 107.08 90.95 107.92C90.95 109.12 91.12 109.95 91.45 110.42C91.79 110.9 92.28 111.13 92.91 111.13C93.52 111.13 94.19 110.95 94.92 110.55C95.9 110.03 97.34 108.97 99.22 107.36ZM78.85 84.95H105.41C105.51 87.66 106.98 89.93 109.29 90.51C112.31 91.27 115.63 88.85 116.7 85.12C116.72 85.07 116.73 85.01 116.74 84.95H121.15C122.18 84.95 123.03 85.79 123.03 86.81V119.9C123.03 120.92 122.18 121.75 121.15 121.75H78.85C77.81 121.75 76.97 120.92 76.97 119.9V86.81C76.97 85.79 77.81 84.95 78.85 84.95Z" fill="#6B7280"/>
</svg>