<svg xmlns="http://www.w3.org/2000/svg" width="200" height="200" viewBox="0 0 200 200" fill="none">
<g clip-path="url(#clip0_15_13)">
<path d="M6.9 72.43C6.89 74.32 5.35 75.86 3.45 75.86C1.54 75.86 0 74.32 0 72.41C0 70.51 1.54 68.97 3.45 68.97C5.35 68.97 6.89 70.5 6.9 72.4C6.9 70.5 8.44 68.97 10.35 68.97C12.25 68.97 13.79 70.51 13.79 72.41C13.79 74.32 12.25 75.86 10.35 75.86C8.44 75.86 6.9 77.41 6.9 79.31C6.9 81.21 8.43 82.75 10.33 82.76C10.34 82.76 10.34 82.76 10.35 82.76C12.25 82.76 13.79 81.22 13.79 79.32C13.8 81.22 15.34 82.76 17.24 82.76C19.15 82.76 20.69 81.21 20.69 79.31C20.69 77.41 19.15 75.86 17.24 75.86C15.34 75.86 13.79 77.41 13.79 79.31C13.79 77.41 12.25 75.86 10.35 75.86C8.44 75.86 6.9 74.32 6.9 72.43ZM10.35 82.76C10.34 82.76 10.34 82.76 10.33 82.76C8.43 82.77 6.9 84.31 6.9 86.21C6.9 88.11 5.35 89.66 3.45 89.66C1.54 89.66 0 91.2 0 93.1C0 95 1.54 96.55 3.44 96.55C3.44 96.55 3.44 96.55 3.45 96.55C5.35 96.55 6.89 98.09 6.9 99.99C6.9 98.09 8.44 96.55 10.35 96.55C12.25 96.55 13.79 98.1 13.79 100C13.79 98.1 15.34 96.55 17.24 96.55C19.15 96.55 20.69 95.01 20.69 93.1C20.69 91.2 19.15 89.66 17.24 89.66C15.34 89.66 13.79 91.2 13.79 93.1C13.79 95.01 15.34 96.55 17.24 96.55C19.15 96.55 20.69 98.1 20.69 100C20.69 101.9 22.23 103.45 24.14 103.45C26.04 103.45 27.59 101.9 27.59 100C27.59 98.1 26.04 96.55 24.14 96.55C22.23 96.55 20.69 98.1 20.69 100C20.69 101.9 19.15 103.44 17.25 103.45C19.15 103.45 20.69 105 20.69 106.9C20.69 108.8 19.15 110.35 17.24 110.35C15.34 110.35 13.79 108.8 13.79 106.9C13.79 108.8 12.25 110.35 10.35 110.35C8.44 110.35 6.9 111.89 6.9 113.79C6.9 111.89 5.35 110.35 3.45 110.35C5.35 110.35 6.89 108.81 6.9 106.91C6.9 108.81 8.44 110.35 10.35 110.35C12.25 110.35 13.79 111.89 13.79 113.79C13.79 115.7 12.25 117.24 10.35 117.24C8.44 117.24 6.9 115.7 6.9 113.79C6.9 115.69 5.36 117.24 3.46 117.24C5.36 117.25 6.9 118.79 6.9 120.69C6.9 122.59 5.36 124.13 3.46 124.14C5.36 124.14 6.9 125.69 6.9 127.59C6.9 129.49 5.35 131.03 3.45 131.03C1.54 131.03 0 129.49 0 127.59C0 125.69 1.54 124.14 3.44 124.14C1.54 124.13 0 122.59 0 120.69C0 118.79 1.54 117.25 3.44 117.24C1.54 117.24 0 115.69 0 113.79C0 111.89 1.54 110.35 3.45 110.35C1.54 110.35 0 108.8 0 106.9C0 105 1.54 103.45 3.44 103.45C1.54 103.44 0 101.9 0 100C0 98.1 1.54 96.56 3.44 96.55C3.44 96.55 3.44 96.55 3.45 96.55C5.35 96.55 6.9 95.01 6.9 93.1C6.9 91.2 5.35 89.66 3.45 89.66C1.54 89.66 0 88.11 0 86.21C0 84.3 1.54 82.76 3.45 82.76C5.35 82.76 6.9 84.3 6.9 86.21C6.9 88.11 8.44 89.66 10.35 89.66C12.25 89.66 13.79 88.11 13.79 86.21C13.79 84.3 12.25 82.76 10.35 82.76ZM6.9 100V100.01C6.9 101.91 8.44 103.44 10.33 103.45C8.43 103.45 6.9 105 6.9 106.9C6.9 105 5.36 103.45 3.46 103.45C5.36 103.44 6.89 101.91 6.9 100.01V100ZM13.79 106.9C13.79 105 12.26 103.45 10.36 103.45C12.25 103.44 13.79 101.91 13.79 100.01C13.8 101.91 15.34 103.44 17.23 103.45C15.33 103.45 13.79 105 13.79 106.9ZM27.59 100C27.59 98.1 29.13 96.55 31.03 96.55C32.94 96.55 34.48 98.1 34.48 100C34.48 101.9 32.94 103.45 31.03 103.45C29.13 103.45 27.59 101.9 27.59 100ZM6.9 141.38C6.9 139.48 5.35 137.93 3.45 137.93C1.54 137.93 0 139.48 0 141.38C0 143.28 1.54 144.83 3.45 144.83C5.35 144.83 6.9 143.28 6.9 141.38ZM13.79 134.48C13.79 132.58 12.25 131.03 10.35 131.03C8.44 131.03 6.9 132.58 6.9 134.48C6.9 136.39 8.44 137.93 10.35 137.93C12.25 137.93 13.79 136.39 13.79 134.48ZM20.69 58.62C20.69 56.72 19.15 55.17 17.24 55.17C15.34 55.17 13.79 56.72 13.79 58.62C13.79 60.52 15.34 62.07 17.24 62.07C15.34 62.07 13.79 63.61 13.79 65.52C13.79 67.42 15.34 68.97 17.24 68.97C19.15 68.97 20.69 67.42 20.69 65.52C20.69 63.61 19.15 62.07 17.24 62.07C19.15 62.07 20.69 60.52 20.69 58.62ZM20.69 65.52C20.69 67.42 22.23 68.97 24.14 68.97C22.23 68.97 20.69 70.51 20.69 72.41C20.69 74.32 22.23 75.86 24.14 75.86C26.04 75.86 27.59 74.32 27.59 72.41C27.59 70.51 26.04 68.97 24.14 68.97C26.04 68.97 27.59 67.42 27.59 65.52C27.59 63.61 26.04 62.07 24.14 62.07C22.23 62.07 20.69 63.61 20.69 65.52ZM20.69 120.69C20.69 118.79 19.15 117.24 17.24 117.24C15.34 117.24 13.79 118.79 13.79 120.69C13.79 122.59 15.34 124.14 17.24 124.14C15.34 124.14 13.79 125.68 13.79 127.59C13.79 129.49 15.34 131.03 17.24 131.03C19.15 131.03 20.69 129.49 20.69 127.59C20.69 129.49 22.23 131.03 24.14 131.03C26.04 131.03 27.59 132.58 27.59 134.48C27.59 136.39 26.04 137.93 24.14 137.93C22.23 137.93 20.69 136.39 20.69 134.48C20.69 132.58 22.23 131.03 24.14 131.03C26.04 131.03 27.59 129.49 27.59 127.59C27.59 127.58 27.59 127.58 27.59 127.58C27.59 125.68 29.13 124.14 31.03 124.14C32.94 124.14 34.48 122.59 34.48 120.69C34.48 122.59 36.03 124.14 37.93 124.14C39.84 124.14 41.38 122.59 41.38 120.69C41.38 118.79 39.84 117.24 37.93 117.24C36.03 117.24 34.49 118.78 34.48 120.68C34.48 118.78 32.94 117.24 31.03 117.24C29.13 117.24 27.59 118.79 27.59 120.69C27.59 122.59 29.13 124.14 31.03 124.14C32.94 124.14 34.48 125.68 34.48 127.59C34.48 129.49 32.94 131.03 31.03 131.03C29.13 131.03 27.59 129.49 27.59 127.59C27.59 127.58 27.59 127.58 27.59 127.58C27.58 125.68 26.04 124.14 24.14 124.14C22.23 124.14 20.69 125.68 20.69 127.59C20.69 125.68 19.15 124.14 17.24 124.14C19.15 124.14 20.69 122.59 20.69 120.69ZM27.59 86.22C27.58 88.12 26.04 89.66 24.14 89.66C22.23 89.66 20.69 88.11 20.69 86.21C20.69 84.3 22.23 82.76 24.14 82.76C26.04 82.76 27.58 84.3 27.59 86.2C27.59 84.3 29.13 82.77 31.02 82.76C29.12 82.75 27.59 81.21 27.59 79.31C27.59 77.41 29.13 75.86 31.03 75.86C32.94 75.86 34.48 77.41 34.48 79.31C34.48 81.21 32.94 82.75 31.05 82.76C32.94 82.77 34.48 84.31 34.48 86.21C34.48 88.11 32.94 89.66 31.03 89.66C29.13 89.66 27.59 88.12 27.59 86.22ZM34.48 58.63C34.48 60.53 32.94 62.07 31.03 62.07C29.13 62.07 27.59 60.52 27.59 58.62C27.59 56.72 29.13 55.17 31.03 55.17C32.94 55.17 34.48 56.71 34.48 58.61C34.49 56.71 36.03 55.17 37.93 55.17C39.84 55.17 41.38 56.72 41.38 58.62V58.63C41.37 60.53 39.83 62.07 37.93 62.07C36.03 62.07 34.49 60.53 34.48 58.63ZM41.38 58.62C41.38 56.72 42.92 55.17 44.83 55.17C46.73 55.17 48.28 56.72 48.28 58.62C48.28 60.52 46.73 62.07 44.83 62.07C42.93 62.07 41.39 60.53 41.38 58.63V58.62ZM34.48 141.38C34.48 139.48 32.94 137.93 31.03 137.93C29.13 137.93 27.59 139.48 27.59 141.38C27.59 143.28 29.13 144.83 31.03 144.83C32.94 144.83 34.48 143.28 34.48 141.38ZM41.38 72.43C41.37 74.32 39.83 75.86 37.93 75.86C36.03 75.86 34.48 74.32 34.48 72.41C34.48 70.51 36.03 68.97 37.93 68.97C39.83 68.97 41.37 70.5 41.38 72.4C41.39 70.5 42.93 68.97 44.83 68.97C46.73 68.97 48.28 70.51 48.28 72.41C48.28 74.32 46.73 75.86 44.83 75.86C42.93 75.86 41.39 74.32 41.38 72.43ZM41.38 93.1C41.38 91.2 39.84 89.66 37.93 89.66C36.03 89.66 34.48 91.2 34.48 93.1C34.48 95.01 36.03 96.55 37.93 96.55C39.84 96.55 41.38 95.01 41.38 93.1ZM41.38 134.48C41.38 132.58 39.84 131.03 37.93 131.03C36.03 131.03 34.48 132.58 34.48 134.48C34.48 136.39 36.03 137.93 37.93 137.93C39.84 137.93 41.38 136.39 41.38 134.48ZM48.28 86.21C48.28 84.3 46.73 82.76 44.83 82.76C42.92 82.76 41.38 84.3 41.38 86.21C41.38 88.11 42.92 89.66 44.83 89.66C46.73 89.66 48.28 88.11 48.28 86.21ZM48.28 100.01C48.27 101.91 46.73 103.45 44.83 103.45C42.92 103.45 41.38 101.9 41.38 100C41.38 98.1 42.92 96.55 44.83 96.55C46.73 96.55 48.27 98.09 48.28 99.99C48.28 98.09 49.82 96.56 51.71 96.55C49.81 96.55 48.28 95 48.28 93.1C48.28 91.2 49.82 89.66 51.72 89.66C53.63 89.66 55.17 91.2 55.17 93.1C55.17 95 53.64 96.54 51.74 96.55C53.64 96.56 55.17 98.1 55.17 100V100.01C55.18 101.91 56.72 103.45 58.62 103.45C60.52 103.45 62.07 101.9 62.07 100C62.07 98.1 60.52 96.55 58.62 96.55C56.72 96.55 55.17 98.1 55.17 100V100.01C55.17 101.91 53.63 103.44 51.74 103.45C53.64 103.45 55.17 105 55.17 106.9C55.17 108.8 53.63 110.35 51.72 110.35C49.82 110.35 48.28 108.8 48.28 106.9C48.28 105 49.81 103.45 51.71 103.45C49.82 103.44 48.28 101.91 48.28 100.01ZM62.07 100C62.07 98.1 63.61 96.55 65.52 96.55C67.42 96.55 68.97 98.1 68.97 100C68.97 101.9 67.42 103.45 65.52 103.45C63.61 103.45 62.07 101.9 62.07 100ZM51.72 110.35C49.82 110.35 48.28 111.89 48.28 113.79C48.28 111.89 46.73 110.35 44.83 110.35C42.92 110.35 41.38 111.89 41.38 113.79C41.38 115.7 42.92 117.24 44.83 117.24C46.73 117.24 48.28 115.7 48.28 113.79C48.28 115.7 49.82 117.24 51.72 117.24C53.63 117.24 55.17 118.79 55.17 120.69C55.17 122.59 53.63 124.14 51.72 124.14C49.82 124.14 48.28 122.59 48.28 120.69C48.28 118.79 49.82 117.24 51.72 117.24C53.63 117.24 55.17 115.7 55.17 113.79C55.17 111.89 53.63 110.35 51.72 110.35ZM51.72 124.14C53.63 124.14 55.17 125.68 55.17 127.59C55.17 125.68 56.72 124.14 58.62 124.14C60.52 124.14 62.07 125.68 62.07 127.59C62.07 129.49 63.61 131.03 65.52 131.03C67.42 131.03 68.97 129.49 68.97 127.59C68.97 125.68 67.42 124.14 65.52 124.14C67.42 124.14 68.97 122.59 68.97 120.69C68.97 118.79 67.42 117.24 65.52 117.24C63.61 117.24 62.07 118.79 62.07 120.69C62.07 122.59 63.61 124.14 65.52 124.14C63.61 124.14 62.07 125.68 62.07 127.59C62.07 129.49 60.52 131.03 58.62 131.03C56.72 131.03 55.17 129.49 55.17 127.59C55.17 129.49 53.63 131.03 51.72 131.03C49.82 131.03 48.28 129.49 48.28 127.59C48.28 129.49 46.73 131.03 44.83 131.03C42.92 131.03 41.38 129.49 41.38 127.59C41.38 125.68 42.92 124.14 44.83 124.14C46.73 124.14 48.28 125.68 48.28 127.59C48.28 125.68 49.82 124.14 51.72 124.14ZM48.28 141.38C48.28 139.48 46.73 137.93 44.83 137.93C42.92 137.93 41.38 139.48 41.38 141.38C41.38 143.28 42.92 144.83 44.83 144.83C46.73 144.83 48.28 143.28 48.28 141.38ZM55.17 65.52C55.17 63.61 53.63 62.07 51.72 62.07C49.82 62.07 48.28 63.61 48.28 65.52C48.28 67.42 49.82 68.97 51.72 68.97C53.63 68.97 55.17 67.42 55.17 65.52ZM55.17 79.32C55.17 81.22 53.62 82.76 51.72 82.76C49.82 82.76 48.28 81.21 48.28 79.31C48.28 77.41 49.82 75.86 51.72 75.86C53.62 75.86 55.17 77.4 55.17 79.3C55.18 77.4 56.71 75.87 58.61 75.86C56.71 75.86 55.17 74.31 55.17 72.41C55.17 70.51 56.72 68.97 58.62 68.97C60.52 68.97 62.07 70.51 62.07 72.41C62.07 74.32 63.61 75.86 65.52 75.86C67.42 75.86 68.97 74.32 68.97 72.41C68.97 70.51 67.42 68.97 65.52 68.97C63.61 68.97 62.07 70.51 62.07 72.41C62.07 74.31 60.53 75.86 58.63 75.86C60.53 75.87 62.07 77.41 62.07 79.31C62.07 81.21 60.52 82.76 58.62 82.76C56.72 82.76 55.18 81.22 55.17 79.32ZM62.07 10.35C62.07 8.44 60.52 6.9 58.62 6.9C56.72 6.9 55.17 8.44 55.17 10.35C55.17 12.25 56.72 13.79 58.62 13.79C60.52 13.79 62.07 12.25 62.07 10.35C62.07 8.44 63.61 6.9 65.51 6.9C65.51 6.9 65.51 6.9 65.52 6.9H65.53C67.43 6.9 68.97 8.44 68.97 10.35C68.97 12.25 67.42 13.79 65.52 13.79C63.61 13.79 62.07 12.25 62.07 10.35ZM65.53 6.9C67.43 6.89 68.97 5.35 68.97 3.45C68.97 1.54 67.42 0 65.52 0C63.61 0 62.07 1.54 62.07 3.45C62.07 5.35 63.61 6.89 65.51 6.9C65.51 6.9 65.51 6.9 65.52 6.9H65.53ZM62.07 31.03C62.07 29.13 60.52 27.59 58.62 27.59C56.72 27.59 55.17 29.13 55.17 31.03C55.17 32.94 56.72 34.48 58.62 34.48C60.52 34.48 62.07 32.94 62.07 31.03ZM62.07 44.83C62.07 42.92 60.52 41.38 58.62 41.38C56.72 41.38 55.17 42.92 55.17 44.83C55.17 46.73 56.72 48.28 58.62 48.28C60.52 48.28 62.07 46.73 62.07 44.83ZM62.07 58.62C62.07 56.72 60.52 55.17 58.62 55.17C56.72 55.17 55.17 56.72 55.17 58.62C55.17 60.52 56.72 62.07 58.62 62.07C60.52 62.07 62.07 60.52 62.07 58.62ZM62.07 148.28C62.07 146.37 60.52 144.83 58.62 144.83C56.72 144.83 55.17 146.37 55.17 148.28C55.17 150.18 56.72 151.72 58.62 151.72C60.52 151.72 62.07 150.18 62.07 148.28C62.07 146.37 63.61 144.83 65.52 144.83C67.42 144.83 68.97 146.37 68.97 148.28C68.97 150.18 70.51 151.72 72.41 151.72C74.32 151.72 75.86 150.18 75.86 148.28C75.86 148.27 75.86 148.27 75.86 148.26C75.87 146.37 77.41 144.83 79.31 144.83C81.21 144.83 82.76 143.28 82.76 141.38C82.76 139.48 81.21 137.93 79.31 137.93C77.41 137.93 75.86 139.48 75.86 141.38C75.86 143.28 77.41 144.83 79.31 144.83C81.21 144.83 82.76 146.37 82.76 148.28C82.76 150.18 81.21 151.72 79.31 151.72C77.41 151.72 75.86 150.18 75.86 148.28C75.86 148.27 75.86 148.27 75.86 148.26C75.86 146.37 74.31 144.83 72.41 144.83C70.51 144.83 68.97 146.37 68.97 148.28C68.97 150.18 67.42 151.72 65.52 151.72C63.61 151.72 62.07 153.27 62.07 155.17C62.07 157.08 63.61 158.62 65.52 158.62C67.42 158.62 68.96 160.16 68.97 162.06V162.07C68.97 163.97 67.42 165.52 65.52 165.52C65.51 165.52 65.51 165.52 65.51 165.52C63.61 165.51 62.07 163.97 62.07 162.07C62.07 163.97 60.52 165.52 58.62 165.52C60.52 165.52 62.07 167.06 62.07 168.97C62.07 167.07 63.61 165.52 65.51 165.52C65.51 165.52 65.51 165.52 65.52 165.52C67.42 165.52 68.97 167.06 68.97 168.97C68.97 170.87 67.42 172.41 65.52 172.41C63.61 172.41 62.07 170.87 62.07 168.97C62.07 170.87 60.52 172.41 58.62 172.41C56.72 172.41 55.17 170.87 55.17 168.97C55.17 167.06 56.72 165.52 58.62 165.52C56.72 165.52 55.17 163.97 55.17 162.07C55.17 160.17 56.72 158.62 58.62 158.62C60.52 158.62 62.07 160.17 62.07 162.07C62.07 160.17 63.61 158.62 65.52 158.62C67.42 158.62 68.97 157.08 68.97 155.17C68.97 153.27 67.42 151.72 65.52 151.72C63.61 151.72 62.07 150.18 62.07 148.28ZM68.97 168.97C68.97 170.87 70.51 172.41 72.41 172.41C74.32 172.41 75.86 170.87 75.86 168.97C75.86 170.87 77.41 172.41 79.31 172.41C81.21 172.41 82.76 170.87 82.76 168.97C82.76 167.06 81.21 165.52 79.31 165.52C77.41 165.52 75.87 167.06 75.86 168.95C75.86 167.06 74.31 165.52 72.41 165.52C74.32 165.52 75.86 163.97 75.86 162.07C75.86 160.17 74.32 158.62 72.41 158.62C70.51 158.62 68.97 160.16 68.97 162.06V162.07C68.97 163.97 70.51 165.52 72.41 165.52C70.51 165.52 68.97 167.06 68.97 168.97ZM72.41 172.41C74.32 172.41 75.86 173.96 75.86 175.86C75.86 177.77 74.32 179.31 72.41 179.31C70.51 179.31 68.97 177.77 68.97 175.86C68.97 173.96 70.51 172.41 72.41 172.41ZM82.76 141.38C82.76 139.48 84.3 137.93 86.21 137.93C88.11 137.93 89.66 136.39 89.66 134.48C89.66 132.58 88.11 131.03 86.21 131.03C84.3 131.03 82.76 132.58 82.76 134.48C82.76 136.39 84.3 137.93 86.21 137.93C88.11 137.93 89.66 139.48 89.66 141.38C89.66 143.28 88.11 144.83 86.21 144.83C84.3 144.83 82.76 143.28 82.76 141.38ZM62.07 182.76C62.07 180.86 60.52 179.31 58.62 179.31C56.72 179.31 55.17 180.86 55.17 182.76C55.17 184.66 56.72 186.21 58.62 186.21C60.52 186.21 62.07 184.66 62.07 182.76C62.07 180.86 63.61 179.31 65.52 179.31C67.42 179.31 68.97 180.86 68.97 182.76C68.97 184.66 67.42 186.21 65.52 186.21C67.42 186.21 68.97 187.75 68.97 189.66C68.97 191.56 67.42 193.1 65.52 193.1C67.42 193.1 68.96 194.64 68.97 196.54V196.55C68.97 198.46 67.42 200 65.52 200C63.61 200 62.07 198.46 62.07 196.55C62.07 194.65 63.61 193.11 65.51 193.1C63.61 193.1 62.07 191.56 62.07 189.66C62.07 187.75 63.61 186.21 65.52 186.21C63.61 186.21 62.07 184.66 62.07 182.76ZM68.97 196.55V196.54C68.97 194.64 70.51 193.1 72.41 193.1C74.31 193.1 75.86 194.64 75.86 196.54V196.55C75.86 198.46 77.41 200 79.31 200C81.21 200 82.75 198.46 82.76 196.56C82.76 196.56 82.76 196.56 82.76 196.55C82.76 194.65 84.3 193.1 86.21 193.1C88.11 193.1 89.65 194.64 89.66 196.54V196.55C89.66 198.46 88.11 200 86.21 200C84.31 200 82.77 198.46 82.76 196.56C82.76 196.56 82.76 196.56 82.76 196.55C82.76 194.65 81.22 193.11 79.32 193.1C81.22 193.1 82.76 191.56 82.76 189.66C82.76 187.75 81.21 186.21 79.31 186.21C77.41 186.21 75.86 187.75 75.86 189.66C75.86 191.56 77.41 193.1 79.31 193.1C77.41 193.1 75.87 194.64 75.86 196.54V196.55C75.86 198.46 74.32 200 72.41 200C70.51 200 68.97 198.46 68.97 196.55ZM89.66 196.54V196.55C89.66 198.46 91.2 200 93.1 200C95 200 96.55 198.46 96.55 196.56C96.55 196.56 96.55 196.56 96.55 196.55C96.55 194.65 95.01 193.1 93.1 193.1C91.2 193.1 89.66 191.56 89.66 189.66C89.66 187.75 91.2 186.21 93.1 186.21C91.2 186.21 89.66 184.66 89.66 182.76C89.66 180.86 91.2 179.31 93.1 179.31C95.01 179.31 96.55 180.86 96.55 182.76C96.55 184.66 95.01 186.21 93.1 186.21C95.01 186.21 96.55 187.75 96.55 189.66C96.55 191.56 95.01 193.1 93.1 193.1C91.2 193.1 89.66 194.64 89.66 196.54ZM96.55 196.56C96.55 196.56 96.55 196.56 96.55 196.55C96.55 194.65 98.1 193.1 100 193.1C101.91 193.1 103.45 194.65 103.45 196.55C103.45 198.46 101.91 200 100 200C98.1 200 96.56 198.46 96.55 196.56ZM68.97 24.14C68.97 22.23 67.42 20.69 65.52 20.69C63.61 20.69 62.07 22.23 62.07 24.14C62.07 26.04 63.61 27.59 65.52 27.59C67.42 27.59 68.97 26.04 68.97 24.14ZM68.97 51.74C68.96 53.63 67.42 55.17 65.52 55.17C63.61 55.17 62.07 53.63 62.07 51.72C62.07 49.82 63.61 48.28 65.52 48.28C67.42 48.28 68.96 49.81 68.97 51.71C68.97 49.82 70.51 48.28 72.4 48.28C72.41 48.28 72.41 48.28 72.41 48.28C72.42 48.28 72.42 48.28 72.43 48.28C74.32 48.28 75.86 49.82 75.86 51.72C75.86 53.63 74.32 55.17 72.41 55.17C70.51 55.17 68.97 53.63 68.97 51.74ZM72.4 48.28C70.5 48.27 68.97 46.73 68.97 44.83C68.97 42.92 70.51 41.38 72.41 41.38C74.31 41.38 75.86 39.84 75.86 37.94V37.93V37.92C75.86 36.02 74.31 34.48 72.41 34.48C70.51 34.48 68.97 36.03 68.97 37.93C68.97 39.84 70.51 41.38 72.41 41.38C74.32 41.38 75.86 42.92 75.86 44.83C75.86 46.73 74.32 48.27 72.43 48.28C72.42 48.28 72.42 48.28 72.41 48.28C72.41 48.28 72.41 48.28 72.4 48.28ZM75.86 37.92V37.93V37.94C75.87 39.84 77.41 41.38 79.31 41.38C81.21 41.38 82.75 39.84 82.76 37.94C82.77 39.84 84.31 41.38 86.21 41.38C88.11 41.38 89.66 39.84 89.66 37.93C89.66 36.03 88.11 34.48 86.21 34.48C84.3 34.48 82.76 36.03 82.76 37.93C82.76 36.03 81.21 34.48 79.31 34.48C81.21 34.48 82.76 32.94 82.76 31.03C82.76 29.13 81.21 27.59 79.31 27.59C77.41 27.59 75.86 26.04 75.86 24.14C75.86 22.23 77.41 20.69 79.31 20.69C81.21 20.69 82.76 22.23 82.76 24.14C82.76 26.04 81.21 27.59 79.31 27.59C77.41 27.59 75.86 29.13 75.86 31.03C75.86 32.94 77.41 34.48 79.31 34.48C77.41 34.48 75.87 36.02 75.86 37.92ZM86.21 41.38C84.3 41.38 82.76 42.92 82.76 44.83C82.76 46.73 84.3 48.28 86.21 48.28C88.11 48.28 89.66 46.73 89.66 44.83C89.66 42.92 88.11 41.38 86.21 41.38ZM68.97 86.21C68.97 84.3 67.42 82.76 65.52 82.76C63.61 82.76 62.07 84.3 62.07 86.21C62.07 88.11 63.61 89.66 65.52 89.66C67.42 89.66 68.97 88.11 68.97 86.21ZM75.86 65.53C75.86 67.43 74.31 68.97 72.41 68.97C70.51 68.97 68.97 67.42 68.97 65.52C68.97 63.61 70.51 62.07 72.41 62.07C74.31 62.07 75.86 63.61 75.86 65.51C75.87 63.61 77.41 62.07 79.31 62.07C81.21 62.07 82.76 63.61 82.76 65.52C82.76 67.42 81.21 68.97 79.31 68.97C77.41 68.97 75.87 67.43 75.86 65.53ZM89.66 3.45C89.66 1.54 88.11 0 86.21 0C84.3 0 82.76 1.54 82.76 3.45C82.76 5.35 84.3 6.9 86.21 6.9C88.11 6.9 89.66 5.35 89.66 3.45ZM86.21 6.9C84.3 6.9 82.76 8.44 82.76 10.35C82.76 12.25 84.3 13.79 86.21 13.79C88.11 13.79 89.66 12.25 89.66 10.35C89.66 8.44 88.11 6.9 86.21 6.9ZM89.66 10.35C89.66 12.25 91.2 13.79 93.1 13.79C95.01 13.79 96.55 12.25 96.55 10.35C96.55 12.25 98.1 13.79 100 13.79C98.1 13.79 96.55 15.34 96.55 17.24C96.55 19.15 98.1 20.69 100 20.69C101.9 20.69 103.44 19.15 103.45 17.25C103.45 19.15 105 20.69 106.9 20.69C108.8 20.69 110.35 19.15 110.35 17.24C110.35 15.34 108.8 13.79 106.9 13.79C105 13.79 103.45 12.26 103.45 10.36C103.44 12.26 101.9 13.79 100 13.79C101.9 13.79 103.44 15.33 103.45 17.23C103.45 15.33 105 13.79 106.9 13.79C108.8 13.79 110.35 12.25 110.35 10.35C110.35 8.44 108.8 6.9 106.9 6.9C106.89 6.9 106.89 6.9 106.89 6.9C104.99 6.89 103.45 5.36 103.45 3.46C103.44 5.36 101.9 6.9 100 6.9C101.9 6.9 103.44 8.43 103.45 10.33C103.45 8.44 104.99 6.9 106.89 6.9C106.89 6.9 106.89 6.9 106.9 6.9C108.8 6.9 110.35 5.35 110.35 3.45C110.35 1.54 108.8 0 106.9 0C105 0 103.45 1.54 103.45 3.44C103.44 1.54 101.9 0 100 0C98.1 0 96.55 1.54 96.55 3.45C96.55 5.35 98.1 6.9 100 6.9C98.1 6.9 96.55 8.44 96.55 10.35C96.55 8.44 95.01 6.9 93.1 6.9C91.2 6.9 89.66 8.44 89.66 10.35ZM110.35 17.24C110.35 15.34 111.89 13.79 113.79 13.79C115.7 13.79 117.24 15.34 117.24 17.24C117.24 17.25 117.24 17.25 117.24 17.25C117.25 19.15 118.79 20.69 120.69 20.69C122.59 20.69 124.14 19.15 124.14 17.24C124.14 15.34 122.59 13.79 120.69 13.79C118.79 13.79 117.24 15.34 117.24 17.24C117.24 17.25 117.24 17.25 117.24 17.25C117.24 19.15 115.69 20.69 113.79 20.69C111.89 20.69 110.35 19.15 110.35 17.24ZM113.79 20.69C115.7 20.69 117.24 22.23 117.24 24.14C117.24 26.04 115.7 27.59 113.79 27.59C111.89 27.59 110.35 26.04 110.35 24.14C110.35 22.23 111.89 20.69 113.79 20.69ZM113.79 27.59C115.7 27.59 117.24 29.13 117.24 31.03C117.24 29.13 118.79 27.59 120.69 27.59C122.59 27.59 124.14 29.13 124.14 31.03C124.14 32.94 122.59 34.48 120.69 34.48C118.79 34.48 117.24 32.94 117.24 31.03C117.24 32.94 115.7 34.48 113.79 34.48C111.89 34.48 110.35 32.94 110.35 31.03C110.35 29.13 111.89 27.59 113.79 27.59ZM110.35 31.03C110.35 32.94 108.8 34.48 106.9 34.48C104.99 34.48 103.45 32.94 103.45 31.03C103.45 29.13 104.99 27.59 106.9 27.59C108.8 27.59 110.35 29.13 110.35 31.03ZM120.69 34.48C122.59 34.48 124.14 36.03 124.14 37.93C124.14 36.03 125.68 34.48 127.59 34.48C129.49 34.48 131.03 36.03 131.03 37.93C131.03 39.84 129.49 41.38 127.59 41.38C129.49 41.38 131.03 42.92 131.03 44.83C131.03 46.73 129.49 48.28 127.59 48.28C129.49 48.28 131.03 49.82 131.03 51.72C131.03 53.62 129.5 55.17 127.6 55.17C129.5 55.18 131.03 56.72 131.03 58.62C131.03 60.52 129.49 62.07 127.59 62.07C125.69 62.07 124.14 60.53 124.14 58.63V58.62C124.14 56.72 122.59 55.17 120.69 55.17C122.59 55.17 124.14 53.63 124.14 51.72C124.14 53.63 125.68 55.17 127.59 55.17C125.68 55.17 124.14 56.72 124.14 58.62V58.63C124.13 60.53 122.59 62.07 120.69 62.07C118.79 62.07 117.24 60.52 117.24 58.62C117.24 56.72 118.79 55.17 120.69 55.17C118.79 55.17 117.24 53.63 117.24 51.72C117.24 49.82 118.79 48.28 120.69 48.28C122.59 48.28 124.14 49.82 124.14 51.72C124.14 49.82 125.68 48.28 127.59 48.28C125.68 48.28 124.14 46.73 124.14 44.83C124.14 42.92 125.68 41.38 127.59 41.38C125.69 41.38 124.14 39.84 124.14 37.94C124.13 39.84 122.59 41.38 120.69 41.38C118.79 41.38 117.24 39.84 117.24 37.93C117.24 36.03 118.79 34.48 120.69 34.48ZM131.03 58.62C131.03 56.72 132.58 55.17 134.48 55.17C136.39 55.17 137.93 56.72 137.93 58.62V58.63C137.94 60.53 139.48 62.07 141.38 62.07C143.28 62.07 144.83 60.52 144.83 58.62C144.83 60.52 146.37 62.07 148.28 62.07C150.18 62.07 151.72 60.52 151.72 58.62C151.72 56.72 150.18 55.17 148.28 55.17C146.37 55.17 144.83 56.72 144.83 58.62C144.83 56.72 143.28 55.17 141.38 55.17C139.48 55.17 137.93 56.72 137.93 58.62V58.63C137.93 60.53 136.38 62.07 134.48 62.07C136.39 62.07 137.93 63.61 137.93 65.52C137.93 67.42 136.39 68.97 134.48 68.97C132.58 68.97 131.03 67.42 131.03 65.52C131.03 63.61 132.58 62.07 134.48 62.07C132.58 62.07 131.03 60.52 131.03 58.62ZM117.24 58.62C117.24 60.52 115.7 62.07 113.79 62.07C111.89 62.07 110.35 60.52 110.35 58.62C110.35 56.72 111.89 55.17 113.79 55.17C115.7 55.17 117.24 56.72 117.24 58.62ZM89.66 162.07C89.66 160.17 88.11 158.62 86.21 158.62C84.3 158.62 82.76 160.17 82.76 162.07C82.76 163.97 84.3 165.52 86.21 165.52C88.11 165.52 89.66 163.97 89.66 162.07ZM89.66 175.86C89.66 173.96 88.11 172.41 86.21 172.41C84.3 172.41 82.76 173.96 82.76 175.86C82.76 177.77 84.3 179.31 86.21 179.31C88.11 179.31 89.66 177.77 89.66 175.86ZM96.55 155.19C96.55 157.08 95 158.62 93.1 158.62C91.2 158.62 89.66 157.08 89.66 155.17C89.66 153.27 91.2 151.72 93.1 151.72C95 151.72 96.55 153.26 96.55 155.16C96.56 153.26 98.1 151.72 100 151.72C101.9 151.72 103.44 153.26 103.45 155.16C103.45 153.26 105 151.72 106.9 151.72C104.99 151.72 103.45 150.18 103.45 148.28C103.45 146.37 104.99 144.83 106.9 144.83C105 144.83 103.45 143.29 103.45 141.39C103.44 143.29 101.9 144.83 100 144.83C98.1 144.83 96.55 143.28 96.55 141.38C96.55 139.48 98.1 137.93 100 137.93C101.9 137.93 103.44 139.47 103.45 141.37C103.45 139.47 105 137.93 106.9 137.93C108.8 137.93 110.35 139.48 110.35 141.38C110.35 143.28 108.8 144.83 106.9 144.83C108.8 144.83 110.34 146.37 110.35 148.26C110.35 146.37 111.89 144.83 113.79 144.83C115.7 144.83 117.24 146.37 117.24 148.28C117.24 150.18 115.7 151.72 113.79 151.72C111.89 151.72 110.35 150.19 110.35 148.29C110.34 150.18 108.8 151.72 106.91 151.72C108.81 151.73 110.35 153.27 110.35 155.17C110.35 157.08 108.8 158.62 106.9 158.62C104.99 158.62 103.45 160.17 103.45 162.07C103.45 163.97 104.99 165.52 106.9 165.52C108.8 165.52 110.35 163.97 110.35 162.07C110.35 160.17 108.8 158.62 106.9 158.62C105 158.62 103.45 157.08 103.45 155.19C103.44 157.08 101.9 158.62 100 158.62C98.1 158.62 96.56 157.08 96.55 155.19ZM96.55 168.98C96.55 170.88 95 172.41 93.1 172.41C91.2 172.41 89.66 170.87 89.66 168.97C89.66 167.06 91.2 165.52 93.1 165.52C95 165.52 96.55 167.06 96.55 168.95C96.56 167.06 98.1 165.52 100 165.52C101.91 165.52 103.45 167.06 103.45 168.97C103.45 170.87 101.91 172.41 100 172.41C98.1 172.41 96.56 170.88 96.55 168.98ZM103.45 37.93C103.45 36.03 101.91 34.48 100 34.48C98.1 34.48 96.55 36.03 96.55 37.93C96.55 39.84 98.1 41.38 100 41.38C101.91 41.38 103.45 39.84 103.45 37.93ZM100 41.38C98.1 41.38 96.55 42.92 96.55 44.83C96.55 46.73 98.1 48.28 100 48.28C101.91 48.28 103.45 46.73 103.45 44.83C103.45 42.92 101.91 41.38 100 41.38ZM103.45 65.52C103.45 63.61 101.91 62.07 100 62.07C98.1 62.07 96.55 63.61 96.55 65.52C96.55 67.42 98.1 68.97 100 68.97C101.91 68.97 103.45 67.42 103.45 65.52ZM110.35 175.86C110.35 173.96 108.8 172.41 106.9 172.41C104.99 172.41 103.45 173.96 103.45 175.86C103.45 177.77 104.99 179.31 106.9 179.31C108.8 179.31 110.35 177.77 110.35 175.86ZM110.35 189.66C110.35 187.75 108.8 186.21 106.9 186.21C104.99 186.21 103.45 187.75 103.45 189.66C103.45 191.56 104.99 193.1 106.9 193.1C108.8 193.1 110.35 191.56 110.35 189.66ZM117.24 44.83C117.24 42.92 115.7 41.38 113.79 41.38C111.89 41.38 110.35 42.92 110.35 44.83C110.35 46.73 111.89 48.28 113.79 48.28C115.7 48.28 117.24 46.73 117.24 44.83ZM117.24 134.48C117.24 132.58 115.7 131.03 113.79 131.03C111.89 131.03 110.35 132.58 110.35 134.48C110.35 136.39 111.89 137.93 113.79 137.93C115.7 137.93 117.24 136.39 117.24 134.48ZM124.14 3.45C124.14 1.54 122.59 0 120.69 0C118.79 0 117.24 1.54 117.24 3.45C117.24 5.35 118.79 6.9 120.69 6.9C122.59 6.9 124.14 5.35 124.14 3.45ZM124.14 155.17C124.14 153.27 122.59 151.72 120.69 151.72C118.79 151.72 117.24 153.27 117.24 155.17C117.24 157.08 118.79 158.62 120.69 158.62C122.59 158.62 124.14 157.08 124.14 155.17ZM120.69 158.62C122.59 158.62 124.14 160.17 124.14 162.07C124.14 163.97 122.59 165.52 120.69 165.52C118.79 165.52 117.24 163.97 117.24 162.07C117.24 160.17 118.79 158.62 120.69 158.62ZM120.69 165.52C122.59 165.52 124.14 167.06 124.14 168.97C124.14 168.97 124.14 168.97 124.14 168.98C124.14 170.87 125.68 172.41 127.58 172.41C125.68 172.42 124.14 173.96 124.14 175.86C124.14 177.77 125.68 179.31 127.59 179.31C125.68 179.31 124.14 180.86 124.14 182.76C124.14 184.66 125.68 186.21 127.59 186.21C129.49 186.21 131.03 184.66 131.03 182.76C131.03 180.86 129.49 179.31 127.59 179.31C129.49 179.31 131.03 177.77 131.03 175.86C131.03 177.77 132.58 179.31 134.48 179.31C136.39 179.31 137.93 177.77 137.93 175.86C137.93 173.96 139.48 172.41 141.38 172.41C143.28 172.41 144.83 173.96 144.83 175.86C144.83 177.77 143.28 179.31 141.38 179.31C139.48 179.31 137.93 177.77 137.93 175.86C137.93 173.96 136.39 172.41 134.48 172.41C136.38 172.41 137.93 170.88 137.93 168.98C137.94 170.88 139.48 172.41 141.38 172.41C143.28 172.41 144.83 170.87 144.83 168.97C144.83 170.87 146.37 172.41 148.28 172.41C150.18 172.41 151.72 170.87 151.72 168.97C151.72 167.06 150.18 165.52 148.28 165.52C146.37 165.52 144.83 167.06 144.83 168.97C144.83 167.06 143.28 165.52 141.38 165.52C143.28 165.52 144.83 163.97 144.83 162.07C144.83 160.17 143.28 158.62 141.38 158.62C143.28 158.62 144.83 157.08 144.83 155.17C144.83 153.27 143.28 151.72 141.38 151.72C143.28 151.72 144.83 150.18 144.83 148.28C144.83 146.37 143.28 144.83 141.38 144.83C139.48 144.83 137.93 143.28 137.93 141.38C137.93 139.48 139.48 137.93 141.38 137.93C143.28 137.93 144.83 139.48 144.83 141.38C144.83 143.28 143.28 144.83 141.38 144.83C139.48 144.83 137.93 146.37 137.93 148.28C137.93 150.18 139.48 151.72 141.38 151.72C139.48 151.72 137.93 153.27 137.93 155.17C137.93 157.08 139.48 158.62 141.38 158.62C139.48 158.62 137.93 160.17 137.93 162.07C137.93 163.97 139.48 165.52 141.38 165.52C139.48 165.52 137.93 167.06 137.93 168.97C137.93 167.06 136.39 165.52 134.48 165.52C132.58 165.52 131.04 167.06 131.03 168.95C131.03 168.96 131.03 168.96 131.03 168.97C131.03 170.87 129.5 172.41 127.6 172.41C129.5 172.42 131.03 173.96 131.03 175.86C131.03 173.96 132.58 172.41 134.48 172.41C132.58 172.41 131.03 170.87 131.03 168.97C131.03 168.96 131.03 168.96 131.03 168.95C131.03 167.06 129.49 165.52 127.59 165.52C125.68 165.52 124.14 167.06 124.14 168.97C124.14 168.97 124.14 168.97 124.14 168.98C124.13 170.88 122.59 172.41 120.69 172.41C118.79 172.41 117.24 170.87 117.24 168.97C117.24 167.06 118.79 165.52 120.69 165.52ZM144.83 141.38C144.83 143.28 146.37 144.83 148.28 144.83C150.18 144.83 151.72 143.28 151.72 141.38V141.37C151.73 139.47 153.27 137.93 155.17 137.93C153.27 137.93 151.73 136.39 151.72 134.49C151.72 136.39 150.18 137.93 148.28 137.93C146.37 137.93 144.83 139.48 144.83 141.38ZM151.72 141.38V141.37C151.72 139.47 150.18 137.93 148.28 137.93C146.37 137.93 144.83 136.39 144.83 134.48C144.83 132.58 146.37 131.03 148.28 131.03C150.18 131.03 151.72 132.57 151.72 134.47C151.73 132.57 153.27 131.03 155.17 131.03C157.08 131.03 158.62 132.58 158.62 134.48C158.62 132.58 160.17 131.03 162.07 131.03C160.17 131.03 158.62 129.49 158.62 127.59C158.62 125.68 160.17 124.14 162.07 124.14C163.97 124.14 165.52 122.59 165.52 120.69C165.52 118.79 163.97 117.24 162.07 117.24C160.17 117.24 158.63 118.78 158.62 120.68C158.62 118.78 157.08 117.25 155.19 117.24C157.08 117.24 158.62 115.69 158.62 113.79C158.62 111.89 157.08 110.35 155.17 110.35C157.08 110.35 158.62 108.8 158.62 106.9C158.62 105 157.08 103.45 155.19 103.45C157.08 103.44 158.62 101.9 158.62 100C158.62 98.1 157.08 96.55 155.17 96.55C153.27 96.55 151.73 98.09 151.72 99.99C151.72 98.09 150.18 96.55 148.28 96.55C146.37 96.55 144.83 98.1 144.83 100C144.83 101.9 146.37 103.44 148.26 103.45C146.37 103.45 144.83 105 144.83 106.9C144.83 108.8 146.37 110.35 148.28 110.35C150.18 110.35 151.72 108.8 151.72 106.9C151.72 108.8 153.26 110.34 155.16 110.35C153.26 110.35 151.72 111.89 151.72 113.79C151.72 115.7 153.27 117.24 155.17 117.24C153.27 117.24 151.72 118.79 151.72 120.69C151.72 122.59 153.27 124.14 155.17 124.14C157.07 124.14 158.62 122.6 158.62 120.7C158.63 122.6 160.17 124.14 162.07 124.14C163.97 124.14 165.51 125.68 165.52 127.58C165.52 125.68 167.07 124.14 168.97 124.14C170.87 124.14 172.41 125.68 172.41 127.59C172.41 129.49 170.88 131.03 168.98 131.03C170.88 131.04 172.41 132.58 172.41 134.48C172.41 136.38 170.88 137.93 168.98 137.93C170.88 137.94 172.41 139.48 172.41 141.38C172.41 143.28 170.87 144.83 168.97 144.83C167.06 144.83 165.52 146.37 165.52 148.28C165.52 150.18 167.06 151.72 168.97 151.72C170.87 151.72 172.41 153.27 172.41 155.17C172.41 157.08 170.87 158.62 168.97 158.62C167.06 158.62 165.52 160.17 165.52 162.07C165.52 163.97 167.06 165.52 168.97 165.52C170.87 165.52 172.41 163.97 172.41 162.07C172.41 163.97 173.96 165.52 175.86 165.52C177.77 165.52 179.31 163.97 179.31 162.07C179.31 160.17 177.77 158.62 175.86 158.62C173.96 158.62 172.42 160.16 172.41 162.06C172.41 160.16 170.87 158.62 168.97 158.62C167.06 158.62 165.52 157.08 165.52 155.17C165.52 153.27 167.06 151.72 168.97 151.72C170.87 151.72 172.41 150.18 172.41 148.28C172.41 146.37 170.87 144.83 168.97 144.83C167.06 144.83 165.52 143.28 165.52 141.38C165.52 143.28 163.97 144.83 162.07 144.83C160.17 144.83 158.62 143.28 158.62 141.38C158.62 143.28 157.08 144.83 155.17 144.83C153.27 144.83 151.72 143.28 151.72 141.38ZM155.19 137.93C157.08 137.94 158.62 139.48 158.62 141.38C158.62 139.48 160.17 137.93 162.07 137.93C163.97 137.93 165.51 139.47 165.52 141.37C165.52 139.47 167.07 137.93 168.97 137.93C167.07 137.93 165.52 136.39 165.52 134.49C165.51 136.39 163.97 137.93 162.07 137.93C160.17 137.93 158.63 136.39 158.62 134.49C158.62 136.39 157.08 137.93 155.19 137.93ZM168.97 131.03C167.06 131.03 165.52 132.58 165.52 134.48C165.52 132.58 163.98 131.04 162.08 131.03C163.98 131.03 165.51 129.49 165.52 127.6C165.52 129.5 167.07 131.03 168.97 131.03ZM148.28 131.03C146.37 131.03 144.83 129.49 144.83 127.59C144.83 125.68 146.37 124.14 148.28 124.14C150.18 124.14 151.72 125.68 151.72 127.59C151.72 129.49 150.18 131.03 148.28 131.03ZM151.72 168.97C151.72 167.06 153.27 165.52 155.17 165.52C157.08 165.52 158.62 167.06 158.62 168.97C158.62 167.06 160.17 165.52 162.07 165.52C163.97 165.52 165.51 167.06 165.52 168.95C165.52 167.06 167.07 165.52 168.97 165.52C170.87 165.52 172.41 167.06 172.41 168.97C172.41 170.87 170.87 172.41 168.97 172.41C167.06 172.41 165.52 170.87 165.52 168.97C165.52 170.87 163.97 172.41 162.07 172.41C160.17 172.41 158.62 170.87 158.62 168.97C158.62 170.87 157.08 172.41 155.17 172.41C153.27 172.41 151.72 170.87 151.72 168.97ZM162.07 172.41C163.97 172.41 165.52 173.96 165.52 175.86C165.52 177.77 163.97 179.31 162.07 179.31C160.17 179.31 158.62 177.77 158.62 175.86C158.62 173.96 160.17 172.41 162.07 172.41ZM144.83 100C144.83 98.1 143.29 96.56 141.39 96.55C143.29 96.55 144.83 95 144.83 93.1C144.83 91.2 143.28 89.66 141.38 89.66C143.28 89.66 144.83 88.11 144.83 86.21C144.83 84.31 146.37 82.77 148.26 82.76C148.27 82.76 148.27 82.76 148.28 82.76C150.18 82.76 151.72 81.21 151.72 79.31C151.72 77.41 150.18 75.86 148.28 75.86C150.18 75.86 151.72 74.32 151.72 72.41C151.72 70.51 150.18 68.97 148.28 68.97C146.37 68.97 144.83 70.51 144.83 72.41C144.83 74.32 146.37 75.86 148.28 75.86C146.37 75.86 144.83 77.41 144.83 79.31C144.83 81.21 143.28 82.76 141.38 82.76C139.48 82.76 137.93 81.21 137.93 79.31C137.93 77.41 136.39 75.86 134.48 75.86C132.58 75.86 131.03 77.41 131.03 79.31C131.03 81.21 132.58 82.76 134.48 82.76C136.39 82.76 137.93 81.21 137.93 79.31C137.93 77.41 139.48 75.86 141.38 75.86C143.28 75.86 144.83 77.41 144.83 79.31C144.83 81.21 146.37 82.75 148.26 82.76C148.27 82.76 148.27 82.76 148.28 82.76C150.18 82.76 151.72 84.3 151.72 86.2C151.73 84.3 153.27 82.76 155.17 82.76C157.08 82.76 158.62 84.3 158.62 86.21C158.62 88.11 157.08 89.66 155.17 89.66C153.27 89.66 151.73 88.12 151.72 86.22C151.72 88.12 150.18 89.66 148.28 89.66C146.37 89.66 144.83 88.11 144.83 86.21C144.83 84.3 143.28 82.76 141.38 82.76C139.48 82.76 137.93 84.3 137.93 86.21C137.93 88.11 139.47 89.65 141.37 89.66C139.47 89.66 137.93 91.2 137.93 93.1C137.93 95 139.47 96.55 141.37 96.55C139.47 96.56 137.93 98.1 137.93 100C137.93 101.9 139.48 103.45 141.38 103.45C143.28 103.45 144.83 101.9 144.83 100ZM151.72 106.9C151.72 105 150.19 103.45 148.29 103.45C150.18 103.44 151.72 101.91 151.72 100.01C151.73 101.91 153.27 103.44 155.16 103.45C153.26 103.45 151.72 105 151.72 106.9ZM124.14 196.55C124.14 194.65 122.59 193.1 120.69 193.1C118.79 193.1 117.24 194.65 117.24 196.55C117.24 198.46 118.79 200 120.69 200C122.59 200 124.14 198.46 124.14 196.55C124.14 198.46 125.68 200 127.59 200C129.49 200 131.03 198.46 131.03 196.55C131.03 198.46 132.58 200 134.48 200C136.39 200 137.93 198.46 137.93 196.55V196.54C137.94 194.64 139.48 193.1 141.38 193.1H141.39C143.29 193.11 144.83 194.65 144.83 196.55C144.83 198.46 143.28 200 141.38 200C139.48 200 137.93 198.46 137.93 196.55V196.54C137.93 194.64 136.38 193.1 134.48 193.1C132.58 193.1 131.03 194.65 131.03 196.55C131.03 194.65 129.49 193.1 127.59 193.1C125.68 193.1 124.14 194.65 124.14 196.55ZM144.83 196.55C144.83 194.65 146.37 193.1 148.28 193.1C146.37 193.1 144.83 191.56 144.83 189.66C144.83 187.75 143.28 186.21 141.38 186.21C139.48 186.21 137.94 187.75 137.93 189.64C137.93 189.65 137.93 189.65 137.93 189.66C137.93 191.56 136.39 193.1 134.48 193.1C132.58 193.1 131.03 191.56 131.03 189.66C131.03 187.75 132.58 186.21 134.48 186.21C136.38 186.21 137.93 187.75 137.93 189.64C137.93 189.65 137.93 189.65 137.93 189.66C137.93 191.56 139.48 193.1 141.38 193.1H141.39C143.29 193.1 144.83 191.56 144.83 189.66C144.83 187.75 146.37 186.21 148.28 186.21C150.18 186.21 151.72 187.75 151.72 189.66C151.72 191.56 150.19 193.1 148.29 193.1C150.18 193.11 151.72 194.65 151.72 196.54C151.73 194.64 153.27 193.1 155.17 193.1C157.08 193.1 158.62 194.65 158.62 196.55C158.62 198.46 157.08 200 155.17 200C153.27 200 151.73 198.46 151.72 196.56C151.72 198.46 150.18 200 148.28 200C146.37 200 144.83 198.46 144.83 196.55ZM148.28 186.21C150.18 186.21 151.72 184.66 151.72 182.76C151.72 180.86 150.18 179.31 148.28 179.31C146.37 179.31 144.83 180.86 144.83 182.76C144.83 184.66 146.37 186.21 148.28 186.21ZM131.03 141.38C131.03 139.48 129.49 137.93 127.59 137.93C125.68 137.93 124.14 139.48 124.14 141.38C124.14 143.28 125.68 144.83 127.59 144.83C129.49 144.83 131.03 143.28 131.03 141.38ZM137.93 17.24C137.93 15.34 136.39 13.79 134.48 13.79C132.58 13.79 131.03 15.34 131.03 17.24C131.03 19.15 132.58 20.69 134.48 20.69C132.58 20.69 131.03 22.23 131.03 24.14C131.03 26.04 132.58 27.59 134.48 27.59C136.39 27.59 137.93 26.04 137.93 24.14C137.93 22.23 136.39 20.69 134.48 20.69C136.39 20.69 137.93 19.15 137.93 17.24C137.93 19.15 139.48 20.69 141.38 20.69C143.28 20.69 144.83 19.15 144.83 17.24C144.83 15.34 143.28 13.79 141.38 13.79C143.28 13.79 144.83 12.25 144.83 10.35C144.83 8.44 143.28 6.9 141.38 6.9C143.28 6.9 144.83 5.35 144.83 3.45C144.83 1.54 143.28 0 141.38 0C139.48 0 137.93 1.54 137.93 3.45C137.93 5.35 139.47 6.89 141.37 6.9C139.47 6.9 137.93 8.44 137.93 10.35C137.93 12.25 139.48 13.79 141.38 13.79C139.48 13.79 137.93 15.34 137.93 17.24ZM134.48 27.59C132.58 27.59 131.03 29.13 131.03 31.03C131.03 32.94 132.58 34.48 134.48 34.48C136.39 34.48 137.93 32.94 137.93 31.03C137.93 29.13 136.39 27.59 134.48 27.59ZM137.93 106.9C137.93 104.99 136.39 103.45 134.48 103.45C132.58 103.45 131.03 104.99 131.03 106.9C131.03 108.8 132.58 110.35 134.48 110.35C132.58 110.35 131.03 111.89 131.03 113.79C131.03 115.7 132.58 117.24 134.48 117.24C136.39 117.24 137.93 118.79 137.93 120.69C137.93 118.79 139.48 117.24 141.38 117.24C143.28 117.24 144.83 118.79 144.83 120.69C144.83 122.59 143.28 124.14 141.38 124.14C139.48 124.14 137.94 122.6 137.93 120.7C137.93 122.6 136.38 124.14 134.48 124.14C136.39 124.14 137.93 125.68 137.93 127.59C137.93 129.49 136.39 131.03 134.48 131.03C132.58 131.03 131.03 129.49 131.03 127.59C131.03 125.68 132.58 124.14 134.48 124.14C132.58 124.14 131.03 122.59 131.03 120.69C131.03 118.79 132.58 117.24 134.48 117.24C136.39 117.24 137.93 115.7 137.93 113.79C137.93 111.89 136.39 110.35 134.48 110.35C136.39 110.35 137.93 108.8 137.93 106.9ZM134.48 131.03C132.58 131.03 131.03 132.58 131.03 134.48C131.03 136.39 132.58 137.93 134.48 137.93C136.39 137.93 137.93 136.39 137.93 134.48C137.93 132.58 136.39 131.03 134.48 131.03ZM144.83 37.93C144.83 36.03 143.28 34.48 141.38 34.48C139.48 34.48 137.93 36.03 137.93 37.93C137.93 39.84 139.48 41.38 141.38 41.38C139.48 41.38 137.93 42.92 137.93 44.83C137.93 46.73 139.48 48.28 141.38 48.28C143.28 48.28 144.83 46.73 144.83 44.83C144.83 42.92 143.28 41.38 141.38 41.38C143.28 41.38 144.83 39.84 144.83 37.93ZM158.62 65.52C158.62 63.61 157.08 62.07 155.17 62.07C153.27 62.07 151.72 63.61 151.72 65.52C151.72 67.42 153.27 68.97 155.17 68.97C157.08 68.97 158.62 67.42 158.62 65.52C158.62 63.61 160.17 62.07 162.07 62.07C163.97 62.07 165.51 63.61 165.52 65.51C165.52 63.61 167.07 62.07 168.97 62.07C170.87 62.07 172.41 63.61 172.41 65.52C172.41 67.42 170.87 68.97 168.97 68.97C167.07 68.97 165.52 67.43 165.52 65.53C165.51 67.43 163.97 68.97 162.07 68.97C160.17 68.97 158.62 67.42 158.62 65.52ZM168.97 62.07C170.87 62.07 172.41 60.52 172.41 58.62C172.41 56.72 170.87 55.17 168.97 55.17C167.06 55.17 165.52 56.72 165.52 58.62C165.52 60.52 167.06 62.07 168.97 62.07ZM158.62 155.17C158.62 153.27 157.08 151.72 155.17 151.72C153.27 151.72 151.72 153.27 151.72 155.17C151.72 157.08 153.27 158.62 155.17 158.62C157.08 158.62 158.62 157.08 158.62 155.17ZM165.52 79.31C165.52 77.41 163.97 75.86 162.07 75.86C160.17 75.86 158.62 77.41 158.62 79.31C158.62 81.21 160.17 82.76 162.07 82.76C163.97 82.76 165.52 81.21 165.52 79.31ZM165.52 189.66C165.52 187.75 163.97 186.21 162.07 186.21C160.17 186.21 158.62 187.75 158.62 189.66C158.62 191.56 160.17 193.1 162.07 193.1C163.97 193.1 165.52 191.56 165.52 189.66C165.52 191.56 167.06 193.1 168.95 193.1C167.06 193.11 165.52 194.65 165.52 196.55C165.52 198.46 167.06 200 168.97 200C170.87 200 172.41 198.46 172.41 196.55C172.41 194.65 170.88 193.11 168.98 193.1C170.88 193.1 172.41 191.56 172.41 189.66C172.41 187.75 170.87 186.21 168.97 186.21C167.06 186.21 165.52 187.75 165.52 189.66ZM172.41 189.66C172.41 191.56 173.96 193.1 175.86 193.1C177.77 193.1 179.31 191.56 179.31 189.66C179.31 191.56 180.85 193.1 182.75 193.1C180.85 193.11 179.31 194.65 179.31 196.55C179.31 198.46 180.86 200 182.76 200C184.66 200 186.21 198.46 186.21 196.55C186.21 198.46 187.75 200 189.66 200C191.56 200 193.1 198.46 193.1 196.55C193.1 194.65 191.57 193.11 189.67 193.1C191.57 193.1 193.1 191.56 193.1 189.66C193.1 187.75 194.65 186.21 196.55 186.21C198.46 186.21 200 187.75 200 189.66C200 191.56 198.46 193.1 196.55 193.1C194.65 193.1 193.1 191.56 193.1 189.66C193.1 187.75 191.56 186.21 189.66 186.21C187.75 186.21 186.21 187.75 186.21 189.66C186.21 191.56 187.75 193.1 189.64 193.1C187.75 193.11 186.21 194.65 186.21 196.55C186.21 194.65 184.67 193.11 182.77 193.1C184.67 193.1 186.21 191.56 186.21 189.66C186.21 187.75 184.66 186.21 182.76 186.21C180.86 186.21 179.32 187.75 179.31 189.64C179.3 187.75 177.76 186.21 175.86 186.21C173.96 186.21 172.41 187.75 172.41 189.66ZM182.76 186.21C184.66 186.21 186.21 184.66 186.21 182.76C186.21 180.86 184.66 179.31 182.76 179.31C180.86 179.31 179.31 177.77 179.31 175.86C179.31 177.77 177.77 179.31 175.86 179.31C173.96 179.31 172.41 177.77 172.41 175.86C172.41 173.96 173.96 172.41 175.86 172.41C177.77 172.41 179.31 173.96 179.31 175.86C179.31 173.96 180.86 172.41 182.76 172.41C184.66 172.41 186.21 173.96 186.21 175.86C186.21 177.77 187.75 179.31 189.66 179.31C191.56 179.31 193.1 177.77 193.1 175.87C193.11 177.77 194.65 179.31 196.55 179.31C198.46 179.31 200 177.77 200 175.86C200 173.96 198.46 172.41 196.55 172.41C194.65 172.41 193.1 170.87 193.1 168.97C193.1 167.06 194.65 165.52 196.55 165.52C198.46 165.52 200 167.06 200 168.97C200 170.87 198.46 172.41 196.55 172.41C194.65 172.41 193.1 173.96 193.1 175.86C193.1 173.96 191.56 172.41 189.66 172.41C187.75 172.41 186.21 173.96 186.21 175.86C186.21 177.77 184.66 179.31 182.76 179.31C180.86 179.31 179.31 180.86 179.31 182.76C179.31 184.66 180.86 186.21 182.76 186.21ZM172.41 93.1C172.41 91.2 170.87 89.66 168.97 89.66C167.06 89.66 165.52 91.2 165.52 93.1C165.52 95.01 167.06 96.55 168.97 96.55C170.87 96.55 172.41 95.01 172.41 93.1C172.41 91.2 173.96 89.66 175.86 89.66C177.77 89.66 179.31 91.2 179.31 93.1C179.31 95.01 177.77 96.55 175.86 96.55C173.96 96.55 172.41 95.01 172.41 93.1ZM168.97 96.55C167.06 96.55 165.52 98.1 165.52 100C165.52 101.9 167.06 103.44 168.95 103.45C167.06 103.45 165.52 105 165.52 106.9C165.52 108.8 167.06 110.35 168.97 110.35C170.87 110.35 172.41 108.8 172.41 106.9C172.41 105 170.88 103.45 168.98 103.45C170.88 103.44 172.41 101.9 172.41 100C172.41 98.1 170.87 96.55 168.97 96.55ZM179.31 79.31C179.31 77.41 177.77 75.86 175.86 75.86C173.96 75.86 172.41 77.41 172.41 79.31C172.41 81.21 173.96 82.76 175.86 82.76C177.77 82.76 179.31 81.21 179.31 79.31C179.31 81.21 180.86 82.76 182.76 82.76C184.66 82.76 186.21 81.21 186.21 79.31C186.21 77.41 184.66 75.86 182.76 75.86C184.66 75.86 186.21 74.32 186.21 72.41C186.21 70.51 184.66 68.97 182.76 68.97C180.86 68.97 179.31 70.51 179.31 72.41C179.31 74.32 180.86 75.86 182.76 75.86C180.86 75.86 179.31 77.41 179.31 79.31ZM186.21 79.31C186.21 77.41 187.75 75.86 189.66 75.86C191.56 75.86 193.1 77.4 193.1 79.3C193.11 77.4 194.65 75.86 196.55 75.86C198.46 75.86 200 77.41 200 79.31C200 81.21 198.46 82.76 196.55 82.76C194.65 82.76 193.1 81.21 193.1 79.31C193.1 81.21 191.56 82.76 189.66 82.76C187.75 82.76 186.21 81.21 186.21 79.31ZM179.31 113.79C179.31 111.89 177.77 110.35 175.86 110.35C173.96 110.35 172.41 111.89 172.41 113.79C172.41 115.7 173.96 117.24 175.86 117.24C177.77 117.24 179.31 115.7 179.31 113.79C179.31 115.7 180.86 117.24 182.76 117.24C184.66 117.24 186.21 115.7 186.21 113.79C186.21 111.89 184.66 110.35 182.76 110.35C180.86 110.35 179.31 111.89 179.31 113.79ZM175.86 117.24C177.77 117.24 179.31 118.79 179.31 120.69C179.31 122.59 177.77 124.14 175.86 124.14C173.96 124.14 172.41 122.59 172.41 120.69C172.41 118.79 173.96 117.24 175.86 117.24ZM186.21 100C186.21 98.1 184.66 96.55 182.76 96.55C180.86 96.55 179.31 98.1 179.31 100C179.31 101.9 180.86 103.45 182.76 103.45C184.66 103.45 186.21 101.9 186.21 100ZM186.21 127.59C186.21 125.68 184.66 124.14 182.76 124.14C180.86 124.14 179.31 125.68 179.31 127.59C179.31 129.49 180.86 131.03 182.76 131.03C184.66 131.03 186.21 132.58 186.21 134.48C186.21 136.39 184.66 137.93 182.76 137.93C184.66 137.93 186.21 139.48 186.21 141.38C186.21 143.28 187.75 144.83 189.66 144.83C191.56 144.83 193.1 143.28 193.1 141.38C193.1 139.48 194.65 137.93 196.55 137.93C198.46 137.93 200 139.48 200 141.38C200 143.28 198.46 144.83 196.55 144.83C198.46 144.83 200 146.37 200 148.28C200 150.18 198.46 151.72 196.55 151.72C194.65 151.72 193.1 150.18 193.1 148.28C193.1 150.18 191.56 151.72 189.66 151.72C187.75 151.72 186.21 153.27 186.21 155.17C186.21 157.08 187.75 158.62 189.66 158.62C191.56 158.62 193.1 160.17 193.1 162.07C193.1 163.97 191.56 165.52 189.66 165.52C187.75 165.52 186.21 163.97 186.21 162.07C186.21 160.17 187.75 158.62 189.66 158.62C191.56 158.62 193.1 157.08 193.1 155.17C193.1 153.27 191.56 151.72 189.66 151.72C187.75 151.72 186.21 150.18 186.21 148.28C186.21 146.37 184.66 144.83 182.76 144.83C180.86 144.83 179.31 146.37 179.31 148.28C179.31 150.18 180.86 151.72 182.76 151.72C184.66 151.72 186.21 150.18 186.21 148.28C186.21 146.37 187.75 144.83 189.66 144.83C191.56 144.83 193.1 146.37 193.1 148.28C193.1 146.37 194.65 144.83 196.55 144.83C194.65 144.83 193.1 143.28 193.1 141.38C193.1 139.48 191.56 137.93 189.66 137.93C187.75 137.93 186.21 139.48 186.21 141.38C186.21 143.28 184.66 144.83 182.76 144.83C180.86 144.83 179.31 143.28 179.31 141.38C179.31 139.48 180.86 137.93 182.76 137.93C180.86 137.93 179.31 136.39 179.31 134.48C179.31 132.58 180.86 131.03 182.76 131.03C184.66 131.03 186.21 129.49 186.21 127.59C186.21 125.68 187.75 124.14 189.66 124.14C191.56 124.14 193.1 122.59 193.1 120.69C193.1 122.59 194.65 124.14 196.55 124.14C198.46 124.14 200 122.59 200 120.69C200 118.79 198.46 117.24 196.55 117.24C194.65 117.24 193.11 118.78 193.1 120.68C193.1 118.78 191.56 117.24 189.66 117.24C187.75 117.24 186.21 118.79 186.21 120.69C186.21 122.59 187.75 124.14 189.66 124.14C191.56 124.14 193.1 125.68 193.1 127.59C193.1 129.49 191.56 131.03 189.66 131.03C187.75 131.03 186.21 129.49 186.21 127.59ZM193.1 58.62C193.1 56.72 191.56 55.17 189.66 55.17C187.75 55.17 186.21 56.72 186.21 58.62C186.21 60.52 187.75 62.07 189.66 62.07C187.75 62.07 186.21 63.61 186.21 65.52C186.21 67.42 187.75 68.97 189.66 68.97C191.56 68.97 193.1 67.42 193.1 65.52C193.1 63.61 191.56 62.07 189.66 62.07C191.56 62.07 193.1 60.52 193.1 58.62ZM200 106.9C200 104.99 198.46 103.45 196.55 103.45C194.65 103.45 193.1 104.99 193.1 106.9C193.1 108.8 194.65 110.35 196.55 110.35C198.46 110.35 200 108.8 200 106.9Z" fill="#6B7280"/>
<path d="M17.24 48.28H31.03C40.55 48.28 48.27 40.56 48.28 31.04V17.24C48.27 7.72 40.55 0 31.03 0H17.24C7.72 0 0 7.72 0 17.24V31.03C0 40.56 7.72 48.28 17.24 48.28ZM17.24 6.9H31.03C36.75 6.9 41.38 11.53 41.38 17.24V31.03C41.38 36.75 36.75 41.38 31.03 41.38H17.24C11.53 41.38 6.9 36.75 6.9 31.03V17.24C6.9 11.53 11.53 6.9 17.24 6.9Z" fill="#707380"/>
<path d="M34.48 24.14V24.13C34.48 18.42 29.85 13.79 24.14 13.79C18.43 13.79 13.79 18.43 13.79 24.14C13.79 29.85 18.43 34.48 24.14 34.48C29.85 34.48 34.48 29.85 34.48 24.14Z" fill="#707380"/>
<path d="M168.97 48.28H182.76C192.28 48.28 200 40.56 200 31.03V17.24C200 7.72 192.28 0 182.76 0H168.97C159.45 0 151.72 7.72 151.72 17.24V31.03C151.72 40.56 159.45 48.28 168.97 48.28ZM193.1 17.24V31.03C193.1 36.75 188.47 41.38 182.76 41.38H168.97C163.25 41.38 158.62 36.75 158.62 31.03V17.24C158.62 11.53 163.25 6.9 168.97 6.9H182.76C188.47 6.9 193.1 11.53 193.1 17.24Z" fill="#6B7280"/>
<path d="M186.21 24.14C186.21 18.43 181.57 13.79 175.86 13.79C170.15 13.79 165.52 18.43 165.52 24.14C165.52 29.85 170.15 34.48 175.86 34.48C181.57 34.48 186.21 29.85 186.21 24.14Z" fill="#6B7280"/>
<path d="M17.24 200H31.03C40.56 200 48.28 192.28 48.28 182.76V168.97C48.28 159.45 40.56 151.73 31.04 151.72H17.24C7.72 151.73 0 159.45 0 168.96V182.76C0 192.28 7.72 200 17.24 200ZM6.9 182.76V168.97C6.9 163.25 11.53 158.62 17.24 158.62H31.03C36.75 158.62 41.38 163.25 41.38 168.97V182.76C41.38 188.47 36.75 193.1 31.03 193.1H17.24C11.53 193.1 6.9 188.47 6.9 182.76Z" fill="#6B7280"/>
<path d="M34.48 175.87V175.86C34.48 170.15 29.85 165.52 24.14 165.52H24.13C18.42 165.52 13.79 170.15 13.79 175.86C13.79 181.57 18.43 186.21 24.14 186.21C29.85 186.21 34.48 181.58 34.48 175.87Z" fill="#6B7280"/>
<path fill-rule="evenodd" clip-rule="evenodd" d="M112.48 78.82C114.84 79.41 116.08 82.26 115.25 85.16C114.42 88.07 111.83 89.95 109.48 89.36C107.13 88.77 105.89 85.92 106.71 83.02C107.54 80.12 110.14 78.23 112.48 78.82ZM103.7 98.33L102.73 97.48C104.18 95.66 105.51 94.37 106.71 93.6C107.91 92.83 108.94 92.44 109.78 92.44C110.24 92.44 110.6 92.56 110.84 92.79C111.1 93.03 111.22 93.34 111.22 93.74C111.22 94.21 110.75 96.25 109.8 99.84C108.26 105.71 107.49 109.25 107.49 110.45C107.49 110.68 107.54 110.88 107.64 111.03C107.74 111.19 107.85 111.27 107.97 111.27C108.43 111.27 109.62 110.25 111.55 108.19L112.39 109.14C110.41 111.27 108.95 112.63 108.04 113.23C107.11 113.82 106.37 114.12 105.79 114.12C105.27 114.12 104.87 113.94 104.57 113.58C104.28 113.21 104.13 112.71 104.13 112.06C104.13 110 105.22 104.95 107.4 96.91C107.5 96.53 107.56 96.19 107.56 95.9C107.56 95.57 107.43 95.4 107.16 95.4C106.87 95.4 106.54 95.53 106.17 95.8C105.8 96.06 104.97 96.9 103.7 98.33ZM91.61 103.61C93.94 102.41 95.7 101.14 96.89 99.76C97.69 98.8 98.09 97.85 98.09 96.91C98.09 96.2 97.92 95.63 97.6 95.21C97.27 94.79 96.84 94.58 96.31 94.58C95.78 94.58 95.26 94.81 94.74 95.27C94.06 95.89 93.48 96.81 93.02 98.05C92.35 99.87 91.88 101.72 91.61 103.61ZM99.24 107.21L99.96 108.3C96.4 112.15 93.34 114.07 90.79 114.07C89.76 114.07 88.98 113.67 88.43 112.88C87.88 112.09 87.61 110.81 87.61 109.06C87.61 105.52 88.55 102 90.44 98.49C92.57 94.52 95.11 92.52 98.06 92.52C99.09 92.52 99.88 92.82 100.43 93.4C100.98 93.99 101.24 94.8 101.24 95.82C101.24 96.9 100.92 97.95 100.27 98.99C99.61 100.04 98.44 101.12 96.75 102.25C95.91 102.79 94.1 103.77 91.34 105.19C91.21 106.09 91.15 106.93 91.15 107.75C91.15 108.92 91.31 109.74 91.64 110.2C91.96 110.67 92.44 110.89 93.07 110.89C93.66 110.89 94.32 110.71 95.03 110.33C95.99 109.81 97.4 108.77 99.24 107.21ZM79.3 85.28H105.3C105.39 87.92 106.83 90.15 109.09 90.72C112.04 91.46 115.3 89.09 116.34 85.44C116.36 85.38 116.38 85.33 116.39 85.28H120.7C121.71 85.28 122.54 86.09 122.54 87.09V119.48C122.54 120.47 121.71 121.29 120.7 121.29H79.3C78.29 121.29 77.46 120.47 77.46 119.48V87.09C77.46 86.09 78.29 85.28 79.3 85.28Z" fill="#6B7280"/>
</g>
<defs>
<clipPath id="clip0_15_13">
<rect width="200" height="200" fill="white"/>
</clipPath>
</defs>
</svg>