<svg xmlns="http://www.w3.org/2000/svg" width="96" height="96" viewBox="0 0 96 96" fill="none">
<path d="M24.41 64.59C24.45 70.08 27.09 75.05 31.34 78.65C35.62 82.28 41.54 84.53 48.08 84.53C54.61 84.53 60.53 82.28 64.81 78.65C69.06 75.05 71.7 70.08 71.74 64.59H74.24C74.19 70.66 71.27 76.16 66.57 80.14C61.84 84.16 55.3 86.64 48.08 86.64C40.85 86.64 34.31 84.16 29.58 80.14C24.88 76.16 21.96 70.66 21.92 64.59H24.41Z" fill="#6B7280" stroke="#6B7280" stroke-width="6.25" stroke-miterlimit="22.9256"/>
<path d="M90.6399 61.08L72.8099 43.26" stroke="#6B7280" stroke-width="6.25" stroke-miterlimit="22.9256" stroke-linecap="round"/>
<path d="M72.6299 43.26L54.8099 61.08" stroke="#6B7280" stroke-width="6.25" stroke-miterlimit="22.9256" stroke-linecap="round"/>
<path d="M54.8099 61.08H90.6399" stroke="#6B7280" stroke-width="6.25" stroke-miterlimit="22.9256"/>
<path d="M71.59 31.41C71.55 25.92 68.91 20.95 64.66 17.35C60.38 13.72 54.46 11.47 47.92 11.47C41.39 11.47 35.47 13.72 31.19 17.35C26.94 20.95 24.3 25.92 24.26 31.41H21.76C21.81 25.34 24.73 19.84 29.42 15.86C34.16 11.84 40.7 9.36 47.92 9.36C55.15 9.36 61.69 11.84 66.42 15.86C71.12 19.84 74.04 25.34 74.08 31.41H71.59Z" fill="#6B7280" stroke="#6B7280" stroke-width="6.25" stroke-miterlimit="22.9256"/>
<path d="M5.35999 34.92L23.19 52.74" stroke="#6B7280" stroke-width="6.25" stroke-miterlimit="22.9256" stroke-linecap="round"/>
<path d="M23.37 52.74L41.19 34.92" stroke="#6B7280" stroke-width="6.25" stroke-miterlimit="22.9256" stroke-linecap="round"/>
<path d="M41.19 34.92H5.35999" stroke="#6B7280" stroke-width="6.25" stroke-miterlimit="22.9256"/>
</svg>