<svg xmlns="http://www.w3.org/2000/svg" width="96" height="96" viewBox="0 0 96 96" fill="none">

<path d="M4.125 48.41V94.68H72.161V80.799H65.831L65.787 84.723L65.741 88.648H10.545V63.696L39.978 63.83V58.769L10.545 58.904V33.952H65.741L65.788 36.058L65.834 38.166H72.161V2.14197H4.125V48.41ZM65.741 18.666V29.16H10.545L10.502 18.832C10.477 13.152 10.494 8.41197 10.539 8.29797C10.602 8.13197 16.219 8.09897 38.18 8.13197L65.741 8.17397V18.666Z" fill="#6B7280"/>
<path d="M71.927 55.142C71.872 55.197 71.828 57.088 71.828 59.345V63.448H60.223C48.757 63.448 48.617 63.451 48.531 63.779C48.483 63.96 48.396 64.108 48.338 64.108C48.204 64.108 48.269 67.038 48.414 67.537L48.522 67.91H71.828V72.536C71.828 75.081 71.86 77.163 71.901 77.163C71.94 77.163 72.574 76.773 73.308 76.296C74.042 75.819 78.081 73.4 82.282 70.921C86.484 68.44 90.07 66.299 90.255 66.159C90.58 65.911 90.572 65.892 89.939 65.379C89.582 65.09 87.78 63.992 85.936 62.94C71.687 54.811 72.055 55.016 71.927 55.142Z" fill="#6B7280"/>
<path d="M64.574 40.952C64.115 41.193 63.703 41.428 63.656 41.479C63.611 41.529 61.847 42.521 59.738 43.683C57.629 44.844 55.79 45.859 55.652 45.938C53.032 47.438 50.662 48.749 50.4 48.844C50.216 48.911 50.028 49.009 49.983 49.064C49.938 49.119 49.469 49.419 48.941 49.731C48.414 50.042 47.939 50.431 47.887 50.594C47.835 50.756 47.722 50.89 47.638 50.89C47.293 50.89 47.513 51.393 48.023 51.773C48.749 52.315 48.924 52.41 54.819 55.475C60.69 58.528 63.373 59.938 64.38 60.498C65.007 60.849 65.55 61.134 65.586 61.134C65.622 61.134 65.672 59.369 65.696 57.21L65.741 53.285L77.204 53.243L88.667 53.2L88.919 52.603C89.242 51.836 89.242 50.273 88.919 49.505L88.666 48.907H65.657V44.693C65.657 42.375 65.602 40.488 65.533 40.498C65.465 40.509 65.033 40.714 64.574 40.952Z" fill="#6B7280"/>
<path d="M27.4709 18.832V24.286H47.4809V13.38H27.4709V18.832Z" fill="#6B7280"/>
<path d="M56.7701 17.31C56.2471 17.842 56.1531 18.049 56.1531 18.665C56.1531 19.229 56.2531 19.496 56.6011 19.856C56.9881 20.256 57.1771 20.32 57.9871 20.32C58.7971 20.32 58.9871 20.256 59.3731 19.856C59.7231 19.494 59.8221 19.231 59.8221 18.649C59.8221 18.008 59.7361 17.825 59.1881 17.295C58.3101 16.446 57.6181 16.449 56.7701 17.31Z" fill="#6B7280"/>
</svg>