<svg xmlns="http://www.w3.org/2000/svg" width="96" height="96" viewBox="0 0 96 96" fill="none">

<path d="M82.0801 6.43H13.9201C9.78344 6.43 6.43005 9.69384 6.43005 13.72V82.28C6.43005 86.3062 9.78344 89.57 13.9201 89.57H82.0801C86.2167 89.57 89.5701 86.3062 89.5701 82.28V13.72C89.5701 9.69384 86.2167 6.43 82.0801 6.43Z" stroke="#6B7280" stroke-width="8.33" stroke-miterlimit="22.9256"/>
<path d="M60.78 40.52H35.22C33.6681 40.52 32.41 41.7423 32.41 43.25V68.97C32.41 70.4777 33.6681 71.7 35.22 71.7H60.78C62.332 71.7 63.59 70.4777 63.59 68.97V43.25C63.59 41.7423 62.332 40.52 60.78 40.52Z" stroke="#6B7280" stroke-width="8.33" stroke-miterlimit="22.9256"/>
<path d="M52.7801 25.48C48.8701 23.22 43.9801 25.27 42.6801 29.45C42.4101 29.69 42.0901 29.82 41.7501 29.87C41.3301 29.99 40.8401 29.92 40.1601 29.78C40.1201 29.77 40.0701 29.73 40.0401 29.73L36.0701 27.44C38.6301 18.94 48.5201 15.02 56.2401 19.48C63.9601 23.94 65.5201 34.46 59.4401 40.93L53.1201 37.28C54.0401 36.69 54.7701 35.89 55.3101 34.94C57.2301 31.63 56.0901 27.39 52.7801 25.48Z" fill="#6B7280"/>
</svg>